<svg width="400" height="400" viewBox="0 0 400 400" fill="none" xmlns="http://www.w3.org/2000/svg">
<g clip-path="url(#clip0_1736_69)">
<mask id="mask0_1736_69" style="mask-type:luminance" maskUnits="userSpaceOnUse" x="0" y="0" width="400" height="400">
<path d="M0 0H400V400H0V0Z" fill="white"/>
</mask>
<g mask="url(#mask0_1736_69)">
<mask id="mask1_1736_69" style="mask-type:alpha" maskUnits="userSpaceOnUse" x="20" y="0" width="360" height="400">
<path d="M20 0V140H70V260H20V400H270C330.752 400 380 350.752 380 290C380 252.796 361.532 219.908 333.262 200C361.532 180.092 380 147.204 380 110C380 49.248 330.752 0 270 0H20Z" fill="white"/>
</mask>
<g mask="url(#mask1_1736_69)">
<path d="M400 0H0V400H400V0Z" fill="white"/>
<path d="M400 0H0V400H400V0Z" fill="white"/>
<path d="M400 0H0V400H400V0Z" fill="white"/>
<g filter="url(#filter0_f_1736_69)">
<path d="M354.4 154.603C404.832 120.746 417.268 50.9232 382.175 -1.35012C347.082 -53.6234 277.749 -68.5524 227.316 -34.6949C176.884 -0.837505 164.449 68.9852 199.542 121.259C234.635 173.532 303.967 188.461 354.4 154.603Z" fill="white"/>
<path d="M184 514C278.993 514 356 475.944 356 429C356 382.056 278.993 344 184 344C89.007 344 12 382.056 12 429C12 475.944 89.007 514 184 514Z" fill="white"/>
</g>
</g>
</g>
<mask id="mask2_1736_69" style="mask-type:alpha" maskUnits="userSpaceOnUse" x="20" y="0" width="360" height="400">
<path d="M20 0V140H70V260H20V400H270C330.752 400 380 350.752 380 290C380 252.796 361.532 219.908 333.262 200C361.532 180.092 380 147.204 380 110C380 49.248 330.752 0 270 0H20Z" fill="white"/>
</mask>
<g mask="url(#mask2_1736_69)">
<g style="mix-blend-mode:overlay">
<path d="M400 0H0V400H400V0Z" fill="white"/>
</g>
</g>
</g>
<defs>
<filter id="filter0_f_1736_69" x="-128" y="-192.827" width="670.116" height="846.827" filterUnits="userSpaceOnUse" color-interpolation-filters="sRGB">
<feFlood flood-opacity="0" result="BackgroundImageFix"/>
<feBlend mode="normal" in="SourceGraphic" in2="BackgroundImageFix" result="shape"/>
<feGaussianBlur stdDeviation="70" result="effect1_foregroundBlur_1736_69"/>
</filter>
<clipPath id="clip0_1736_69">
<rect width="400" height="400" fill="white"/>
</clipPath>
</defs>
</svg>
