<svg width="400" height="400" viewBox="0 0 400 400" fill="none" xmlns="http://www.w3.org/2000/svg">
<g clip-path="url(#clip0_1736_89)">
<mask id="mask0_1736_89" style="mask-type:luminance" maskUnits="userSpaceOnUse" x="0" y="0" width="400" height="400">
<path d="M0 0H400V400H0V0Z" fill="white"/>
</mask>
<g mask="url(#mask0_1736_89)">
<mask id="mask1_1736_89" style="mask-type:alpha" maskUnits="userSpaceOnUse" x="20" y="0" width="360" height="400">
<path d="M200 320H20V180L200 0H380V400H200V320Z" fill="white"/>
</mask>
<g mask="url(#mask1_1736_89)">
<path d="M400 0H0V400H400V0Z" fill="white"/>
<path d="M400 0H0V400H400V0Z" fill="white" fill-opacity="0.54"/>
<g filter="url(#filter0_f_1736_89)">
<path d="M179 164C251.349 164 310 117.885 310 61C310 4.11467 251.349 -42 179 -42C106.651 -42 48 4.11467 48 61C48 117.885 106.651 164 179 164Z" fill="white"/>
<path d="M53 470C134.186 470 200 393.441 200 299C200 204.559 134.186 128 53 128C-28.1859 128 -94 204.559 -94 299C-94 393.441 -28.1859 470 53 470Z" fill="white"/>
<path d="M422 238H186V502H422V238Z" fill="white"/>
</g>
</g>
</g>
<mask id="mask2_1736_89" style="mask-type:alpha" maskUnits="userSpaceOnUse" x="20" y="0" width="360" height="400">
<path d="M200 320H20V180L200 0H380V400H200V320Z" fill="white"/>
</mask>
<g mask="url(#mask2_1736_89)">
<g style="mix-blend-mode:overlay">
<path d="M400 0H0V400H400V0Z" fill="white"/>
</g>
</g>
</g>
<defs>
<filter id="filter0_f_1736_89" x="-254" y="-202" width="836" height="864" filterUnits="userSpaceOnUse" color-interpolation-filters="sRGB">
<feFlood flood-opacity="0" result="BackgroundImageFix"/>
<feBlend mode="normal" in="SourceGraphic" in2="BackgroundImageFix" result="shape"/>
<feGaussianBlur stdDeviation="80" result="effect1_foregroundBlur_1736_89"/>
</filter>
<clipPath id="clip0_1736_89">
<rect width="400" height="400" fill="white"/>
</clipPath>
</defs>
</svg>
