<svg width="2723" height="971" viewBox="0 0 2723 971" fill="none" xmlns="http://www.w3.org/2000/svg">
<path d="M2676.79 8.07541L2655.66 1M2676.79 8.07541H2614.16M2676.79 8.07541L2698.63 15.3845M2676.79 8.07541H2721.15M2655.66 1L2663.35 1.00276L2670.96 1.01808L2678.41 1.06115L2685.63 1.14599L2692.54 1.28366L2699.06 1.49088L2705.11 1.77874L2710.73 2.14583L2715.56 2.65343L2719.95 3.24167L2721.15 3.4477V8.07541M2655.66 1H2594.03M2594.03 1H2532.4M2594.03 1L2614.16 8.07541M2532.4 1H2470.77M2532.4 1L2551.52 8.07541M2470.77 1H2409.14M2470.77 1L2488.89 8.07541M2409.14 1H2347.51M2409.14 1L2426.25 8.07541M2347.51 1H2285.88M2347.51 1L2363.62 8.07541M2285.88 1H2224.25M2285.88 1L2300.98 8.07541M2224.25 1H2162.62M2224.25 1L2238.34 8.07541M2162.62 1H2100.99M2162.62 1L2175.71 8.07541M2100.99 1H2039.36M2100.99 1L2113.07 8.07541M2039.36 1H1977.74M2039.36 1L2050.44 8.07541M1977.74 1H1916.11M1977.74 1L1987.8 8.07541M1916.11 1H1854.48M1916.11 1L1918.34 2.74798L1921.73 5.39434L1925.16 8.07541M1854.48 1H1792.85M1854.48 1L1856.47 2.74798L1862.53 8.07541M1792.85 1H1731.22M1792.85 1L1799.89 8.07541M1731.22 1H1669.59M1731.22 1L1733.46 3.62684L1735.73 6.28431L1736.49 7.17848L1737.26 8.07541M1669.59 1H1607.96M1669.59 1L1671.46 3.62684L1672.09 4.50849L1672.72 5.39434L1674.62 8.07541M1607.96 1H1546.33M1607.96 1L1611.99 8.07541M1546.33 1L1546.7 1.87189L1547.08 2.74798L1548.97 7.17848L1549.35 8.07541M1546.33 1H1484.7M1484.7 1H1423.07M1484.7 1L1486.71 8.07541M1423.07 1H1361.44M1423.07 1L1423.45 3.62684L1424.08 8.07541M1361.44 1H1299.81M1361.44 1V8.07541M1299.81 1H1238.18M1299.81 1L1299.44 3.62684L1298.81 8.07541M1238.18 1H1176.55M1238.18 1L1236.17 8.07541M1176.55 1L1176.18 1.87189L1175.81 2.74798L1173.92 7.17848L1173.54 8.07541M1176.55 1H1114.93M1114.93 1H1053.3M1114.93 1L1111.41 7.17848L1110.9 8.07541M1053.3 1H991.667M1053.3 1L1051.43 3.62684L1050.8 4.50849L1049.54 6.28431L1048.9 7.17848L1048.26 8.07541M991.667 1H930.038M991.667 1L989.426 3.62684L987.156 6.28431L986.394 7.17848L985.627 8.07541M930.038 1H868.409M930.038 1L922.993 8.07541M868.409 1H806.779M868.409 1L866.42 2.74798L860.357 8.07541M806.779 1H745.15M806.779 1L797.721 8.07541M745.15 1H683.521M745.15 1L735.085 8.07541M683.521 1H621.891M683.521 1L672.449 8.07541M621.891 1H560.262M621.891 1L609.813 8.07541M560.262 1H498.633M560.262 1L547.177 8.07541M498.633 1H437.004M498.633 1L484.541 8.07541M437.004 1H375.374M437.004 1L421.905 8.07541M375.374 1H313.745M375.374 1L359.27 8.07541M313.745 1H252.116M313.745 1L296.634 8.07541M252.116 1H190.486M252.116 1L233.998 8.07541M190.486 1H128.857M190.486 1L171.363 8.07541M128.857 1H67.2278M128.857 1L108.727 8.07541M67.2278 1L59.537 1.00276L51.9254 1.01808L44.4725 1.06115L37.2533 1.14599L30.3471 1.28366L23.8276 1.49088L17.7726 1.77874L12.1525 2.14583L7.32974 2.65343L2.93901 3.24167L1.73227 3.44775V8.07541M67.2278 1L46.0914 8.07541M171.363 8.07541H233.998M171.363 8.07541H108.727M171.363 8.07541L151.604 15.3845M233.998 8.07541L215.279 15.3845M233.998 8.07541H296.634M421.905 8.07541H484.541M421.905 8.07541H359.27M421.905 8.07541L418.054 9.88044L406.307 15.3845M484.541 8.07541L469.983 15.3845M484.541 8.07541H547.177M672.449 8.07541H735.085M672.449 8.07541H609.813M672.449 8.07541L669.625 9.88044L668.203 10.7871L661.009 15.3845M735.085 8.07541L733.803 8.97515L732.517 9.88044L724.686 15.3845M735.085 8.07541H797.721M922.993 8.07541L922.095 8.97515L915.713 15.3845M922.993 8.07541H985.627M922.993 8.07541H860.357M985.627 8.07541L984.088 9.88044L983.312 10.7871L982.534 11.6994L979.388 15.3845M985.627 8.07541H1048.26M1173.54 8.07541H1236.17M1173.54 8.07541H1110.9M1173.54 8.07541L1170.42 15.3845M1236.17 8.07541L1235.91 8.97515L1235.66 9.88044L1235.4 10.7871L1234.62 13.5336L1234.09 15.3845M1236.17 8.07541H1298.81M1424.08 8.07541H1486.71M1424.08 8.07541H1361.44M1424.08 8.07541L1425.12 15.3845M1486.71 8.07541L1486.97 8.97515L1487.23 9.88044L1487.49 10.7871L1488.79 15.3845M1486.71 8.07541H1549.35M1674.62 8.07541H1737.26M1674.62 8.07541H1611.99M1674.62 8.07541L1675.91 9.88044L1678.51 13.5336L1679.16 14.457L1679.82 15.3845M1737.26 8.07541L1738.8 9.88044L1739.57 10.7871L1740.35 11.6994L1743.5 15.3845M1737.26 8.07541H1799.89M1925.16 8.07541H1987.8M1925.16 8.07541H1862.53M1925.16 8.07541L1927.48 9.88044L1928.64 10.7871L1934.52 15.3845M1987.8 8.07541L1989.08 8.97515L1990.37 9.88044L1998.2 15.3845M1987.8 8.07541H2050.44M2175.71 8.07541H2238.34M2175.71 8.07541H2113.07M2175.71 8.07541L2179.05 9.88044L2180.73 10.7871L2189.23 15.3845M2238.34 8.07541L2252.9 15.3845M2238.34 8.07541H2300.98M2426.25 8.07541H2488.89M2426.25 8.07541H2363.62M2426.25 8.07541L2443.93 15.3845M2488.89 8.07541L2507.61 15.3845M2488.89 8.07541H2551.52M1.51273 74.2408H1.73227M64.5566 74.2408L88.4705 64.9028M64.5566 74.2408L39.7263 83.9361M64.5566 74.2408H136.606M64.5566 74.2408H1.73227M88.4705 64.9028H17.7499M88.4705 64.9028L111.519 55.9028M88.4705 64.9028H159.191M17.7499 64.9028L42.0788 55.9028M17.7499 64.9028H1.73227M17.7499 64.9028L1.73227 70.827M88.1844 38.8455H155.198M88.1844 38.8455L110.05 30.7563M88.1844 38.8455H21.1719M88.1844 38.8455L65.5409 47.2226M155.198 38.8455L175.914 30.7563M155.198 38.8455L133.747 47.2226M155.198 38.8455H222.212M110.05 30.7563H175.914M110.05 30.7563L131.178 22.9411M110.05 30.7563H44.1878M175.914 30.7563H241.776M175.914 30.7563L195.929 22.9411M1.0425 221.632H1.73227M59.1786 221.632L90.0157 206.15M59.1786 221.632L26.809 237.884M59.1786 221.632H152.198M59.1786 221.632H1.73227M90.0157 206.15L119.427 191.385M90.0157 206.15H180.832M90.0157 206.15H1.73227M30.7111 191.385H119.427M30.7111 191.385L60.7975 177.287M30.7111 191.385H1.73227M30.7111 191.385L1.73227 204.963M89.5526 163.812H174.345M89.5526 163.812L117.064 150.921M89.5526 163.812H4.76046M89.5526 163.812L60.7975 177.287M174.345 163.812L200.023 150.921M174.345 163.812L147.506 177.287M174.345 163.812H259.138M117.064 150.921H200.023M117.064 150.921H34.1061M117.064 150.921L143.411 138.575M200.023 150.921L224.613 138.575M200.023 150.921H282.981M192.893 115.388H270.796M192.893 115.388L216.157 104.487M192.893 115.388H114.99M192.893 115.388L168.665 126.741M270.796 115.388L292.509 104.487M270.796 115.388L248.184 126.741M270.796 115.388H348.701M216.157 104.487H292.509M216.157 104.487H139.805M216.157 104.487L238.513 94.0111M292.509 104.487L313.375 94.0111M292.509 104.487H368.863M280.704 74.2408H352.753M280.704 74.2408L300.632 64.9028M280.704 74.2408H208.655M280.704 74.2408L260.012 83.9361M352.753 74.2408L371.353 64.9028M352.753 74.2408L333.441 83.9361M352.753 74.2408H424.802M300.632 64.9028H371.353M300.632 64.9028H229.912M300.632 64.9028L319.839 55.9028M371.353 64.9028L389.28 55.9028M371.353 64.9028H442.073M356.239 38.8455H423.252M356.239 38.8455L373.501 30.7563M356.239 38.8455H289.226M356.239 38.8455L338.363 47.2226M423.252 38.8455L439.364 30.7563M423.252 38.8455L406.568 47.2226M423.252 38.8455H490.266M373.501 30.7563H439.364M373.501 30.7563L390.182 22.9411M373.501 30.7563H307.639M439.364 30.7563H505.227M439.364 30.7563L454.932 22.9411M49.3887 490.04L92.789 459.534M49.3887 490.04L2.9121 522.707M49.3887 490.04H180.594M49.3887 490.04H1.73227M92.789 459.534L133.412 430.982M92.789 459.534H219.654M92.789 459.534H1.73227M91.908 379.031H207.321M91.908 379.031L128.996 355.334M91.908 379.031L52.5189 404.201M91.908 379.031H1.73227M207.321 379.031L241.036 355.334M207.321 379.031L171.512 404.201M207.321 379.031H322.733M128.996 355.334H241.036M128.996 355.334H16.9554M128.996 355.334L163.978 332.98M241.036 355.334L272.839 332.98M241.036 355.334H353.077M228.304 291.876H331.318M228.304 291.876L257.944 272.937M228.304 291.876H125.292M228.304 291.876L197.029 311.862M331.318 291.876L358.263 272.937M331.318 291.876L302.884 311.862M331.318 291.876H434.33M257.944 272.937H358.263M257.944 272.937H157.626M257.944 272.937L286.072 254.964M358.263 272.937L383.834 254.964M358.263 272.937H458.579M338.235 221.632H431.255M338.235 221.632L362.465 206.15M338.235 221.632H245.217M338.235 221.632L312.803 237.884M431.255 221.632L453.281 206.15M431.255 221.632L408.133 237.884M431.255 221.632H524.273M362.465 206.15H453.281M362.465 206.15H271.649M362.465 206.15L385.573 191.385M453.281 206.15L474.288 191.385M453.281 206.15H544.097M428.724 163.812H513.516M428.724 163.812L448.899 150.921M428.724 163.812H343.93M428.724 163.812L407.636 177.287M513.516 163.812L531.858 150.921M513.516 163.812L494.345 177.287M513.516 163.812H598.308M448.899 150.921H531.858M448.899 150.921H365.941M448.899 150.921L468.219 138.575M531.858 150.921L549.422 138.575M531.858 150.921H614.816M504.506 115.388H582.409M504.506 115.388L521.567 104.487M504.506 115.388H426.604M504.506 115.388L486.74 126.741M582.409 115.388L584.384 114.001L597.919 104.487M582.409 115.388L566.259 126.741M582.409 115.388H660.314M521.567 104.487H597.919M521.567 104.487H445.215M521.567 104.487L537.961 94.0111M597.919 104.487L612.823 94.0111M597.919 104.487H674.272M568.9 74.2408H640.951M568.9 74.2408L583.516 64.9028M568.9 74.2408H496.851M568.9 74.2408L553.727 83.9361M640.951 74.2408L654.236 64.9028M640.951 74.2408L635.839 77.8341L627.155 83.9361M640.951 74.2408H713M583.516 64.9028H654.236M583.516 64.9028H512.795M583.516 64.9028L597.6 55.9028M654.236 64.9028L667.04 55.9028M654.236 64.9028H724.957M624.293 38.8455H691.307M624.293 38.8455L636.952 30.7563M624.293 38.8455H557.28M624.293 38.8455L611.184 47.2226M691.307 38.8455L699.976 32.7532L701.398 31.752L702.816 30.7563M691.307 38.8455L679.389 47.2226M691.307 38.8455H758.321M636.952 30.7563H702.816M636.952 30.7563L649.184 22.9411M636.952 30.7563H571.09M702.816 30.7563H768.678M702.816 30.7563L713.934 22.9411M96.9262 837.543H277.572M96.9262 837.543L153.807 780.428M96.9262 837.543L34.422 900.305M96.9262 837.543L1.73227 837.544M277.572 837.543L326.328 780.428M277.572 837.543L223.997 900.305M277.572 837.543H458.217M153.807 780.428H326.328M153.807 780.428L205.792 728.229M153.807 780.428H1.73227M326.328 780.428L370.885 728.229M326.328 780.428H498.847M297.398 636.246H449.406M297.398 636.246L337.963 595.513M297.398 636.246H145.393M297.398 636.246L253.486 680.34M449.406 636.246L484.175 595.513M449.406 636.246L411.766 680.34M449.406 636.246H601.411M337.963 595.513H484.175M337.963 595.513H191.752M337.963 595.513L375.549 557.774M484.175 595.513L516.391 557.774M484.175 595.513H630.386M443.005 490.04H574.21M443.005 490.04L473.386 459.534M443.005 490.04H311.799M443.005 490.04L410.471 522.707M574.21 490.04L600.251 459.534M574.21 490.04L546.325 522.707M574.21 490.04H705.415M473.386 459.534H600.251M473.386 459.534H346.519M473.386 459.534L501.821 430.982M600.251 459.534L624.624 430.982M600.251 459.534H727.117M553.557 379.031H668.969M553.557 379.031L577.159 355.334M553.557 379.031H438.146M553.557 379.031L528.491 404.201M668.969 379.031L689.199 355.334M668.969 379.031L647.484 404.201M668.969 379.031H784.382M577.159 355.334H689.199M577.159 355.334H465.117M577.159 355.334L599.42 332.98M689.199 355.334L708.28 332.98M689.199 355.334H801.239M640.354 291.876H743.368M640.354 291.876L659.216 272.937M640.354 291.876H537.342M640.354 291.876L620.452 311.862M743.368 291.876L759.534 272.937M743.368 291.876L726.308 311.862M743.368 291.876H846.38M659.216 272.937H759.534M659.216 272.937H558.898M659.216 272.937L677.116 254.964M759.534 272.937L774.876 254.964M759.534 272.937H859.853M710.311 221.632H803.33M710.311 221.632L725.73 206.15M710.311 221.632H617.292M710.311 221.632L694.127 237.884M803.33 221.632L816.546 206.15M803.33 221.632L789.457 237.884M803.33 221.632H896.348M725.73 206.15H816.546M725.73 206.15H634.913M725.73 206.15L740.435 191.385M816.546 206.15L829.15 191.385M816.546 206.15H907.362M767.894 163.812H852.687M767.894 163.812L780.733 150.921M767.894 163.812H683.102M767.894 163.812L754.475 177.287M852.687 163.812L863.691 150.921M852.687 163.812L841.185 177.287M852.687 163.812H937.479M780.733 150.921H863.691M780.733 150.921H697.774M780.733 150.921L793.029 138.575M863.691 150.921L874.23 138.575M863.691 150.921H946.65M816.12 115.388H894.024M816.12 115.388L826.976 104.487M816.12 115.388H738.217M816.12 115.388L804.813 126.741M894.024 115.388L892.833 116.781L884.332 126.741M894.024 115.388L903.328 104.487M894.024 115.388H971.927M826.976 104.487H903.328M826.976 104.487H750.624M826.976 104.487L837.409 94.0111M903.328 104.487L912.271 94.0111M903.328 104.487H979.681M857.098 74.2408H929.147M857.098 74.2408L866.398 64.9028M857.098 74.2408H785.049M857.098 74.2408L847.443 83.9361M929.147 74.2408L937.118 64.9028M929.147 74.2408L926.081 77.8341L924.011 80.258L920.871 83.9361M929.147 74.2408H1001.2M866.398 64.9028H937.118M866.398 64.9028H795.677M866.398 64.9028L875.36 55.9028M937.118 64.9028L940.033 61.4889L941.954 59.2388L944.802 55.9028M937.118 64.9028H1007.84M892.348 38.8455H959.361M892.348 38.8455L898.416 32.7532L900.403 30.7563M892.348 38.8455H825.334M892.348 38.8455L885.064 46.1588L884.006 47.2226M959.361 38.8455L964.563 32.7532L965.416 31.752L966.267 30.7563M959.361 38.8455L955.817 42.9965L952.211 47.2226M959.361 38.8455H1026.37M900.403 30.7563H966.267M900.403 30.7563L908.188 22.9411M900.403 30.7563H834.541M966.267 30.7563H1032.13M966.267 30.7563L972.938 22.9411M819.508 837.543H1000.15M819.508 837.543L843.885 780.428M819.508 837.543H638.863M819.508 837.543L792.72 900.305M1000.15 837.543L1016.41 780.428M1000.15 837.543L982.295 900.305M1000.15 837.543H1180.8M843.885 780.428H1016.41M843.885 780.428H671.366M843.885 780.428L866.164 728.229M1016.41 780.428L1031.26 728.229M1016.41 780.428H1188.92M905.424 636.246H1057.43M905.424 636.246L922.809 595.513M905.424 636.246H753.417M905.424 636.246L886.604 680.34M1057.43 636.246L1069.02 595.513M1057.43 636.246L1044.88 680.34M1057.43 636.246H1209.44M922.809 595.513H1069.02M922.809 595.513H776.597M922.809 595.513L938.917 557.774M1069.02 595.513L1079.76 557.774M1069.02 595.513H1215.23M967.826 490.04H1099.03M967.826 490.04L980.847 459.534M967.826 490.04H836.621M967.826 490.04L953.884 522.707M1099.03 490.04L1107.71 459.534M1099.03 490.04L1089.74 522.707M1099.03 490.04H1230.24M980.847 459.534H1107.71M980.847 459.534H853.982M980.847 459.534L993.034 430.982M1107.71 459.534L1115.84 430.982M1107.71 459.534H1234.58M1015.21 379.031H1130.62M1015.21 379.031L1025.32 355.334M1015.21 379.031H899.794M1015.21 379.031L1004.46 404.201M1130.62 379.031L1137.36 355.334M1130.62 379.031L1123.46 404.201M1130.62 379.031H1246.03M1025.32 355.334H1137.36M1025.32 355.334H913.281M1025.32 355.334L1034.86 332.98M1137.36 355.334L1143.72 332.98M1137.36 355.334H1249.4M1052.4 291.876H1155.42M1052.4 291.876L1060.49 272.937M1052.4 291.876H949.392M1052.4 291.876L1043.88 311.862M1155.42 291.876L1160.81 272.937M1155.42 291.876L1149.73 311.862M1155.42 291.876H1258.43M1060.49 272.937H1160.81M1060.49 272.937H960.171M1060.49 272.937L1068.16 254.964M1160.81 272.937L1165.92 254.964M1160.81 272.937H1261.12M1082.39 221.632H1175.4M1082.39 221.632L1088.99 206.15M1082.39 221.632H989.368M1082.39 221.632L1075.45 237.884M1175.4 221.632L1179.81 206.15M1175.4 221.632L1170.78 237.884M1175.4 221.632H1268.42M1088.99 206.15H1179.81M1088.99 206.15H998.178M1088.99 206.15L1091.39 200.532L1095.3 191.385M1179.81 206.15L1184.01 191.385M1179.81 206.15H1270.63M1107.07 163.812H1191.86M1107.07 163.812L1112.57 150.921M1107.07 163.812H1022.27M1107.07 163.812L1102.78 173.862L1101.31 177.287M1191.86 163.812L1193.25 158.911L1195.53 150.921M1191.86 163.812L1188.02 177.287M1191.86 163.812H1276.65M1112.57 150.921L1113.24 149.348L1117.84 138.575M1112.57 150.921H1195.53M1112.57 150.921H1029.61M1195.53 150.921L1196.86 146.229L1197.3 144.681L1197.74 143.143L1199.04 138.575M1195.53 150.921H1278.48M1127.73 115.388H1205.64M1127.73 115.388L1130.08 109.882L1130.66 108.524L1131.24 107.171L1131.81 105.826L1132.39 104.487M1127.73 115.388H1049.83M1127.73 115.388L1122.89 126.741M1205.64 115.388L1207.97 107.171L1208.36 105.826L1208.74 104.487M1205.64 115.388L1202.41 126.741M1205.64 115.388H1283.54M1132.39 104.487H1208.74M1132.39 104.487H1056.03M1132.39 104.487L1135.2 97.8909L1135.75 96.5907L1136.86 94.0111M1208.74 104.487L1210.61 97.8909L1210.99 96.5907L1211.35 95.2975L1211.72 94.0111M1208.74 104.487H1285.09M1145.3 74.2408H1217.34M1145.3 74.2408L1149.28 64.9028M1145.3 74.2408H1073.25M1145.3 74.2408L1144.27 76.6299L1142.73 80.258L1141.16 83.9361M1217.34 74.2408L1217 75.4326L1214.94 82.7041L1214.59 83.9361M1217.34 74.2408L1220 64.9028M1217.34 74.2408H1289.39M1149.28 64.9028H1220M1149.28 64.9028H1078.56M1149.28 64.9028L1153.12 55.9028M1220 64.9028L1220.97 61.4889L1221.29 60.3611L1221.61 59.2388L1222.56 55.9028M1220 64.9028H1290.72M1160.4 38.8455H1227.42M1160.4 38.8455L1163 32.7532L1163.85 30.7563M1160.4 38.8455H1093.39M1160.4 38.8455L1159.08 41.9521L1158.63 42.9965L1158.18 44.0464L1156.83 47.2226M1227.42 38.8455L1227.71 37.8192L1228.29 35.7792L1228.86 33.7573L1229.72 30.7563M1227.42 38.8455L1226.23 42.9965L1225.94 44.0464L1225.33 46.1588L1225.03 47.2226M1227.42 38.8455H1294.43M1163.85 30.7563H1229.72M1163.85 30.7563L1166.78 23.9034L1167.19 22.9411M1163.85 30.7563H1097.99M1229.72 30.7563L1230 29.7648L1230.28 28.7775L1230.56 27.7943L1230.84 26.8153L1231.67 23.9034L1231.94 22.9411M1229.72 30.7563H1295.58M1542.09 837.543H1722.73M1542.09 837.543L1533.96 780.428M1542.09 837.543H1361.44M1542.09 837.543L1551.02 900.305M1722.73 837.543L1706.48 780.428M1722.73 837.543L1740.59 900.305M1722.73 837.543H1903.38M1533.96 780.428H1706.48M1533.96 780.428H1361.44M1533.96 780.428L1526.54 728.229M1706.48 780.428L1691.63 728.229M1706.48 780.428H1879M1513.45 636.246H1665.46M1513.45 636.246L1507.65 595.513M1513.45 636.246H1361.44M1513.45 636.246L1519.72 680.34M1665.46 636.246L1653.87 595.513M1665.46 636.246L1678 680.34M1665.46 636.246H1817.46M1507.65 595.513H1653.87M1507.65 595.513H1361.44M1507.65 595.513L1502.28 557.774M1653.87 595.513L1643.13 557.774M1653.87 595.513H1800.08M1492.65 490.04H1623.85M1492.65 490.04L1488.31 459.534M1492.65 490.04H1361.44M1492.65 490.04L1497.3 522.707M1623.85 490.04L1615.17 459.534M1623.85 490.04L1633.15 522.707M1623.85 490.04H1755.06M1488.31 459.534H1615.17M1488.31 459.534H1361.44M1488.31 459.534L1484.25 430.982M1615.17 459.534L1607.05 430.982M1615.17 459.534H1742.04M1476.86 379.031H1592.27M1476.86 379.031L1473.48 355.334M1476.86 379.031H1361.44M1476.86 379.031L1480.44 404.201M1592.27 379.031L1585.52 355.334M1592.27 379.031L1599.43 404.201M1592.27 379.031H1707.68M1473.48 355.334H1585.52M1473.48 355.334H1361.44M1473.48 355.334L1470.3 332.98M1585.52 355.334L1579.16 332.98M1585.52 355.334H1697.56M1464.45 291.876H1567.47M1464.45 291.876L1461.76 272.937M1464.45 291.876H1361.44M1464.45 291.876L1467.3 311.862M1567.47 291.876L1562.08 272.937M1567.47 291.876L1573.15 311.862M1567.47 291.876H1670.48M1461.76 272.937H1562.08M1461.76 272.937H1361.44M1461.76 272.937L1459.2 254.964M1562.08 272.937L1556.96 254.964M1562.08 272.937H1662.4M1454.46 221.632H1547.48M1454.46 221.632L1452.26 206.15M1454.46 221.632H1361.44M1454.46 221.632L1456.77 237.884M1547.48 221.632L1543.07 206.15M1547.48 221.632L1552.11 237.884M1547.48 221.632H1640.5M1452.26 206.15H1543.07M1452.26 206.15H1361.44M1452.26 206.15L1450.16 191.385M1543.07 206.15L1538.87 191.385M1543.07 206.15H1633.89M1446.24 163.812H1531.03M1446.24 163.812L1444.4 150.921M1446.24 163.812H1361.44M1446.24 163.812L1448.15 177.287M1531.03 163.812L1527.81 152.502L1527.36 150.921M1531.03 163.812L1534.86 177.287M1531.03 163.812H1615.82M1444.4 150.921L1444.18 149.348L1442.64 138.575M1444.4 150.921H1527.36M1444.4 150.921H1361.44M1527.36 150.921L1526.02 146.229L1525.59 144.681L1525.15 143.143L1523.85 138.575M1527.36 150.921H1610.32M1439.35 115.388H1517.25M1439.35 115.388L1437.79 104.487M1439.35 115.388H1361.44M1439.35 115.388L1439.94 119.59L1440.15 121.006L1440.35 122.428L1440.76 125.296L1440.96 126.741M1517.25 115.388L1514.91 107.171L1514.15 104.487M1517.25 115.388L1520.48 126.741M1517.25 115.388H1595.15M1437.79 104.487H1514.15M1437.79 104.487H1361.44M1437.79 104.487L1436.3 94.0111M1514.15 104.487L1512.27 97.8909L1511.9 96.5907L1511.53 95.2975L1511.17 94.0111M1514.15 104.487H1590.5M1433.49 74.2408H1505.54M1433.49 74.2408L1432.16 64.9028M1433.49 74.2408H1361.44M1433.49 74.2408L1434.87 83.9361M1505.54 74.2408L1505.88 75.4326L1507.95 82.7041L1508.3 83.9361M1505.54 74.2408L1502.88 64.9028M1505.54 74.2408H1577.59M1432.16 64.9028H1502.88M1432.16 64.9028H1361.44M1432.16 64.9028L1430.88 55.9028M1502.88 64.9028L1501.91 61.4889L1501.59 60.3611L1501.27 59.2388L1500.32 55.9028M1502.88 64.9028H1573.6M1428.46 38.8455H1495.47M1428.46 38.8455L1427.31 30.7563M1428.46 38.8455H1361.44M1428.46 38.8455L1429.65 47.2226M1495.47 38.8455L1495.18 37.8192L1494.6 35.7792L1494.31 34.7654L1493.74 32.7532L1493.45 31.752L1493.17 30.7563M1495.47 38.8455L1496.65 42.9965L1496.95 44.0464L1497.55 46.1588L1497.85 47.2226M1495.47 38.8455H1562.48M1427.31 30.7563L1427.16 29.7648L1427.02 28.7775L1426.88 27.7943L1426.19 22.9411M1427.31 30.7563H1493.17M1427.31 30.7563H1361.44M1493.17 30.7563H1559.03M1493.17 30.7563L1492.61 28.7775L1492.32 27.7943L1492.05 26.8153L1491.22 23.9034L1490.94 22.9411M2264.67 837.543H2445.31M2264.67 837.543L2224.04 780.428M2264.67 837.543H2084.02M2264.67 837.543L2309.32 900.305M2445.31 837.543L2396.56 780.428M2445.31 837.543L2498.89 900.305M2445.31 837.543H2625.96M2224.04 780.428H2396.56M2224.04 780.428H2051.52M2224.04 780.428L2186.91 728.229M2396.56 780.428L2352 728.229M2396.56 780.428H2569.08M2121.47 636.246H2273.48M2121.47 636.246L2092.5 595.513M2121.47 636.246H1969.47M2121.47 636.246L2152.84 680.34M2273.48 636.246L2238.71 595.513M2273.48 636.246L2311.12 680.34M2273.48 636.246H2425.49M2092.5 595.513H2238.71M2092.5 595.513H1946.29M2092.5 595.513L2065.65 557.774M2238.71 595.513L2206.49 557.774M2238.71 595.513H2384.92M2017.47 490.04H2148.68M2017.47 490.04L1995.77 459.534M2017.47 490.04H1886.26M2017.47 490.04L2040.71 522.707M2148.68 490.04L2122.64 459.534M2148.68 490.04L2176.56 522.707M2148.68 490.04H2279.88M1995.77 459.534H2122.64M1995.77 459.534H1868.9M1995.77 459.534L1975.46 430.982M2122.64 459.534L2098.26 430.982M2122.64 459.534H2249.5M1938.5 379.031H2053.92M1938.5 379.031L1921.65 355.334M1938.5 379.031H1823.09M1938.5 379.031L1956.41 404.201M2053.92 379.031L2033.69 355.334M2053.92 379.031L2075.4 404.201M2053.92 379.031H2169.33M1921.65 355.334H2033.69M1921.65 355.334H1809.6M1921.65 355.334L1905.74 332.98M2033.69 355.334L2014.61 332.98M2033.69 355.334H2145.73M1876.51 291.876H1979.52M1876.51 291.876L1863.03 272.937M1876.51 291.876H1773.49M1876.51 291.876L1890.72 311.862M1979.52 291.876L1963.35 272.937M1979.52 291.876L1996.58 311.862M1979.52 291.876H2082.53M1863.03 272.937H1963.35M1863.03 272.937H1762.71M1863.03 272.937L1850.25 254.964M1963.35 272.937L1948.01 254.964M1963.35 272.937H2063.67M1826.54 221.632H1919.56M1826.54 221.632L1815.52 206.15M1826.54 221.632H1733.52M1826.54 221.632L1838.1 237.884M1919.56 221.632L1906.34 206.15M1919.56 221.632L1933.43 237.884M1919.56 221.632H2012.57M1815.52 206.15H1906.34M1815.52 206.15H1724.71M1815.52 206.15L1805.02 191.385M1906.34 206.15L1893.74 191.385M1906.34 206.15H1997.16M1785.41 163.812L1786.58 165.464L1787.76 167.124L1794.99 177.287M1785.41 163.812H1870.2M1785.41 163.812L1776.24 150.921M1785.41 163.812H1700.61M1870.2 163.812L1859.19 150.921M1870.2 163.812L1881.7 177.287M1870.2 163.812H1954.99M1776.24 150.921H1859.19M1776.24 150.921H1693.28M1776.24 150.921L1767.45 138.575M1859.19 150.921L1848.66 138.575M1859.19 150.921H1942.15M1750.96 115.388H1828.86M1750.96 115.388L1743.2 104.487M1750.96 115.388H1673.06M1750.96 115.388L1759.03 126.741M1828.86 115.388L1823 108.524L1819.56 104.487M1828.86 115.388L1838.55 126.741M1828.86 115.388H1906.77M1743.2 104.487H1819.56M1743.2 104.487H1666.85M1743.2 104.487L1736.67 95.2975L1735.75 94.0111M1819.56 104.487L1810.61 94.0111M1819.56 104.487H1895.91M1721.69 74.2408H1793.74M1721.69 74.2408L1720.01 71.8726L1715.05 64.9028M1721.69 74.2408H1649.64M1721.69 74.2408L1723.39 76.6299L1726.84 81.4775L1728.59 83.9361M1793.74 74.2408L1785.77 64.9028M1793.74 74.2408L1796.81 77.8341L1798.87 80.258L1802.01 83.9361M1793.74 74.2408H1865.79M1715.05 64.9028H1785.77M1715.05 64.9028H1644.32M1715.05 64.9028L1710.22 58.1208L1708.64 55.9028M1785.77 64.9028L1782.85 61.4889L1780.93 59.2388L1778.08 55.9028M1785.77 64.9028H1856.49M1696.51 38.8455H1763.52M1696.51 38.8455L1692.89 33.7573L1690.76 30.7563M1696.51 38.8455H1629.5M1696.51 38.8455L1702.47 47.2226M1763.52 38.8455L1758.32 32.7532L1757.47 31.752L1756.62 30.7563M1763.52 38.8455L1767.07 42.9965L1770.67 47.2226M1763.52 38.8455H1830.54M1690.76 30.7563H1756.62M1690.76 30.7563L1687.95 26.8153L1686.57 24.8698L1685.88 23.9034L1685.2 22.9411M1690.76 30.7563H1624.89M1756.62 30.7563H1822.48M1756.62 30.7563L1749.95 22.9411M2677.35 595.513H2531.13M2677.35 595.513L2629.02 557.774M2677.35 595.513H2721.15M2677.35 595.513L2721.15 629.727M2542.29 490.04H2673.5M2542.29 490.04L2503.23 459.534M2542.29 490.04H2411.09M2542.29 490.04L2584.12 522.707M2673.5 490.04L2630.1 459.534M2673.5 490.04L2719.97 522.707M2673.5 490.04H2721.15M2503.23 459.534H2630.1M2503.23 459.534H2376.37M2503.23 459.534L2466.67 430.982M2630.1 459.534L2589.47 430.982M2630.1 459.534H2721.15M2400.15 379.031H2515.57M2400.15 379.031L2369.81 355.334M2400.15 379.031H2284.74M2400.15 379.031L2432.38 404.201M2515.57 379.031L2481.85 355.334M2515.57 379.031L2551.37 404.201M2515.57 379.031H2630.98M2369.81 355.334H2481.85M2369.81 355.334H2257.77M2369.81 355.334L2341.19 332.98M2481.85 355.334L2450.05 332.98M2481.85 355.334H2593.89M2288.56 291.876H2391.57M2288.56 291.876L2264.31 272.937M2288.56 291.876H2185.54M2288.56 291.876L2314.15 311.862M2391.57 291.876L2364.62 272.937M2391.57 291.876L2420 311.862M2391.57 291.876H2494.58M2264.31 272.937H2364.62M2264.31 272.937H2163.99M2264.31 272.937L2241.29 254.964M2364.62 272.937L2339.05 254.964M2364.62 272.937H2464.94M2198.61 221.632H2291.63M2198.61 221.632L2178.79 206.15M2198.61 221.632H2105.59M2198.61 221.632L2219.42 237.884M2291.63 221.632L2269.6 206.15M2291.63 221.632L2314.75 237.884M2291.63 221.632H2384.65M2178.79 206.15H2269.6M2178.79 206.15H2087.97M2178.79 206.15L2159.88 191.385M2269.6 206.15L2248.6 191.385M2269.6 206.15H2360.42M2124.58 163.812H2209.37M2124.58 163.812L2108.07 150.921M2124.58 163.812H2039.78M2124.58 163.812L2141.83 177.287M2209.37 163.812L2191.03 150.921M2209.37 163.812L2228.54 177.287M2209.37 163.812H2294.16M2108.07 150.921H2191.03M2108.07 150.921H2025.11M2108.07 150.921L2092.26 138.575M2191.03 150.921L2173.46 138.575M2191.03 150.921H2273.99M2062.57 115.388H2140.47M2062.57 115.388L2048.61 104.487M2062.57 115.388H1984.67M2062.57 115.388L2077.11 126.741M2140.47 115.388L2124.97 104.487M2140.47 115.388L2156.63 126.741M2140.47 115.388H2218.38M2048.61 104.487H2124.97M2048.61 104.487H1972.26M2048.61 104.487L2035.2 94.0111M2124.97 104.487L2110.06 94.0111M2124.97 104.487H2201.32M2009.89 74.2408H2081.94M2009.89 74.2408L1997.93 64.9028M2009.89 74.2408H1937.84M2009.89 74.2408L2012.95 76.6299L2014.49 77.8341L2022.3 83.9361M2081.94 74.2408L2068.65 64.9028M2081.94 74.2408L2095.73 83.9361M2081.94 74.2408H2153.98M1997.93 64.9028H2068.65M1997.93 64.9028H1927.21M1997.93 64.9028L1986.41 55.9028M2068.65 64.9028L2055.85 55.9028M2068.65 64.9028H2139.37M1964.56 38.8455H2031.58M1964.56 38.8455L1954.21 30.7563M1964.56 38.8455H1897.55M1964.56 38.8455L1975.29 47.2226M2031.58 38.8455L2022.91 32.7532L2021.49 31.752L2020.07 30.7563M2031.58 38.8455L2043.5 47.2226M2031.58 38.8455H2098.59M1954.21 30.7563H2020.07M1954.21 30.7563L1945.43 23.9034L1944.2 22.9411M1954.21 30.7563H1888.34M2020.07 30.7563H2085.93M2020.07 30.7563L2008.95 22.9411M2700.61 291.876L2665.58 272.937M2700.61 291.876H2597.59M2700.61 291.876L2721.15 302.986M2700.61 291.876H2721.15M2665.58 272.937H2565.26M2665.58 272.937L2632.34 254.964M2665.58 272.937H2721.15M2570.69 221.632H2663.71M2570.69 221.632L2542.05 206.15M2570.69 221.632H2477.67M2570.69 221.632L2600.75 237.884M2663.71 221.632L2632.87 206.15M2663.71 221.632L2696.08 237.884M2663.71 221.632H2721.15M2542.05 206.15H2632.87M2542.05 206.15H2451.24M2542.05 206.15L2514.74 191.385M2632.87 206.15L2603.46 191.385M2632.87 206.15H2721.15M2463.75 163.812H2548.54M2463.75 163.812L2439.9 150.921M2463.75 163.812H2378.96M2463.75 163.812L2488.67 177.287M2548.54 163.812L2522.86 150.921M2548.54 163.812L2575.38 177.287M2548.54 163.812H2633.33M2439.9 150.921H2522.86M2439.9 150.921H2356.94M2439.9 150.921L2417.07 138.575M2522.86 150.921L2498.27 138.575M2522.86 150.921H2605.82M2374.18 115.388H2452.09M2374.18 115.388L2354.02 104.487M2374.18 115.388H2296.28M2374.18 115.388L2395.18 126.741M2452.09 115.388L2430.38 104.487M2452.09 115.388L2474.7 126.741M2452.09 115.388H2529.99M2354.02 104.487H2430.38M2354.02 104.487H2277.67M2354.02 104.487L2334.65 94.0111M2430.38 104.487L2409.51 94.0111M2430.38 104.487H2506.73M2298.08 74.2408H2370.13M2298.08 74.2408L2280.81 64.9028M2298.08 74.2408H2226.03M2298.08 74.2408L2316.02 83.9361M2370.13 74.2408L2351.53 64.9028M2370.13 74.2408L2389.44 83.9361M2370.13 74.2408H2442.18M2280.81 64.9028H2351.53M2280.81 64.9028H2210.09M2280.81 64.9028L2264.17 55.9028M2351.53 64.9028L2333.61 55.9028M2351.53 64.9028H2422.25M2232.62 38.8455H2299.63M2232.62 38.8455L2217.66 30.7563M2232.62 38.8455H2165.61M2232.62 38.8455L2248.11 47.2226M2299.63 38.8455L2283.52 30.7563M2299.63 38.8455L2316.32 47.2226M2299.63 38.8455H2366.65M2217.66 30.7563H2283.52M2217.66 30.7563L2203.2 22.9411M2217.66 30.7563H2151.8M2283.52 30.7563H2349.38M2283.52 30.7563L2267.95 22.9411M2685.8 115.388L2659.43 104.487M2685.8 115.388H2607.9M2685.8 115.388L2713.26 126.741M2685.8 115.388H2721.15M2659.43 104.487H2583.08M2659.43 104.487L2634.1 94.0111M2659.43 104.487H2721.15M2586.28 74.2408H2658.33M2586.28 74.2408L2563.69 64.9028M2586.28 74.2408H2514.23M2586.28 74.2408L2609.73 83.9361M2658.33 74.2408L2634.42 64.9028M2658.33 74.2408L2683.16 83.9361M2658.33 74.2408H2721.15M2563.69 64.9028H2634.42M2563.69 64.9028H2492.97M2563.69 64.9028L2541.93 55.9028M2634.42 64.9028L2611.37 55.9028M2634.42 64.9028H2705.14M2500.67 38.8455H2567.69M2500.67 38.8455L2481.11 30.7563M2500.67 38.8455H2433.66M2500.67 38.8455L2520.93 47.2226M2567.69 38.8455L2546.97 30.7563M2567.69 38.8455L2589.14 47.2226M2567.69 38.8455H2634.7M2481.11 30.7563H2546.97M2481.11 30.7563L2462.21 22.9411M2481.11 30.7563H2415.25M2546.97 30.7563H2612.84M2546.97 30.7563L2526.96 22.9411M2589.14 47.2226L2611.37 55.9028M2589.14 47.2226H2657.34M2589.14 47.2226H2520.93M2634.7 38.8455L2612.84 30.7563M2634.7 38.8455L2657.34 47.2226M2634.7 38.8455H2701.71M2612.84 30.7563H2678.7M2612.84 30.7563L2591.71 22.9411M2526.96 22.9411H2462.21M2526.96 22.9411H2591.71M2526.96 22.9411L2507.61 15.3845M2657.34 47.2226L2680.81 55.9028M2657.34 47.2226H2721.15M2701.71 38.8455L2678.7 30.7563M2701.71 38.8455L2721.15 45.677M2701.71 38.8455H2721.15M2678.7 30.7563L2656.46 22.9411M2678.7 30.7563H2721.15M2591.71 22.9411H2656.46M2591.71 22.9411L2571.28 15.3845M2656.46 22.9411L2634.96 15.3845M2656.46 22.9411H2721.15M2611.37 55.9028H2680.81M2611.37 55.9028H2541.93M2705.14 64.9028L2680.81 55.9028M2705.14 64.9028L2721.15 70.827M2705.14 64.9028H2721.15M2680.81 55.9028H2721.15M2541.93 55.9028H2472.49M2541.93 55.9028L2520.93 47.2226M2520.93 47.2226H2452.73M2683.16 83.9361L2708.96 94.0111M2683.16 83.9361H2609.73M2683.16 83.9361H2721.15M2721.37 74.2408H2721.15M2708.96 94.0111H2634.1M2708.96 94.0111L2721.15 98.7726M2708.96 94.0111H2721.15M2634.1 94.0111H2559.23M2634.1 94.0111L2609.73 83.9361M2609.73 83.9361H2536.3M2316.32 47.2226L2333.61 55.9028M2316.32 47.2226H2384.52M2316.32 47.2226H2248.11M2366.65 38.8455L2349.38 30.7563M2366.65 38.8455L2384.52 47.2226M2366.65 38.8455H2433.66M2349.38 30.7563H2415.25M2349.38 30.7563L2332.7 22.9411M2267.95 22.9411H2332.7M2267.95 22.9411L2252.9 15.3845M2267.95 22.9411H2203.2M2384.52 47.2226L2403.05 55.9028M2384.52 47.2226H2452.73M2433.66 38.8455L2415.25 30.7563M2433.66 38.8455L2452.73 47.2226M2415.25 30.7563L2397.46 22.9411M2332.7 22.9411H2397.46M2332.7 22.9411L2316.58 15.3845M2452.73 47.2226L2472.49 55.9028M2462.21 22.9411H2397.46M2462.21 22.9411L2443.93 15.3845M2397.46 22.9411L2380.25 15.3845M2333.61 55.9028H2403.05M2333.61 55.9028H2264.17M2422.25 64.9028L2403.05 55.9028M2422.25 64.9028L2442.18 74.2408M2422.25 64.9028H2492.97M2403.05 55.9028H2472.49M2264.17 55.9028H2194.73M2264.17 55.9028L2248.11 47.2226M2472.49 55.9028L2492.97 64.9028M2248.11 47.2226H2179.91M2442.18 74.2408L2462.87 83.9361M2442.18 74.2408H2514.23M2492.97 64.9028L2514.23 74.2408M2514.23 74.2408L2536.3 83.9361M2389.44 83.9361L2409.51 94.0111M2389.44 83.9361H2462.87M2389.44 83.9361H2316.02M2462.87 83.9361L2484.37 94.0111M2462.87 83.9361H2536.3M2536.3 83.9361L2559.23 94.0111M2409.51 94.0111H2484.37M2409.51 94.0111H2334.65M2506.73 104.487L2484.37 94.0111M2506.73 104.487L2529.99 115.388M2506.73 104.487H2583.08M2484.37 94.0111H2559.23M2334.65 94.0111H2259.79M2334.65 94.0111L2316.02 83.9361M2559.23 94.0111L2583.08 104.487M2316.02 83.9361H2242.59M2529.99 115.388L2554.22 126.741M2529.99 115.388H2607.9M2583.08 104.487L2607.9 115.388M2607.9 115.388L2633.74 126.741M2474.7 126.741L2498.27 138.575M2474.7 126.741H2554.22M2474.7 126.741H2395.18M2554.22 126.741L2579.47 138.575M2554.22 126.741H2633.74M2633.74 126.741L2660.68 138.575M2633.74 126.741H2713.26M2713.26 126.741H2721.15M2713.26 126.741L2721.15 130.005M2498.27 138.575H2579.47M2498.27 138.575H2417.07M2605.82 150.921L2579.47 138.575M2605.82 150.921L2633.33 163.812M2605.82 150.921H2688.78M2579.47 138.575H2660.68M2417.07 138.575H2335.87M2417.07 138.575L2395.18 126.741M2660.68 138.575L2688.78 150.921M2660.68 138.575H2721.15M2395.18 126.741H2315.67M2633.33 163.812L2662.09 177.287M2633.33 163.812H2718.13M2688.78 150.921L2718.13 163.812M2688.78 150.921H2721.15M2721.58 138.575H2721.15M2718.13 163.812L2721.15 165.142M2718.13 163.812H2721.15M2575.38 177.287L2603.46 191.385M2575.38 177.287H2662.09M2575.38 177.287H2488.67M2662.09 177.287L2692.17 191.385M2662.09 177.287H2721.15M2721.89 165.464L2721.15 165.142M2603.46 191.385H2692.17M2603.46 191.385H2514.74M2692.17 191.385H2721.15M2692.17 191.385L2721.15 204.964M2514.74 191.385H2426.03M2514.74 191.385L2488.67 177.287M2488.67 177.287H2401.96M2696.08 237.884H2600.75M2696.08 237.884L2721.15 250.474M2696.08 237.884H2721.15M2721.84 221.632H2721.15M2600.75 237.884H2505.41M2600.75 237.884L2632.34 254.964M2721.43 250.612L2721.15 250.474M2043.5 47.2226L2055.85 55.9028M2043.5 47.2226H2111.7M2043.5 47.2226H1975.29M2098.59 38.8455L2085.93 30.7563M2098.59 38.8455L2111.7 47.2226M2098.59 38.8455H2165.61M2085.93 30.7563H2151.8M2085.93 30.7563L2073.7 22.9411M2008.95 22.9411H2073.7M2008.95 22.9411L2004.88 20.0778L1998.2 15.3845M2008.95 22.9411H1944.2M2111.7 47.2226L2125.29 55.9028M2111.7 47.2226H2179.91M2165.61 38.8455L2151.8 30.7563M2165.61 38.8455L2179.91 47.2226M2151.8 30.7563L2138.45 22.9411M2073.7 22.9411H2138.45M2073.7 22.9411L2061.88 15.3845M2179.91 47.2226L2194.73 55.9028M2203.2 22.9411L2189.23 15.3845M2203.2 22.9411H2138.45M2138.45 22.9411L2136.82 21.9815L2133.56 20.0778L2125.55 15.3845M2055.85 55.9028H2125.29M2055.85 55.9028H1986.41M2139.37 64.9028L2125.29 55.9028M2139.37 64.9028L2153.98 74.2408M2139.37 64.9028H2210.09M2125.29 55.9028H2194.73M1986.41 55.9028H1916.97M1986.41 55.9028L1975.29 47.2226M2194.73 55.9028L2210.09 64.9028M1975.29 47.2226H1907.08M2153.98 74.2408L2169.16 83.9361M2153.98 74.2408H2226.03M2210.09 64.9028L2212.05 66.0501L2226.03 74.2408M2226.03 74.2408L2242.59 83.9361M2095.73 83.9361L2097.49 85.1752L2110.06 94.0111M2095.73 83.9361H2169.16M2095.73 83.9361H2022.3M2169.16 83.9361L2184.92 94.0111M2169.16 83.9361H2242.59M2242.59 83.9361L2259.79 94.0111M2110.06 94.0111H2184.92M2110.06 94.0111H2035.2M2201.32 104.487L2184.92 94.0111M2201.32 104.487L2218.38 115.388M2201.32 104.487H2277.67M2184.92 94.0111H2259.79M2035.2 94.0111H1960.34M2035.2 94.0111L2022.3 83.9361M2259.79 94.0111L2277.67 104.487M2022.3 83.9361H1948.87M2218.38 115.388L2236.15 126.741M2218.38 115.388H2296.28M2277.67 104.487L2296.28 115.388M2296.28 115.388L2315.67 126.741M2156.63 126.741L2173.46 138.575M2156.63 126.741H2236.15M2156.63 126.741H2077.11M2236.15 126.741L2254.67 138.575M2236.15 126.741H2315.67M2315.67 126.741L2335.87 138.575M2173.46 138.575H2254.67M2173.46 138.575H2092.26M2273.99 150.921L2254.67 138.575M2273.99 150.921L2294.16 163.812M2273.99 150.921H2356.94M2254.67 138.575H2335.87M2092.26 138.575H2011.06M2092.26 138.575L2077.11 126.741M2335.87 138.575L2356.94 150.921M2077.11 126.741H1997.59M2294.16 163.812L2315.25 177.287M2294.16 163.812H2378.96M2356.94 150.921L2378.96 163.812M2378.96 163.812L2401.96 177.287M2228.54 177.287L2248.6 191.385M2228.54 177.287H2315.25M2228.54 177.287H2141.83M2315.25 177.287L2337.31 191.385M2315.25 177.287H2401.96M2401.96 177.287L2426.03 191.385M2248.6 191.385H2337.31M2248.6 191.385H2159.88M2360.42 206.15L2337.31 191.385M2360.42 206.15L2384.65 221.632M2360.42 206.15H2451.24M2337.31 191.385H2426.03M2159.88 191.385H2071.17M2159.88 191.385L2141.83 177.287M2426.03 191.385L2451.24 206.15M2141.83 177.287H2055.12M2384.65 221.632L2410.08 237.884M2384.65 221.632H2477.67M2451.24 206.15L2477.67 221.632M2477.67 221.632L2505.41 237.884M2314.75 237.884L2339.05 254.964M2314.75 237.884H2410.08M2314.75 237.884H2219.42M2410.08 237.884L2436.81 254.964M2410.08 237.884H2505.41M2505.41 237.884L2534.57 254.964M2339.05 254.964H2436.81M2339.05 254.964H2241.29M2464.94 272.937L2436.81 254.964M2464.94 272.937L2494.58 291.876M2464.94 272.937H2565.26M2436.81 254.964H2534.57M2241.29 254.964H2143.53M2241.29 254.964L2219.42 237.884M2534.57 254.964L2565.26 272.937M2534.57 254.964H2632.34M2219.42 237.884H2124.09M2494.58 291.876L2525.86 311.862M2494.58 291.876H2597.59M2565.26 272.937L2597.59 291.876M2632.34 254.964H2721.15M2597.59 291.876L2631.71 311.862M2420 311.862L2450.05 332.98M2420 311.862H2525.86M2420 311.862H2314.15M2525.86 311.862L2558.91 332.98M2525.86 311.862H2631.71M2631.71 311.862L2667.77 332.98M2631.71 311.862H2721.15M2450.05 332.98H2558.91M2450.05 332.98H2341.19M2593.89 355.334L2558.91 332.98M2593.89 355.334L2630.98 379.031M2593.89 355.334H2705.93M2558.91 332.98H2667.77M2341.19 332.98H2232.33M2341.19 332.98L2314.15 311.862M2667.77 332.98L2705.93 355.334M2667.77 332.98H2721.15M2314.15 311.862H2208.29M2630.98 379.031L2670.37 404.201M2630.98 379.031H2721.15M2705.93 355.334H2721.15M2705.93 355.334L2721.15 364.25M2551.37 404.201L2589.47 430.982M2551.37 404.201H2670.37M2551.37 404.201H2432.38M2670.37 404.201L2712.28 430.982M2670.37 404.201H2721.15M2589.47 430.982H2712.28M2589.47 430.982H2466.67M2712.28 430.982L2721.15 436.653M2712.28 430.982H2721.15M2466.67 430.982H2343.87M2466.67 430.982L2432.38 404.201M2432.38 404.201H2313.39M2719.97 522.707H2584.12M2719.97 522.707H2721.15M2719.97 522.707L2721.15 523.536M2584.12 522.707H2448.27M2584.12 522.707L2629.02 557.774M1770.67 47.2226L1773.42 50.4404L1774.35 51.5238L1778.08 55.9028M1770.67 47.2226H1838.88M1770.67 47.2226H1702.47M1830.54 38.8455L1824.47 32.7532L1822.48 30.7563M1830.54 38.8455L1837.82 46.1588L1838.88 47.2226M1830.54 38.8455H1897.55M1822.48 30.7563H1888.34M1822.48 30.7563L1814.7 22.9411M1749.95 22.9411H1814.7M1749.95 22.9411L1747.5 20.0778L1743.5 15.3845M1749.95 22.9411H1685.2M1838.88 47.2226L1841.01 49.3627L1847.53 55.9028M1838.88 47.2226H1907.08M1897.55 38.8455L1888.34 30.7563M1897.55 38.8455L1907.08 47.2226M1888.34 30.7563L1881.64 24.8698L1879.45 22.9411M1814.7 22.9411H1879.45M1814.7 22.9411L1807.17 15.3845M1907.08 47.2226L1916.97 55.9028M1944.2 22.9411L1942.97 21.9815L1934.52 15.3845M1944.2 22.9411H1879.45M1879.45 22.9411L1876.19 20.0778L1870.85 15.3845M1778.08 55.9028H1847.53M1778.08 55.9028H1708.64M1856.49 64.9028L1847.53 55.9028M1856.49 64.9028L1865.79 74.2408M1856.49 64.9028H1927.21M1847.53 55.9028H1916.97M1708.64 55.9028H1639.2M1708.64 55.9028L1702.47 47.2226M1916.97 55.9028L1927.21 64.9028M1702.47 47.2226H1634.26M1865.79 74.2408L1871.78 80.258L1873 81.4775L1875.44 83.9361M1865.79 74.2408H1937.84M1927.21 64.9028L1937.84 74.2408M1937.84 74.2408L1948.87 83.9361M1802.01 83.9361L1810.61 94.0111M1802.01 83.9361H1875.44M1802.01 83.9361H1728.59M1875.44 83.9361L1885.48 94.0111M1875.44 83.9361H1948.87M1948.87 83.9361L1960.34 94.0111M1810.61 94.0111H1885.48M1810.61 94.0111H1735.75M1895.91 104.487L1889.34 97.8909L1888.05 96.5907L1885.48 94.0111M1895.91 104.487L1906.77 115.388M1895.91 104.487H1972.26M1885.48 94.0111H1960.34M1735.75 94.0111H1660.89M1735.75 94.0111L1728.59 83.9361M1960.34 94.0111L1972.26 104.487M1728.59 83.9361H1655.16M1906.77 115.388L1918.07 126.741M1906.77 115.388H1984.67M1972.26 104.487L1984.67 115.388M1984.67 115.388L1997.59 126.741M1838.55 126.741L1843.55 132.595L1844.82 134.079L1848.66 138.575M1838.55 126.741H1918.07M1838.55 126.741H1759.03M1918.07 126.741L1929.86 138.575M1918.07 126.741H1997.59M1997.59 126.741L2011.06 138.575M1848.66 138.575H1929.86M1848.66 138.575H1767.45M1942.15 150.921L1929.86 138.575M1942.15 150.921L1954.99 163.812M1942.15 150.921H2025.11M1929.86 138.575H2011.06M1767.45 138.575H1686.25M1767.45 138.575L1765.31 135.57L1759.03 126.741M2011.06 138.575L2025.11 150.921M1759.03 126.741H1679.52M1954.99 163.812L1968.41 177.287M1954.99 163.812H2039.78M2025.11 150.921L2039.78 163.812M2039.78 163.812L2055.12 177.287M1881.7 177.287L1893.74 191.385M1881.7 177.287H1968.41M1881.7 177.287H1794.99M1968.41 177.287L1982.45 191.385M1968.41 177.287H2055.12M2055.12 177.287L2071.17 191.385M1893.74 191.385H1982.45M1893.74 191.385H1805.02M1997.16 206.15L1982.45 191.385M1997.16 206.15L2012.57 221.632M1997.16 206.15H2087.97M1982.45 191.385H2071.17M1805.02 191.385H1716.3M1805.02 191.385L1794.99 177.287M2071.17 191.385L2087.97 206.15M1794.99 177.287H1708.28M2012.57 221.632L2028.76 237.884M2012.57 221.632H2105.59M2087.97 206.15L2105.59 221.632M2105.59 221.632L2124.09 237.884M1933.43 237.884L1948.01 254.964M1933.43 237.884H2028.76M1933.43 237.884H1838.1M2028.76 237.884L2045.77 254.964M2028.76 237.884H2124.09M2124.09 237.884L2143.53 254.964M1948.01 254.964H2045.77M1948.01 254.964H1850.25M2063.67 272.937L2045.77 254.964M2063.67 272.937L2082.53 291.876M2063.67 272.937H2163.99M2045.77 254.964H2143.53M1850.25 254.964H1752.49M1850.25 254.964L1838.1 237.884M2143.53 254.964L2163.99 272.937M1838.1 237.884H1742.77M2082.53 291.876L2102.43 311.862M2082.53 291.876H2185.54M2163.99 272.937L2185.54 291.876M2185.54 291.876L2208.29 311.862M1996.58 311.862L2014.61 332.98M1996.58 311.862H2102.43M1996.58 311.862H1890.72M2102.43 311.862L2123.47 332.98M2102.43 311.862H2208.29M2208.29 311.862L2232.33 332.98M2014.61 332.98H2123.47M2014.61 332.98H1905.74M2145.73 355.334L2123.47 332.98M2145.73 355.334L2169.33 379.031M2145.73 355.334H2257.77M2123.47 332.98H2232.33M1905.74 332.98H1796.88M1905.74 332.98L1890.72 311.862M2232.33 332.98L2257.77 355.334M1890.72 311.862H1784.87M2169.33 379.031L2194.39 404.201M2169.33 379.031H2284.74M2257.77 355.334L2284.74 379.031M2284.74 379.031L2313.39 404.201M2075.4 404.201L2098.26 430.982M2075.4 404.201H2194.39M2075.4 404.201H1956.41M2194.39 404.201L2221.06 430.982M2194.39 404.201H2313.39M2313.39 404.201L2343.87 430.982M2098.26 430.982H2221.06M2098.26 430.982H1975.46M2249.5 459.534L2221.06 430.982M2249.5 459.534L2279.88 490.04M2249.5 459.534H2376.37M2221.06 430.982H2343.87M1975.46 430.982H1852.66M1975.46 430.982L1956.41 404.201M2343.87 430.982L2376.37 459.534M1956.41 404.201H1837.42M2279.88 490.04L2312.41 522.707M2279.88 490.04H2411.09M2376.37 459.534L2411.09 490.04M2411.09 490.04L2448.27 522.707M2176.56 522.707L2206.49 557.774M2176.56 522.707H2312.41M2176.56 522.707H2040.71M2312.41 522.707L2347.34 557.774M2312.41 522.707H2448.27M2448.27 522.707L2488.18 557.774M2206.49 557.774H2347.34M2206.49 557.774H2065.65M2384.92 595.513L2347.34 557.774M2384.92 595.513L2425.49 636.246M2384.92 595.513H2531.13M2347.34 557.774H2488.18M2065.65 557.774H1924.81M2065.65 557.774L2040.71 522.707M2488.18 557.774L2531.13 595.513M2488.18 557.774H2629.02M2040.71 522.707H1904.86M2425.49 636.246L2469.4 680.34M2425.49 636.246H2577.49M2531.13 595.513L2577.49 636.246M2629.02 557.774H2721.15M2577.49 636.246L2627.68 680.34M2577.49 636.246H2721.15M2311.12 680.34L2352 728.229M2311.12 680.34H2469.4M2311.12 680.34H2152.84M2469.4 680.34L2517.09 728.229M2469.4 680.34H2627.68M2627.68 680.34L2682.19 728.229M2627.68 680.34H2721.15M2352 728.229H2517.09M2352 728.229H2186.91M2569.08 780.428L2517.09 728.229M2569.08 780.428L2625.96 837.543M2569.08 780.428H2721.15M2517.09 728.229H2682.19M2186.91 728.229H2021.81M2186.91 728.229L2152.84 680.34M2682.19 728.229H2721.15M2682.19 728.229L2721.15 762.466M2152.84 680.34H1994.56M2625.96 837.543L2688.46 900.305M2625.96 837.543H2721.15M2498.89 900.305L2558.04 969.595M2498.89 900.305H2688.46M2498.89 900.305H2309.32M2688.46 900.305L2721.15 933.131M2688.46 900.305H2721.15M2558.04 969.595H2358.6M2558.04 969.595L2721.15 969.594M2358.6 969.595H2159.17M2358.6 969.595L2309.32 900.305M2309.32 900.305H2119.74M1497.85 47.2226L1498.16 48.2906L1498.46 49.3627L1498.77 50.4404L1499.08 51.5238L1500.01 54.8L1500.32 55.9028M1497.85 47.2226H1566.06M1497.85 47.2226H1429.65M1562.48 38.8455L1559.88 32.7532L1559.03 30.7563M1562.48 38.8455L1564.7 44.0464L1566.06 47.2226M1562.48 38.8455H1629.5M1559.03 30.7563H1624.89M1559.03 30.7563L1556.52 24.8698L1555.69 22.9411M1490.94 22.9411L1490.67 21.9815L1489.59 18.188L1488.79 15.3845M1490.94 22.9411H1555.69M1490.94 22.9411H1426.19M1566.06 47.2226L1566.51 48.2906L1566.97 49.3627L1567.43 50.4404L1567.89 51.5238L1569.76 55.9028M1566.06 47.2226H1634.26M1629.5 38.8455L1626.03 32.7532L1624.89 30.7563M1629.5 38.8455L1634.26 47.2226M1624.89 30.7563L1622.65 26.8153L1620.99 23.9034L1620.45 22.9411M1555.69 22.9411L1555.29 21.9815L1554.47 20.0778L1553.67 18.188L1553.27 17.2493L1552.47 15.3845M1555.69 22.9411H1620.45M1634.26 47.2226L1637.95 53.7028L1639.2 55.9028M1685.2 22.9411L1681.15 17.2493L1679.82 15.3845M1685.2 22.9411H1620.45M1620.45 22.9411L1616.68 16.3148L1616.14 15.3845M1500.32 55.9028H1569.76M1500.32 55.9028H1430.88M1573.6 64.9028L1569.76 55.9028M1573.6 64.9028L1577.59 74.2408M1573.6 64.9028H1644.32M1569.76 55.9028H1639.2M1430.88 55.9028H1361.44M1430.88 55.9028L1429.65 47.2226M1639.2 55.9028L1644.32 64.9028M1429.65 47.2226H1361.44M1577.59 74.2408L1578.61 76.6299L1580.16 80.258L1581.73 83.9361M1577.59 74.2408H1649.64M1644.32 64.9028L1644.98 66.0501L1649.64 74.2408M1649.64 74.2408L1650.32 75.4326L1651 76.6299L1651.68 77.8341L1655.16 83.9361M1508.3 83.9361L1511.17 94.0111M1508.3 83.9361H1581.73M1508.3 83.9361H1434.87M1581.73 83.9361L1586.03 94.0111M1581.73 83.9361H1655.16M1655.16 83.9361L1659.44 91.4552L1660.16 92.7304L1660.89 94.0111M1511.17 94.0111H1586.03M1511.17 94.0111H1436.3M1590.5 104.487L1591.07 105.826L1591.65 107.171L1592.22 108.524L1595.15 115.388M1590.5 104.487L1588.24 99.1967L1587.68 97.8909L1587.13 96.5907L1586.03 94.0111M1590.5 104.487H1666.85M1586.03 94.0111H1660.89M1436.3 94.0111H1361.44M1436.3 94.0111L1434.87 83.9361M1660.89 94.0111L1666.85 104.487M1434.87 83.9361H1361.44M1595.15 115.388L1599.38 125.296L1600 126.741M1595.15 115.388H1673.06M1666.85 104.487L1668.38 107.171L1673.06 115.388M1673.06 115.388L1675.45 119.59L1679.52 126.741M1520.48 126.741L1522.15 132.595L1522.57 134.079L1523.85 138.575M1520.48 126.741H1600M1520.48 126.741H1440.96M1600 126.741L1605.05 138.575M1600 126.741H1679.52M1679.52 126.741L1686.25 138.575M1523.85 138.575H1605.05M1523.85 138.575H1442.64M1610.32 150.921L1605.05 138.575M1610.32 150.921L1615.82 163.812M1610.32 150.921H1693.28M1605.05 138.575H1686.25M1442.64 138.575H1361.44M1442.64 138.575L1442.22 135.57L1441.38 129.653L1440.96 126.741M1686.25 138.575L1693.28 150.921M1440.96 126.741H1361.44M1615.82 163.812L1620.11 173.862L1621.57 177.287M1615.82 163.812H1700.61M1693.28 150.921L1700.61 163.812M1700.61 163.812L1704.4 170.474L1708.28 177.287M1534.86 177.287L1538.87 191.385M1534.86 177.287H1621.57M1534.86 177.287H1448.15M1621.57 177.287L1627.59 191.385M1621.57 177.287H1708.28M1708.28 177.287L1716.3 191.385M1538.87 191.385H1627.59M1538.87 191.385H1450.16M1633.89 206.15L1632.29 202.394L1627.59 191.385M1633.89 206.15L1640.5 221.632M1633.89 206.15H1724.71M1627.59 191.385H1716.3M1450.16 191.385H1361.44M1450.16 191.385L1448.15 177.287M1716.3 191.385L1724.71 206.15M1448.15 177.287H1361.44M1640.5 221.632L1647.44 237.884M1640.5 221.632H1733.52M1724.71 206.15L1733.52 221.632M1733.52 221.632L1742.77 237.884M1552.11 237.884L1556.96 254.964M1552.11 237.884H1647.44M1552.11 237.884H1456.77M1647.44 237.884L1654.73 254.964M1647.44 237.884H1742.77M1742.77 237.884L1752.49 254.964M1556.96 254.964H1654.73M1556.96 254.964H1459.2M1662.4 272.937L1654.73 254.964M1662.4 272.937L1670.48 291.876M1662.4 272.937H1762.71M1654.73 254.964H1752.49M1459.2 254.964H1361.44M1459.2 254.964L1457.07 239.973L1456.77 237.884M1752.49 254.964L1762.71 272.937M1456.77 237.884H1361.44M1670.48 291.876L1679.01 311.862M1670.48 291.876H1773.49M1762.71 272.937L1770.74 287.048L1773.49 291.876M1773.49 291.876L1784.87 311.862M1573.15 311.862L1579.16 332.98M1573.15 311.862H1679.01M1573.15 311.862H1467.3M1679.01 311.862L1688.02 332.98M1679.01 311.862H1784.87M1784.87 311.862L1796.88 332.98M1579.16 332.98H1688.02M1579.16 332.98H1470.3M1697.56 355.334L1688.02 332.98M1697.56 355.334L1707.68 379.031M1697.56 355.334H1809.6M1688.02 332.98H1796.88M1470.3 332.98H1361.44M1470.3 332.98L1467.3 311.862M1796.88 332.98L1809.6 355.334M1467.3 311.862H1361.44M1707.68 379.031L1718.42 404.201M1707.68 379.031H1823.09M1809.6 355.334L1823.09 379.031M1823.09 379.031L1837.42 404.201M1599.43 404.201L1607.05 430.982M1599.43 404.201H1718.42M1599.43 404.201H1480.44M1718.42 404.201L1729.85 430.982M1718.42 404.201H1837.42M1837.42 404.201L1852.66 430.982M1607.05 430.982H1729.85M1607.05 430.982H1484.25M1742.04 459.534L1729.85 430.982M1742.04 459.534L1755.06 490.04M1742.04 459.534H1868.9M1729.85 430.982H1852.66M1484.25 430.982H1361.44M1484.25 430.982L1480.44 404.201M1852.66 430.982L1868.9 459.534M1480.44 404.201H1361.44M1755.06 490.04L1769 522.707M1755.06 490.04H1886.26M1868.9 459.534L1886.26 490.04M1886.26 490.04L1904.86 522.707M1633.15 522.707L1643.13 557.774M1633.15 522.707H1769M1633.15 522.707H1497.3M1769 522.707L1783.97 557.774M1769 522.707H1904.86M1904.86 522.707L1924.81 557.774M1643.13 557.774H1783.97M1643.13 557.774H1502.28M1800.08 595.513L1783.97 557.774M1800.08 595.513L1817.46 636.246M1800.08 595.513H1946.29M1783.97 557.774H1924.81M1502.28 557.774H1361.44M1502.28 557.774L1497.3 522.707M1924.81 557.774L1946.29 595.513M1497.3 522.707H1361.44M1817.46 636.246L1836.28 680.34M1817.46 636.246H1969.47M1946.29 595.513L1969.47 636.246M1969.47 636.246L1994.56 680.34M1678 680.34L1691.63 728.229M1678 680.34H1836.28M1678 680.34H1519.72M1836.28 680.34L1856.72 728.229M1836.28 680.34H1994.56M1994.56 680.34L2021.81 728.229M1691.63 728.229H1856.72M1691.63 728.229H1526.54M1879 780.428L1856.72 728.229M1879 780.428L1903.38 837.543M1879 780.428H2051.52M1856.72 728.229H2021.81M1526.54 728.229H1361.44M1526.54 728.229L1519.72 680.34M2021.81 728.229L2051.52 780.428M1519.72 680.34H1361.44M1903.38 837.543L1930.17 900.305M1903.38 837.543H2084.02M2051.52 780.428L2084.02 837.543M2084.02 837.543L2119.74 900.305M1740.59 900.305L1760.31 969.595M1740.59 900.305H1930.17M1740.59 900.305H1551.02M1930.17 900.305L1959.74 969.595M1930.17 900.305H2119.74M2119.74 900.305L2159.17 969.595M1959.74 969.595H1760.31M1959.74 969.595H2159.17M1760.31 969.595H1560.88M1560.88 969.595H1361.44M1560.88 969.595L1551.02 900.305M1551.02 900.305H1361.44M1225.03 47.2226L1224.73 48.2906L1224.42 49.3627L1224.12 50.4404L1223.81 51.5238L1223.19 53.7028L1222.88 54.8L1222.56 55.9028M1225.03 47.2226H1293.24M1225.03 47.2226H1156.83M1294.43 38.8455L1295.58 30.7563M1294.43 38.8455L1293.24 47.2226M1294.43 38.8455H1361.44M1295.58 30.7563L1295.72 29.7648L1295.86 28.7775L1296 27.7943L1296.69 22.9411M1295.58 30.7563H1361.44M1231.94 22.9411L1232.21 21.9815L1233.29 18.188L1234.09 15.3845M1231.94 22.9411H1296.69M1231.94 22.9411H1167.19M1293.24 47.2226L1293.08 48.2906L1292.93 49.3627L1292.78 50.4404L1292 55.9028M1293.24 47.2226H1361.44M1361.44 38.8455V30.7563M1361.44 38.8455V47.2226M1361.44 30.7563V22.9411M1296.69 22.9411H1361.44M1296.69 22.9411L1297.1 20.0778L1297.23 19.1308L1297.77 15.3845M1361.44 47.2226V55.9028M1426.19 22.9411L1425.79 20.0778L1425.65 19.1308L1425.52 18.188L1425.38 17.2493L1425.25 16.3148L1425.12 15.3845M1426.19 22.9411H1361.44M1361.44 22.9411V15.3845M1222.56 55.9028H1292M1222.56 55.9028H1153.12M1290.72 64.9028L1290.56 66.0501L1290.4 67.2043L1289.39 74.2408M1290.72 64.9028L1292 55.9028M1290.72 64.9028H1361.44M1292 55.9028H1361.44M1153.12 55.9028H1083.68M1153.12 55.9028L1154.06 53.7028L1154.53 52.6112L1154.99 51.5238L1155.45 50.4404L1155.91 49.3627L1156.37 48.2906L1156.83 47.2226M1361.44 55.9028V64.9028M1156.83 47.2226H1088.62M1289.39 74.2408L1288.01 83.9361M1289.39 74.2408H1361.44M1361.44 64.9028V74.2408M1361.44 74.2408V83.9361M1214.59 83.9361L1211.72 94.0111M1214.59 83.9361H1288.01M1214.59 83.9361H1141.16M1288.01 83.9361L1286.58 94.0111M1288.01 83.9361H1361.44M1361.44 83.9361V94.0111M1211.72 94.0111H1286.58M1211.72 94.0111H1136.86M1285.09 104.487L1286.58 94.0111M1285.09 104.487L1283.54 115.388M1285.09 104.487H1361.44M1286.58 94.0111H1361.44M1136.86 94.0111H1061.99M1136.86 94.0111L1141.16 83.9361M1361.44 94.0111V104.487M1141.16 83.9361H1067.73M1283.54 115.388L1282.94 119.59L1282.33 123.858L1281.92 126.741M1283.54 115.388H1361.44M1361.44 104.487V115.388M1361.44 115.388V126.741M1202.41 126.741L1200.74 132.595L1200.32 134.079L1199.04 138.575M1202.41 126.741H1281.92M1202.41 126.741H1122.89M1281.92 126.741L1281.51 129.653L1280.67 135.57L1280.24 138.575M1281.92 126.741H1361.44M1361.44 126.741V138.575M1199.04 138.575H1280.24M1199.04 138.575H1117.84M1278.48 150.921L1278.71 149.348L1280.24 138.575M1278.48 150.921L1276.65 163.812M1278.48 150.921H1361.44M1280.24 138.575H1361.44M1117.84 138.575H1036.63M1117.84 138.575L1122.89 126.741M1361.44 138.575V150.921M1122.89 126.741H1043.37M1276.65 163.812L1274.73 177.287M1276.65 163.812H1361.44M1361.44 150.921V163.812M1361.44 163.812V177.287M1188.02 177.287L1184.01 191.385M1188.02 177.287H1274.73M1188.02 177.287H1101.31M1274.73 177.287L1272.73 191.385M1274.73 177.287H1361.44M1361.44 177.287V191.385M1184.01 191.385H1272.73M1184.01 191.385H1095.3M1270.63 206.15L1272.73 191.385M1270.63 206.15L1268.42 221.632M1270.63 206.15H1361.44M1272.73 191.385H1361.44M1095.3 191.385H1006.58M1095.3 191.385L1101.31 177.287M1361.44 191.385V206.15M1101.31 177.287H1014.6M1268.42 221.632L1266.11 237.884M1268.42 221.632H1361.44M1361.44 206.15V221.632M1361.44 221.632V237.884M1170.78 237.884L1165.92 254.964M1170.78 237.884H1266.11M1170.78 237.884H1075.45M1266.11 237.884L1263.68 254.964M1266.11 237.884H1361.44M1361.44 237.884V254.964M1165.92 254.964H1263.68M1165.92 254.964H1068.16M1261.12 272.937L1263.68 254.964M1261.12 272.937L1258.43 291.876M1261.12 272.937H1361.44M1263.68 254.964H1361.44M1068.16 254.964H970.399M1068.16 254.964L1075.45 237.884M1361.44 254.964V272.937M1075.45 237.884H980.119M1258.43 291.876L1255.59 311.862M1258.43 291.876H1361.44M1361.44 272.937V291.876M1361.44 291.876V311.862M1149.73 311.862L1143.72 332.98M1149.73 311.862H1255.59M1149.73 311.862H1043.88M1255.59 311.862L1252.58 332.98M1255.59 311.862H1361.44M1361.44 311.862V332.98M1143.72 332.98H1252.58M1143.72 332.98H1034.86M1249.4 355.334L1252.58 332.98M1249.4 355.334L1246.03 379.031M1249.4 355.334H1361.44M1252.58 332.98H1361.44M1034.86 332.98H926.001M1034.86 332.98L1043.88 311.862M1361.44 332.98V355.334M1043.88 311.862H938.019M1246.03 379.031L1242.45 404.201M1246.03 379.031H1361.44M1361.44 355.334V379.031M1361.44 379.031V404.201M1123.46 404.201L1115.84 430.982M1123.46 404.201H1242.45M1123.46 404.201H1004.46M1242.45 404.201L1238.64 430.982M1242.45 404.201H1361.44M1361.44 404.201V430.982M1115.84 430.982H1238.64M1115.84 430.982H993.034M1234.58 459.534L1238.64 430.982M1234.58 459.534L1230.24 490.04M1234.58 459.534H1361.44M1238.64 430.982H1361.44M993.034 430.982H870.23M993.034 430.982L1004.46 404.201M1361.44 430.982V459.534M1004.46 404.201H885.47M1230.24 490.04L1225.59 522.707M1230.24 490.04H1361.44M1361.44 459.534V490.04M1361.44 490.04V522.707M1089.74 522.707L1079.76 557.774M1089.74 522.707H1225.59M1089.74 522.707H953.884M1225.59 522.707L1220.6 557.774M1225.59 522.707H1361.44M1361.44 522.707V557.774M1079.76 557.774H1220.6M1079.76 557.774H938.917M1215.23 595.513L1220.6 557.774M1215.23 595.513L1209.44 636.246M1215.23 595.513H1361.44M1220.6 557.774H1361.44M938.917 557.774H798.075M938.917 557.774L953.884 522.707M1361.44 557.774V595.513M953.884 522.707H818.03M1209.44 636.246L1203.16 680.34M1209.44 636.246H1361.44M1361.44 595.513V636.246M1361.44 636.246V680.34M1044.88 680.34L1031.26 728.229M1044.88 680.34H1203.16M1044.88 680.34H886.604M1203.16 680.34L1196.35 728.229M1203.16 680.34H1361.44M1361.44 680.34V728.229M1031.26 728.229H1196.35M1031.26 728.229H866.164M1188.92 780.428L1196.35 728.229M1188.92 780.428L1180.8 837.543M1188.92 780.428H1361.44M1196.35 728.229H1361.44M866.164 728.229H701.071M866.164 728.229L886.604 680.34M1361.44 728.229V780.428M886.604 680.34H728.325M1180.8 837.543L1171.87 900.305M1180.8 837.543H1361.44M1361.44 780.428V837.543M1361.44 837.543V900.305M982.295 900.305L962.579 969.595M982.295 900.305H1171.87M982.295 900.305H792.72M1171.87 900.305L1162.01 969.595M1171.87 900.305H1361.44M1361.44 900.305V969.595M1162.01 969.595H962.579M1162.01 969.595H1361.44M962.579 969.595H763.146M763.146 969.595H563.713M763.146 969.595L792.72 900.305M792.72 900.305H603.145M952.211 47.2226L948.54 51.5238L944.802 55.9028M952.211 47.2226H1020.42M952.211 47.2226H884.006M1026.37 38.8455L1032.13 30.7563M1026.37 38.8455L1020.42 47.2226M1026.37 38.8455H1093.39M1032.13 30.7563H1097.99M1032.13 30.7563L1036.32 24.8698L1037.69 22.9411M972.938 22.9411H1037.69M972.938 22.9411L975.383 20.0778L979.388 15.3845M972.938 22.9411H908.188M1020.42 47.2226L1014.24 55.9028M1020.42 47.2226H1088.62M1093.39 38.8455L1097.99 30.7563M1093.39 38.8455L1088.62 47.2226M1097.99 30.7563L1100.24 26.8153L1101.89 23.9034L1102.44 22.9411M1037.69 22.9411H1102.44M1037.69 22.9411L1041.74 17.2493L1043.06 15.3845M1088.62 47.2226L1084.93 53.7028L1083.68 55.9028M1167.19 22.9411L1167.6 21.9815L1168.41 20.0778L1169.62 17.2493L1170.42 15.3845M1167.19 22.9411H1102.44M1102.44 22.9411L1102.98 21.9815L1104.07 20.0778L1106.74 15.3845M944.802 55.9028H1014.24M944.802 55.9028H875.36M1007.84 64.9028L1008.65 63.7597L1009.46 62.6208L1012.66 58.1208L1014.24 55.9028M1007.84 64.9028L1002.88 71.8726L1001.2 74.2408M1007.84 64.9028H1078.56M1014.24 55.9028H1083.68M875.36 55.9028H805.92M875.36 55.9028L881.873 49.3627L884.006 47.2226M1083.68 55.9028L1078.56 64.9028M884.006 47.2226H815.799M1001.2 74.2408L1000.35 75.4326L999.496 76.6299L996.917 80.258L996.048 81.4775L994.3 83.9361M1001.2 74.2408H1073.25M1078.56 64.9028L1077.91 66.0501L1073.25 74.2408M1073.25 74.2408L1072.57 75.4326L1071.89 76.6299L1071.2 77.8341L1067.73 83.9361M920.871 83.9361L912.271 94.0111M920.871 83.9361H994.3M920.871 83.9361H847.443M994.3 83.9361L987.133 94.0111M994.3 83.9361H1067.73M1067.73 83.9361L1061.99 94.0111M912.271 94.0111H987.133M912.271 94.0111H837.409M979.681 104.487L987.133 94.0111M979.681 104.487L971.927 115.388M979.681 104.487H1056.03M987.133 94.0111H1061.99M837.409 94.0111H762.547M837.409 94.0111L847.443 83.9361M1061.99 94.0111L1056.03 104.487M847.443 83.9361H774.012M971.927 115.388L963.851 126.741M971.927 115.388H1049.83M1056.03 104.487L1054.51 107.171L1049.83 115.388M1049.83 115.388L1047.44 119.59L1045.01 123.858L1043.37 126.741M884.332 126.741L879.333 132.595L874.23 138.575M884.332 126.741H963.851M884.332 126.741H804.813M963.851 126.741L955.432 138.575M963.851 126.741H1043.37M1043.37 126.741L1036.63 138.575M874.23 138.575H955.432M874.23 138.575H793.029M946.65 150.921L955.432 138.575M946.65 150.921L937.479 163.812M946.65 150.921H1029.61M955.432 138.575H1036.63M793.029 138.575H711.825M793.029 138.575L804.813 126.741M1036.63 138.575L1029.61 150.921M804.813 126.741H725.295M937.479 163.812L935.123 167.124L927.895 177.287M937.479 163.812H1022.27M1029.61 150.921L1022.27 163.812M1022.27 163.812L1021.33 165.464L1018.48 170.474L1014.6 177.287M841.185 177.287L829.15 191.385M841.185 177.287H927.895M841.185 177.287H754.475M927.895 177.287L917.866 191.385M927.895 177.287H1014.6M1014.6 177.287L1006.58 191.385M829.15 191.385H917.866M829.15 191.385H740.435M907.362 206.15L913.985 196.841L917.866 191.385M907.362 206.15L896.348 221.632M907.362 206.15H998.178M917.866 191.385H1006.58M740.435 191.385H651.719M740.435 191.385L754.475 177.287M1006.58 191.385L998.178 206.15M754.475 177.287H667.765M896.348 221.632L884.788 237.884M896.348 221.632H989.368M998.178 206.15L989.368 221.632M989.368 221.632L980.119 237.884M789.457 237.884L774.876 254.964M789.457 237.884H884.788M789.457 237.884H694.127M884.788 237.884L872.638 254.964M884.788 237.884H980.119M980.119 237.884L970.399 254.964M774.876 254.964H872.638M774.876 254.964H677.116M859.853 272.937L872.638 254.964M859.853 272.937L846.38 291.876M859.853 272.937H960.171M872.638 254.964H970.399M677.116 254.964H579.356M677.116 254.964L694.127 237.884M970.399 254.964L960.171 272.937M694.127 237.884H598.795M846.38 291.876L832.164 311.862M846.38 291.876H949.392M960.171 272.937L949.392 291.876M949.392 291.876L938.019 311.862M726.308 311.862L708.28 332.98M726.308 311.862H832.164M726.308 311.862H620.452M832.164 311.862L817.141 332.98M832.164 311.862H938.019M938.019 311.862L926.001 332.98M708.28 332.98H817.141M708.28 332.98H599.42M801.239 355.334L817.141 332.98M801.239 355.334L784.382 379.031M801.239 355.334H913.281M817.141 332.98H926.001M599.42 332.98H490.56M599.42 332.98L620.452 311.862M926.001 332.98L913.281 355.334M620.452 311.862H514.597M784.382 379.031L766.477 404.201M784.382 379.031H899.794M913.281 355.334L899.794 379.031M899.794 379.031L885.47 404.201M647.484 404.201L624.624 430.982M647.484 404.201H766.477M647.484 404.201H528.491M766.477 404.201L747.427 430.982M766.477 404.201H885.47M885.47 404.201L870.23 430.982M624.624 430.982H747.427M624.624 430.982H501.821M727.117 459.534L747.427 430.982M727.117 459.534L705.415 490.04M727.117 459.534H853.982M747.427 430.982H870.23M501.821 430.982H379.018M501.821 430.982L528.491 404.201M870.23 430.982L853.982 459.534M528.491 404.201H409.498M705.415 490.04L682.178 522.707M705.415 490.04H836.621M853.982 459.534L836.621 490.04M836.621 490.04L818.03 522.707M546.325 522.707L516.391 557.774M546.325 522.707H682.178M546.325 522.707H410.471M682.178 522.707L657.233 557.774M682.178 522.707H818.03M818.03 522.707L798.075 557.774M516.391 557.774H657.233M516.391 557.774H375.549M630.386 595.513L657.233 557.774M630.386 595.513L601.411 636.246M630.386 595.513H776.597M657.233 557.774H798.075M375.549 557.774H234.707M375.549 557.774L410.471 522.707M798.075 557.774L776.597 595.513M410.471 522.707H274.618M601.411 636.246L570.045 680.34M601.411 636.246H753.417M776.597 595.513L753.417 636.246M753.417 636.246L728.325 680.34M411.766 680.34L370.885 728.229M411.766 680.34H570.045M411.766 680.34H253.486M570.045 680.34L535.978 728.229M570.045 680.34H728.325M728.325 680.34L701.071 728.229M370.885 728.229H535.978M370.885 728.229H205.792M498.847 780.428L535.978 728.229M498.847 780.428L458.217 837.543M498.847 780.428H671.366M535.978 728.229H701.071M205.792 728.229H40.6993M205.792 728.229L253.486 680.34M701.071 728.229L671.366 780.428M253.486 680.34H95.2067M458.217 837.543L413.572 900.305M458.217 837.543H638.863M671.366 780.428L638.863 837.543M638.863 837.543L603.145 900.305M223.997 900.305L164.849 969.595M223.997 900.305H413.572M223.997 900.305H34.422M413.572 900.305L364.282 969.595M413.572 900.305H603.145M603.145 900.305L563.713 969.595M364.282 969.595H164.849M364.282 969.595H563.713M164.849 969.595L1.73227 969.594M34.422 900.305L1.73227 933.131M34.422 900.305H1.73227M679.389 47.2226L667.04 55.9028M679.389 47.2226H747.594M679.389 47.2226H611.184M758.321 38.8455L768.678 30.7563M758.321 38.8455L747.594 47.2226M758.321 38.8455H825.334M768.678 30.7563H834.541M768.678 30.7563L778.686 22.9411M713.934 22.9411H778.686M713.934 22.9411L718.009 20.0778L724.686 15.3845M713.934 22.9411H649.184M747.594 47.2226L736.48 55.9028M747.594 47.2226H815.799M825.334 38.8455L834.541 30.7563M825.334 38.8455L815.799 47.2226M834.541 30.7563L841.242 24.8698L843.437 22.9411M778.686 22.9411L779.913 21.9815L788.362 15.3845M778.686 22.9411H843.437M815.799 47.2226L805.92 55.9028M908.188 22.9411L915.713 15.3845M908.188 22.9411H843.437M843.437 22.9411L846.696 20.0778L852.037 15.3845M667.04 55.9028H736.48M667.04 55.9028H597.6M724.957 64.9028L736.48 55.9028M724.957 64.9028L713 74.2408M724.957 64.9028H795.677M736.48 55.9028H805.92M597.6 55.9028H528.16M597.6 55.9028L611.184 47.2226M805.92 55.9028L795.677 64.9028M611.184 47.2226H542.979M713 74.2408L709.939 76.6299L700.584 83.9361M713 74.2408H785.049M795.677 64.9028L785.049 74.2408M785.049 74.2408L774.012 83.9361M627.155 83.9361L625.395 85.1752L612.823 94.0111M627.155 83.9361H700.584M627.155 83.9361H553.727M700.584 83.9361L687.685 94.0111M700.584 83.9361H774.012M774.012 83.9361L772.605 85.1752L762.547 94.0111M612.823 94.0111H687.685M612.823 94.0111H537.961M674.272 104.487L687.685 94.0111M674.272 104.487L660.314 115.388M674.272 104.487H750.624M687.685 94.0111H762.547M537.961 94.0111H463.099M537.961 94.0111L553.727 83.9361M762.547 94.0111L750.624 104.487M553.727 83.9361H480.298M660.314 115.388L645.776 126.741M660.314 115.388H738.217M750.624 104.487L738.217 115.388M738.217 115.388L725.295 126.741M566.259 126.741L549.422 138.575M566.259 126.741H645.776M566.259 126.741H486.74M645.776 126.741L630.624 138.575M645.776 126.741H725.295M725.295 126.741L711.825 138.575M549.422 138.575H630.624M549.422 138.575H468.219M614.816 150.921L630.624 138.575M614.816 150.921L598.308 163.812M614.816 150.921H697.774M630.624 138.575H711.825M468.219 138.575H387.018M468.219 138.575L486.74 126.741M711.825 138.575L697.774 150.921M486.74 126.741H407.221M598.308 163.812L581.055 177.287M598.308 163.812H683.102M697.774 150.921L683.102 163.812M683.102 163.812L667.765 177.287M494.345 177.287L474.288 191.385M494.345 177.287H581.055M494.345 177.287H407.636M581.055 177.287L563.004 191.385M581.055 177.287H667.765M667.765 177.287L651.719 191.385M474.288 191.385H563.004M474.288 191.385H385.573M544.097 206.15L563.004 191.385M544.097 206.15L524.273 221.632M544.097 206.15H634.913M563.004 191.385H651.719M385.573 191.385H296.857M385.573 191.385L407.636 177.287M651.719 191.385L634.913 206.15M407.636 177.287H320.926M524.273 221.632L503.464 237.884M524.273 221.632H617.292M634.913 206.15L617.292 221.632M617.292 221.632L598.795 237.884M408.133 237.884L383.834 254.964M408.133 237.884H503.464M408.133 237.884H312.803M503.464 237.884L481.594 254.964M503.464 237.884H598.795M598.795 237.884L579.356 254.964M383.834 254.964H481.594M383.834 254.964H286.072M458.579 272.937L481.594 254.964M458.579 272.937L434.33 291.876M458.579 272.937H558.898M481.594 254.964H579.356M286.072 254.964H188.311M286.072 254.964L312.803 237.884M579.356 254.964L558.898 272.937M312.803 237.884H217.472M434.33 291.876L408.74 311.862M434.33 291.876H537.342M558.898 272.937L537.342 291.876M537.342 291.876L514.597 311.862M302.884 311.862L272.839 332.98M302.884 311.862H408.74M302.884 311.862H197.029M408.74 311.862L381.699 332.98M408.74 311.862H514.597M514.597 311.862L490.56 332.98M272.839 332.98H381.699M272.839 332.98H163.978M353.077 355.334L381.699 332.98M353.077 355.334L322.733 379.031M353.077 355.334H465.117M381.699 332.98H490.56M163.978 332.98H55.1179M163.978 332.98L197.029 311.862M490.56 332.98L465.117 355.334M197.029 311.862H91.1729M322.733 379.031L290.505 404.201M322.733 379.031H438.146M465.117 355.334L438.146 379.031M438.146 379.031L409.498 404.201M171.512 404.201L133.412 430.982M171.512 404.201H290.505M171.512 404.201H52.5189M290.505 404.201L256.215 430.982M290.505 404.201H409.498M409.498 404.201L379.018 430.982M133.412 430.982H256.215M133.412 430.982H10.6086M219.654 459.534L256.215 430.982M219.654 459.534L180.594 490.04M219.654 459.534H346.519M256.215 430.982H379.018M10.6086 430.982L52.5189 404.201M10.6086 430.982H1.73227M10.6086 430.982L1.73227 436.653M379.018 430.982L346.519 459.534M52.5189 404.201H1.73227M180.594 490.04L138.766 522.707M180.594 490.04H311.799M346.519 459.534L311.799 490.04M311.799 490.04L274.618 522.707M2.9121 522.707H138.766M2.9121 522.707H1.73227M2.9121 522.707L1.73227 523.536M138.766 522.707L93.864 557.774M138.766 522.707H274.618M274.618 522.707L234.707 557.774M45.5404 595.513L93.864 557.774M45.5404 595.513H191.752M45.5404 595.513H1.73227M45.5404 595.513L1.73227 629.727M93.864 557.774H234.707M93.864 557.774H1.73227M234.707 557.774L191.752 595.513M191.752 595.513L145.393 636.246M145.393 636.246L95.2067 680.34M145.393 636.246H1.73227M95.2067 680.34L40.6993 728.229M95.2067 680.34H1.73227M40.6993 728.229H1.73227M40.6993 728.229L1.73227 762.466M406.568 47.2226L389.28 55.9028M406.568 47.2226H474.774M406.568 47.2226H338.363M490.266 38.8455L505.227 30.7563M490.266 38.8455L474.774 47.2226M490.266 38.8455H557.28M505.227 30.7563H571.09M505.227 30.7563L519.683 22.9411M454.932 22.9411H519.683M454.932 22.9411L469.983 15.3845M454.932 22.9411H390.182M474.774 47.2226L458.72 55.9028M474.774 47.2226H542.979M557.28 38.8455L571.09 30.7563M557.28 38.8455L542.979 47.2226M571.09 30.7563L584.433 22.9411M519.683 22.9411L521.455 21.9815L533.658 15.3845M519.683 22.9411H584.433M542.979 47.2226L528.16 55.9028M649.184 22.9411L661.009 15.3845M649.184 22.9411H584.433M584.433 22.9411L586.069 21.9815L597.334 15.3845M389.28 55.9028H458.72M389.28 55.9028H319.839M442.073 64.9028L458.72 55.9028M442.073 64.9028L424.802 74.2408M442.073 64.9028H512.795M458.72 55.9028H528.16M319.839 55.9028H250.399M319.839 55.9028L338.363 47.2226M528.16 55.9028L512.795 64.9028M338.363 47.2226H270.158M424.802 74.2408L406.869 83.9361M424.802 74.2408H496.851M512.795 64.9028L510.833 66.0501L496.851 74.2408M496.851 74.2408L480.298 83.9361M333.441 83.9361L313.375 94.0111M333.441 83.9361H406.869M333.441 83.9361H260.012M406.869 83.9361L388.237 94.0111M406.869 83.9361H480.298M480.298 83.9361L463.099 94.0111M313.375 94.0111H388.237M313.375 94.0111H238.513M368.863 104.487L388.237 94.0111M368.863 104.487L348.701 115.388M368.863 104.487H445.215M388.237 94.0111H463.099M238.513 94.0111H163.651M238.513 94.0111L260.012 83.9361M463.099 94.0111L445.215 104.487M260.012 83.9361H186.584M348.701 115.388L327.703 126.741M348.701 115.388H426.604M445.215 104.487L426.604 115.388M426.604 115.388L407.221 126.741M248.184 126.741L224.613 138.575M248.184 126.741H327.703M248.184 126.741H168.665M327.703 126.741L305.816 138.575M327.703 126.741H407.221M407.221 126.741L387.018 138.575M224.613 138.575H305.816M224.613 138.575H143.411M282.981 150.921L305.816 138.575M282.981 150.921L259.138 163.812M282.981 150.921H365.941M305.816 138.575H387.018M143.411 138.575H62.2096M143.411 138.575L168.665 126.741M387.018 138.575L365.941 150.921M168.665 126.741H89.1475M259.138 163.812L234.216 177.287M259.138 163.812H343.93M365.941 150.921L343.93 163.812M343.93 163.812L320.926 177.287M147.506 177.287L119.427 191.385M147.506 177.287H234.216M147.506 177.287H60.7975M234.216 177.287L208.142 191.385M234.216 177.287H320.926M320.926 177.287L296.857 191.385M119.427 191.385H208.142M180.832 206.15L208.142 191.385M180.832 206.15L152.198 221.632M180.832 206.15H271.649M208.142 191.385H296.857M296.857 191.385L271.649 206.15M60.7975 177.287H1.73227M152.198 221.632L122.14 237.884M152.198 221.632H245.217M271.649 206.15L245.217 221.632M245.217 221.632L217.472 237.884M26.809 237.884H122.14M26.809 237.884H1.73227M26.809 237.884L1.73227 250.474M122.14 237.884L90.5497 254.964M122.14 237.884H217.472M217.472 237.884L188.311 254.964M57.3076 272.937L90.5497 254.964M57.3076 272.937L22.2795 291.876M57.3076 272.937H157.626M57.3076 272.937H1.73227M90.5497 254.964H188.311M90.5497 254.964H1.73227M188.311 254.964L157.626 272.937M1.45608 250.612L1.73227 250.474M22.2795 291.876H125.292M22.2795 291.876H1.73227M22.2795 291.876L1.73227 302.986M157.626 272.937L125.292 291.876M125.292 291.876L91.1729 311.862M91.1729 311.862L55.1179 332.98M91.1729 311.862H1.73227M16.9554 355.334L55.1179 332.98M16.9554 355.334H1.73227M16.9554 355.334L1.73227 364.25M55.1179 332.98H1.73227M133.747 47.2226L111.519 55.9028M133.747 47.2226H201.953M133.747 47.2226H65.5409M222.212 38.8455L241.776 30.7563M222.212 38.8455L201.953 47.2226M222.212 38.8455H289.226M241.776 30.7563H307.639M241.776 30.7563L260.679 22.9411M195.929 22.9411H260.679M195.929 22.9411L215.279 15.3845M195.929 22.9411H131.178M201.953 47.2226L180.959 55.9028M201.953 47.2226H270.158M289.226 38.8455L307.639 30.7563M289.226 38.8455L270.158 47.2226M307.639 30.7563L325.43 22.9411M260.679 22.9411H325.43M260.679 22.9411L278.956 15.3845M270.158 47.2226L250.399 55.9028M390.182 22.9411L406.307 15.3845M390.182 22.9411H325.43M325.43 22.9411L342.632 15.3845M111.519 55.9028H180.959M111.519 55.9028H42.0788M159.191 64.9028L180.959 55.9028M159.191 64.9028L136.606 74.2408M159.191 64.9028H229.912M180.959 55.9028H250.399M42.0788 55.9028L65.5409 47.2226M42.0788 55.9028H1.73227M250.399 55.9028L229.912 64.9028M65.5409 47.2226H1.73227M136.606 74.2408L113.155 83.9361M136.606 74.2408H208.655M229.912 64.9028L208.655 74.2408M208.655 74.2408L186.584 83.9361M39.7263 83.9361L13.9272 94.0111M39.7263 83.9361H113.155M39.7263 83.9361H1.73227M113.155 83.9361L88.7892 94.0111M113.155 83.9361H186.584M186.584 83.9361L163.651 94.0111M63.4532 104.487L88.7892 94.0111M63.4532 104.487L37.0876 115.388M63.4532 104.487H139.805M63.4532 104.487H1.73227M88.7892 94.0111H13.9272M88.7892 94.0111H163.651M13.9272 94.0111L1.73227 98.7726M13.9272 94.0111H1.73227M163.651 94.0111L139.805 104.487M37.0876 115.388L9.6285 126.741M37.0876 115.388H114.99M37.0876 115.388H1.73227M139.805 104.487L114.99 115.388M114.99 115.388L89.1475 126.741M9.6285 126.741H89.1475M9.6285 126.741L1.73227 130.005M9.6285 126.741H1.73227M89.1475 126.741L62.2096 138.575M34.1061 150.921L62.2096 138.575M34.1061 150.921L4.76046 163.812M34.1061 150.921H1.73227M62.2096 138.575H1.73227M1.30736 138.575H1.73227M4.76046 163.812H1.73227M4.76046 163.812L1.73227 165.142M1 165.464L1.73227 165.142M21.1719 38.8455L44.1878 30.7563M21.1719 38.8455H1.73227M21.1719 38.8455L1.73227 45.677M44.1878 30.7563L66.4276 22.9411M44.1878 30.7563H1.73227M131.178 22.9411L151.604 15.3845M131.178 22.9411H66.4276M66.4276 22.9411L87.928 15.3845M66.4276 22.9411H1.73227M2252.9 15.3845H2316.58M2252.9 15.3845H2189.23M2300.98 8.07541L2304.83 9.88044L2316.58 15.3845M2300.98 8.07541H2363.62M2316.58 15.3845H2380.25M2363.62 8.07541L2367.72 9.88044L2369.79 10.7871L2380.25 15.3845M2380.25 15.3845H2443.93M2443.93 15.3845H2507.61M2189.23 15.3845H2125.55M2507.61 15.3845H2571.28M2571.28 15.3845L2551.52 8.07541M2571.28 15.3845H2634.96M2551.52 8.07541H2614.16M1998.2 15.3845H2061.88M1998.2 15.3845H1934.52M2050.44 8.07541L2053.26 9.88044L2054.68 10.7871L2061.88 15.3845M2050.44 8.07541H2113.07M2061.88 15.3845H2125.55M2113.07 8.07541L2125.55 15.3845M1934.52 15.3845H1870.85M1743.5 15.3845H1807.17M1743.5 15.3845H1679.82M1799.89 8.07541L1800.79 8.97515L1801.69 9.88044L1802.6 10.7871L1807.17 15.3845M1799.89 8.07541H1862.53M1807.17 15.3845H1870.85M1862.53 8.07541L1870.85 15.3845M1679.82 15.3845H1616.14M1488.79 15.3845H1552.47M1488.79 15.3845H1425.12M1549.35 8.07541L1552.47 15.3845M1549.35 8.07541H1611.99M1552.47 15.3845H1616.14M1611.99 8.07541L1612.5 8.97515L1613.01 9.88044L1613.53 10.7871L1616.14 15.3845M1425.12 15.3845H1361.44M1234.09 15.3845H1297.77M1234.09 15.3845H1170.42M1298.81 8.07541L1297.77 15.3845M1298.81 8.07541H1361.44M1297.77 15.3845H1361.44M1361.44 8.07541V15.3845M1170.42 15.3845H1106.74M979.388 15.3845H1043.06M979.388 15.3845H915.713M1048.26 8.07541L1046.98 9.88044L1044.38 13.5336L1043.06 15.3845M1048.26 8.07541H1110.9M1043.06 15.3845H1106.74M1110.9 8.07541L1110.39 8.97515L1109.87 9.88044L1109.36 10.7871L1106.74 15.3845M915.713 15.3845H852.037M724.686 15.3845H788.362M724.686 15.3845H661.009M797.721 8.07541L795.41 9.88044L794.247 10.7871L788.362 15.3845M797.721 8.07541H860.357M788.362 15.3845H852.037M860.357 8.07541L859.331 8.97515L852.037 15.3845M661.009 15.3845H597.334M469.983 15.3845H533.658M469.983 15.3845H406.307M547.177 8.07541L543.839 9.88044L542.159 10.7871L533.658 15.3845M547.177 8.07541H609.813M533.658 15.3845H597.334M609.813 8.07541L608.275 8.97515L597.334 15.3845M406.307 15.3845H342.632M215.279 15.3845H278.956M215.279 15.3845H151.604M296.634 8.07541L278.956 15.3845M296.634 8.07541H359.27M278.956 15.3845H342.632M359.27 8.07541L355.162 9.88044L353.094 10.7871L342.632 15.3845M151.604 15.3845H87.928M46.0914 8.07541L24.2525 15.3845M46.0914 8.07541H108.727M46.0914 8.07541H1.73227M24.2525 15.3845H87.928M24.2525 15.3845L1.73227 22.9226M24.2525 15.3845H1.73227M108.727 8.07541L103.592 9.88044L87.928 15.3845M2614.16 8.07541L2619.29 9.88044L2634.96 15.3845M2634.96 15.3845H2698.63M2698.63 15.3845L2721.15 22.9226M2698.63 15.3845H2721.15M2721.15 364.25V355.334M2721.15 364.25V379.031M2721.15 355.334V332.98M2721.15 379.031V383.448V404.201M2721.15 404.201V430.982M2721.15 191.385V177.287M2721.15 191.385V204.964M2721.15 8.07541V15.3845M2721.15 15.3845V22.9226M2721.15 22.9226L2721.21 22.9411H2721.15M2721.15 22.9226V22.9411M2721.15 22.9411V30.7563M2721.15 30.7563V38.8455M2721.15 38.8455V45.677M2721.15 45.677V47.2226M2721.15 47.2226V55.9028M2721.15 55.9028V64.9028M2721.15 64.9028V70.827M2721.15 70.827V74.2408M2721.15 74.2408V83.9361M2721.15 83.9361V94.0111M2721.15 94.0111V98.7726M2721.15 98.7726V104.487M2721.15 104.487V115.388M2721.15 115.388V126.741M2721.15 126.741V130.005M2721.15 130.005V138.575M2721.15 138.575V150.921M2721.15 150.921V163.812M2721.15 163.812V165.142M2721.15 165.142V177.287M2721.15 206.15V221.632M2721.15 206.15V204.964M2721.15 221.632V237.884M2721.15 237.884V250.474M2721.15 250.474V254.964M2721.15 254.964V272.937M2721.15 272.937V291.876M2721.15 291.876V302.986M2721.15 302.986V311.862M2721.15 311.862V332.98M2721.15 430.982V436.653M2721.15 436.653V459.534M2721.15 459.534V490.04M2721.15 490.04V522.707M2721.15 522.707V523.536M2721.15 523.536V557.774M2721.15 557.774V595.513M2721.15 595.513V629.727M2721.15 629.727V636.246M2721.15 636.246V680.34M2721.15 680.34V728.229M2721.15 728.229V762.466M2721.15 762.466V780.428M2721.15 780.428V837.543M2721.15 837.543V900.305M2721.15 900.305V933.131M2721.15 933.131V969.594M2721.15 969.594V969.842H1.73227V969.594M1.73227 206.15V221.632M1.73227 206.15V204.963M1.73227 204.963V191.385M1.73227 191.385V177.287M1.73227 177.287V165.142M1.73227 165.142V163.812M1.73227 163.812V150.921M1.73227 150.921V138.575M1.73227 138.575V130.005M1.73227 130.005V126.741M1.73227 126.741V115.388M1.73227 115.388V104.487M1.73227 104.487V98.7726M1.73227 98.7726V94.0111M1.73227 94.0111V83.9361M1.73227 83.9361V74.2408M1.73227 74.2408V70.827M1.73227 70.827V64.9028M1.73227 64.9028V55.9028M1.73227 55.9028V47.2226M1.73227 47.2226V45.677M1.73227 45.677V38.8455M1.73227 38.8455V30.7563M1.73227 30.7563V22.9411M1.73227 22.9411H1.67703L1.73227 22.9226M1.73227 22.9411V22.9226M1.73227 22.9226V15.3845M1.73227 15.3845V8.07541M1.73227 969.594V933.131M1.73227 933.131V900.305M1.73227 900.305V837.544M1.73227 837.544V780.428M1.73227 780.428V762.466M1.73227 762.466V728.229M1.73227 728.229V680.34M1.73227 680.34V636.246M1.73227 636.246V629.727M1.73227 629.727V595.513M1.73227 595.513V557.774M1.73227 557.774V523.536M1.73227 523.536V522.707M1.73227 522.707V490.04M1.73227 490.04V459.534M1.73227 459.534V436.653M1.73227 436.653V430.982M1.73227 430.982V404.201M1.73227 404.201V379.031M1.73227 379.031V364.25M1.73227 364.25V355.334M1.73227 355.334V332.98M1.73227 332.98V311.862M1.73227 311.862V302.986M1.73227 302.986V291.876M1.73227 291.876V272.937M1.73227 272.937V254.964M1.73227 254.964V250.474M1.73227 250.474V237.884M1.73227 237.884V221.632" stroke="url(#paint0_linear_174_1690)" stroke-width="1.2" stroke-miterlimit="10" stroke-linecap="round" stroke-linejoin="round"/>
<defs>
<linearGradient id="paint0_linear_174_1690" x1="1361.44" y1="1" x2="1361.44" y2="680.277" gradientUnits="userSpaceOnUse">
<stop stop-color="#CECBCB" stop-opacity="0"/>
<stop offset="1" stop-color="#818181"/>
</linearGradient>
</defs>
</svg>
