<svg xmlns="http://www.w3.org/2000/svg" fill="none" viewBox="0 0 200 200" width="400" height="400" class="coolshapes wheel-6 "><g clip-path="url(#cs_clip_1_wheel-6)"><mask id="cs_mask_1_wheel-6" style="mask-type:alpha" width="200" height="200" x="0" y="0" maskUnits="userSpaceOnUse"><path fill="#fff" d="M75.863 110H0V90h75.853L35.855 50l14.142-14.142L90 75.863V0h20v75.861l40.002-40.004L164.144 50l-39.998 40H200v20h-75.864l40.008 40.01-14.142 14.142L110 124.148V200H90v-75.853l-40.003 40.005-14.142-14.142L75.863 110z"></path></mask><g mask="url(#cs_mask_1_wheel-6)"><path fill="#fff" d="M200 0H0v200h200V0z"></path><path fill="url(#paint0_radial_748_4819)" d="M200 0H0v200h200V0z"></path><path fill="url(#paint1_radial_748_4819)" d="M200 0H0v200h200V0z"></path></g></g><defs><radialGradient id="paint0_radial_748_4819" cx="0" cy="0" r="1" gradientTransform="rotate(116.694 71.023 87.946) scale(199.234)" gradientUnits="userSpaceOnUse"><stop stop-color="#FFF500"></stop><stop offset="1" stop-color="#FF00D6" stop-opacity="0"></stop></radialGradient><radialGradient id="paint1_radial_748_4819" cx="0" cy="0" r="1" gradientTransform="rotate(48.452 -12.085 35.502) scale(223.143)" gradientUnits="userSpaceOnUse"><stop stop-color="#FF00D6"></stop><stop offset="0.461" stop-color="#FF7171" stop-opacity="0.84"></stop><stop offset="1" stop-color="#FFF500" stop-opacity="0"></stop></radialGradient><clipPath id="cs_clip_1_wheel-6"><path fill="#fff" d="M0 0H200V200H0z"></path></clipPath></defs><g style="mix-blend-mode:overlay" mask="url(#cs_mask_1_wheel-6)"><path fill="gray" stroke="transparent" d="M200 0H0v200h200V0z" filter="url(#cs_noise_1_wheel-6)"></path></g><defs><filter id="cs_noise_1_wheel-6" width="100%" height="100%" x="0%" y="0%" filterUnits="objectBoundingBox"><feTurbulence baseFrequency="0.6" numOctaves="5" result="out1" seed="4"></feTurbulence><feComposite in="out1" in2="SourceGraphic" operator="in" result="out2"></feComposite><feBlend in="SourceGraphic" in2="out2" mode="overlay" result="out3"></feBlend></filter></defs></svg>