<svg width="2774" height="1885" viewBox="0 0 2774 1885" fill="none" xmlns="http://www.w3.org/2000/svg">
<path fill-rule="evenodd" clip-rule="evenodd" d="M-2458.15 379.268C-2476.53 391.344 -2486.86 412.45 -2485.05 434.364C-2484.21 444.271 -2480.87 453.937 -2475.38 462.291L-2449.39 501.746C-2455 512.141 -2457.64 524.099 -2456.65 536.167C-2455.7 547.254 -2451.77 557.885 -2445.23 566.99L-2420.37 601.485C-2426.53 612.38 -2429.39 625.018 -2428.33 637.941L-2428.33 637.903C-2427.31 650.213 -2422.75 661.881 -2415.11 671.657L-2391.61 701.715C-2398.16 713.087 -2401.23 726.333 -2400.12 739.73L-2400.16 739.735C-2399.02 753.262 -2393.79 765.924 -2385 776.361L-2363.21 802.196C-2370.03 813.916 -2373.16 827.529 -2372 841.491C-2370.77 856.317 -2364.84 869.968 -2354.85 881.023L-2334.97 903.002C-2341.92 915.064 -2345.12 929.039 -2343.94 943.299C-2342.62 959.153 -2335.82 974.195 -2324.74 985.69L-2306.99 1004.07C-2313.97 1016.41 -2317.18 1030.67 -2315.97 1045.08C-2314.57 1062.19 -2306.98 1078.25 -2294.63 1090.32L-2279.17 1105.39C-2286.06 1117.94 -2289.22 1132.39 -2288.03 1146.9C-2286.5 1165.35 -2278.13 1182.39 -2264.49 1194.94L-2251.54 1206.86C-2258.33 1219.56 -2261.34 1233.95 -2260.13 1248.69L-2260.14 1248.65C-2258.51 1268.43 -2249.36 1286.53 -2234.38 1299.57L-2224.05 1308.58C-2230.62 1321.39 -2233.51 1335.8 -2232.31 1350.49C-2230.55 1371.6 -2220.59 1390.67 -2204.27 1404.2L-2196.68 1410.49C-2202.97 1423.37 -2205.71 1437.74 -2204.53 1452.29C-2202.68 1474.43 -2191.63 1495.06 -2174.17 1508.83L-2169.41 1512.58C-2175.39 1525.47 -2177.98 1539.75 -2176.78 1554.1C-2174.84 1577.62 -2162.89 1599.25 -2144.07 1613.42L-2142.19 1614.83C-2147.83 1627.69 -2150.24 1641.82 -2149.07 1655.95L-2149.03 1655.95C-2147.03 1680.35 -2134.64 1702.62 -2115.04 1717.25C-2120.29 1730 -2122.51 1743.91 -2121.36 1757.77C-2119.33 1782.3 -2107.23 1804.59 -2087.93 1819.61C-2092.88 1832.23 -2094.88 1845.78 -2093.73 1859.59C-2091.66 1884.3 -2079.82 1906.62 -2060.8 1922.05C-2065.4 1934.55 -2067.22 1947.87 -2066.09 1961.41L-2066.14 1961.38C-2064.06 1986.29 -2052.42 2008.68 -2033.68 2024.47C-2037.98 2036.83 -2039.65 2049.95 -2038.54 2063.25L-2038.5 2063.24C-2036.48 2087.9 -2024.79 2110.74 -2006.48 2126.87C-2010.48 2139.11 -2012.01 2152.04 -2010.94 2165.07L-2010.98 2165.08C-2008.9 2189.88 -1997.42 2212.82 -1979.32 2229.31C-1983.06 2241.4 -1984.45 2254.11 -1983.39 2266.91C-1981.33 2291.91 -1970.02 2314.89 -1952.14 2331.69C-1955.64 2343.65 -1956.92 2356.18 -1955.87 2368.74L-1955.91 2368.75C-1953.82 2393.92 -1942.65 2417.03 -1924.96 2434.15C-1928.21 2445.95 -1929.38 2458.26 -1928.35 2470.58C-1926.25 2495.93 -1915.27 2519.14 -1897.79 2536.56C-1900.82 2548.22 -1901.89 2560.34 -1900.9 2572.47L-1900.91 2572.43C-1897.81 2609.59 -1876.24 2642.05 -1843.21 2659.31L1081.19 4187.46C1106.81 4200.85 1136.14 4203.52 1163.78 4194.89C1191.42 4186.3 1214.02 4167.48 1227.45 4141.9L2760.89 1224.54C2770.44 1206.34 2774.59 1185.94 2772.93 1165.55C2769.88 1128.43 2748.3 1095.93 2715.27 1078.67L-209.129 -449.483C-223.879 -457.192 -239.862 -461.334 -256.045 -461.821C-266.732 -465.71 -277.885 -467.821 -289.137 -468.118C-299.939 -472.082 -311.117 -474.125 -322.23 -474.371C-332.9 -478.376 -344.093 -480.511 -355.403 -480.723C-366.009 -484.755 -377.159 -486.892 -388.437 -487.066C-399.124 -491.177 -410.268 -493.243 -421.348 -493.387C-432.012 -497.603 -443.316 -499.787 -454.77 -499.844C-465.202 -504.001 -476.282 -506.151 -487.53 -506.198C-498.084 -510.507 -509.347 -512.701 -520.791 -512.668C-531.215 -516.974 -542.379 -519.153 -553.747 -519.084C-564.346 -523.547 -575.6 -525.674 -586.782 -525.564C-597.339 -530.103 -608.6 -532.25 -619.788 -532.096C-630.145 -536.659 -641.399 -538.922 -652.923 -538.685C-663.368 -543.346 -674.612 -545.518 -685.782 -545.26C-696.034 -549.996 -707.312 -552.325 -718.921 -551.975C-728.595 -556.512 -739.249 -558.837 -750.253 -558.702C-750.835 -558.695 -751.416 -558.681 -751.996 -558.661C-762.323 -563.584 -773.643 -565.835 -784.883 -565.391C-795.187 -570.44 -806.561 -572.74 -817.857 -572.231C-828.107 -577.382 -839.506 -579.722 -850.831 -579.146C-861.005 -584.379 -872.404 -586.756 -883.734 -586.117C-893.836 -591.447 -905.243 -593.875 -916.59 -593.182C-935.457 -603.416 -959.241 -603.237 -978.409 -590.676L-2458.15 379.268ZM-932.334 -590.14C-945.958 -593.705 -960.994 -591.722 -973.676 -583.421L-2453.34 386.514C-2469.09 396.831 -2477.93 414.898 -2476.36 433.646C-2475.67 442.109 -2472.81 450.372 -2468.09 457.515L-2444.23 493.732C-2440.56 488.888 -2436.16 484.558 -2431.11 480.936L-948.814 -581.723C-943.641 -585.431 -938.083 -588.226 -932.334 -590.14ZM-2439.17 501.419C-2435.7 496.291 -2431.28 491.727 -2426.02 487.954L-943.806 -574.733C-936.117 -580.232 -927.445 -583.393 -918.652 -584.356C-915.84 -582.653 -913.174 -580.667 -910.701 -578.409C-913.642 -576.797 -916.492 -574.931 -919.222 -572.808L-2391.91 573.164L-2439.17 501.419ZM-2443.91 510.068C-2447.27 517.888 -2448.72 526.55 -2448 535.454C-2447.21 544.982 -2443.81 554.141 -2438.2 561.978L-2415.26 593.811C-2412.05 589.676 -2408.29 585.904 -2404.04 582.599L-2398.81 578.528L-2443.91 510.068ZM-2394.04 585.762L-2398.71 589.394C-2403.09 592.796 -2406.86 596.775 -2409.96 601.175L-2360.22 670.207L-2346.18 658.423L-2394.04 585.762ZM-2341.41 665.667L-2355.17 677.216L-2305.6 746.017L-2294.85 736.343L-2341.41 665.667ZM-2288.31 730.458L-2334.69 660.036L-891.034 -551.399L-880.966 -536.114L-2288.31 730.458ZM-2290.04 743.648L-2300.51 753.075L-2252.4 819.856L-2244.7 812.466L-2290.04 743.648ZM-2238.33 806.341L-2283.5 737.763L-876.142 -528.792L-865.376 -512.447L-2238.33 806.341ZM-2239.86 819.818L-2247.28 826.95L-2200.48 891.906L-2195.63 886.955L-2239.86 819.818ZM-2189.41 880.603L-2233.48 813.694L-860.533 -505.095L-849.108 -487.749L-2189.41 880.603ZM-2190.77 894.342L-2195.35 899.025L-2149.78 962.283L-2147.58 959.905L-2190.77 894.342ZM-2141.5 953.338L-2184.55 887.991L-844.242 -480.362L-832.236 -462.134L-2141.5 953.338ZM-2142.68 967.346L-2144.62 969.444L-2105.85 1023.25L-2142.68 967.346ZM-2094.51 1024.68L-2136.6 960.779L-827.322 -454.675L-814.777 -435.629L-2094.51 1024.68ZM-2048.4 1094.69L-2089.59 1032.15L-809.866 -428.174L-796.786 -408.316L-2048.4 1094.69ZM-2003.11 1163.45L-2043.44 1102.22L-791.802 -400.749L-778.317 -380.276L-2003.11 1163.45ZM-1984.71 1191.39L-1998.08 1171.08L-773.281 -372.631L-759.354 -351.487L-1957.27 1229.47L-1984.71 1191.39ZM-1846.27 1401.56L-1856.87 1385.46L-1839.89 1407.18L-1830.27 1420.53L-1846.27 1401.56ZM-1852.92 1407.21L-1834.05 1435.85L-1837.1 1440.41L-1880.85 1392.04L-1874.01 1382.2L-1852.92 1407.21ZM-1914.99 1312.98L-1893.63 1345.41L-1917.76 1316.79L-1914.99 1312.98ZM-1922.64 1301.37L-1920.09 1305.23L-1923.52 1309.96L-1967.7 1257.59L-1962.38 1250.56L-1922.64 1301.37ZM-1992.18 1195.8L-1981.34 1212.26L-2005.87 1180.9L-2004.32 1178.95L-1992.18 1195.8ZM-1828.89 1443.69L-1814.83 1465.02L-1831.12 1447.02L-1828.89 1443.69ZM-1786.81 1491.83L-1805.58 1463.33L-1784.53 1488.29L-1786.81 1491.83ZM-1776.71 1507.17L-1781.6 1499.74L-1778.69 1495.22L-1763.4 1513.34L-1739.86 1546.02L-1740.55 1547.14L-1776.71 1507.17ZM-1783.44 1512.67L-1787.23 1508.49L-1795.49 1521.34L-1752.29 1566.08L-1750.34 1562.93L-1783.44 1512.67ZM-1745.09 1570.9L-1746.08 1572.51L-1739.61 1579.22L-1745.09 1570.9ZM-1707.02 1612.97L-1740.06 1562.8L-1739.27 1561.51L-1698.25 1606.85L-1703.86 1616.24L-1707.02 1612.97ZM-1713.72 1618.51L-1709.27 1625.28L-1718.07 1639.99L-1761.61 1597.56L-1750.8 1580.12L-1713.72 1618.51ZM-1703.96 1633.34L-1668.65 1686.93L-1669.1 1687.7L-1711.67 1646.23L-1703.96 1633.34ZM-1663.82 1678.56L-1681.14 1652.26L-1660.79 1673.33L-1663.82 1678.56ZM-1637.54 1718.45L-1658.48 1686.66L-1654.53 1679.82L-1613.94 1721.85L-1621.04 1734.53L-1637.54 1718.45ZM-1644.19 1724.07L-1628.5 1747.88L-1636.07 1761.41L-1678.91 1721.99L-1667.16 1701.68L-1644.19 1724.07ZM-1623.14 1756.02L-1594.24 1799.89L-1629.52 1767.43L-1623.14 1756.02ZM-1584.12 1799.56L-1615.31 1752.21L-1578.1 1788.46L-1584.12 1799.56ZM-1567.99 1824.05L-1578.72 1807.75L-1571.66 1794.73L-1534.77 1830.68L-1531.99 1834.54L-1540.01 1849.79L-1567.99 1824.05ZM-1574.61 1829.69L-1585.28 1819.87L-1597.8 1842.96L-1555.7 1879.65L-1549.49 1867.83L-1574.61 1829.69ZM-1544.9 1859.1L-1548.37 1853.84L-1544.17 1857.7L-1544.9 1859.1ZM-1544.03 1876.11L-1548.98 1885.52L-1522.81 1908.32L-1544.03 1876.11ZM-1498.54 1929.48L-1539.44 1867.38L-1537.55 1863.79L-1458.53 1936.49L-1444.94 1955.36C-1454.16 1956.86 -1463.59 1955.82 -1472.19 1952.45L-1498.54 1929.48ZM-1505.03 1935.31L-1503.49 1937.66C-1496.75 1947.91 -1487.39 1955.41 -1476.86 1959.87L-1382.32 2042.28L-1380.43 2044.9C-1374.09 2053.7 -1365.84 2060.33 -1356.65 2064.65L-1259.44 2149.39L-1257.29 2152.13C-1251.49 2159.56 -1244.34 2165.34 -1236.46 2169.41L-1136.72 2256.36L-1134.25 2259.29C-1129.06 2265.43 -1122.98 2270.39 -1116.34 2274.12L-1013.66 2363.62L-1011.08 2366.47C-1006.66 2371.37 -1001.67 2375.46 -996.304 2378.75L-891.393 2470.19L-888.068 2473.64C-884.38 2477.45 -880.353 2480.75 -876.079 2483.54L-768.188 2577.59L-764.906 2580.78C-762.192 2583.42 -759.32 2585.81 -756.32 2587.93L-658.207 2673.45L-1567.34 1920.46L-1553.12 1893.4L-1505.03 1935.31ZM-1458.43 1964.45C-1452.1 1964.99 -1445.68 1964.55 -1439.39 1963.06L-1404.57 2011.39L-1458.43 1964.45ZM-1423.62 1956.87L-1375.03 2001.58L-1414.54 1951.07L-1420.28 1954.83C-1421.38 1955.55 -1422.49 1956.23 -1423.62 1956.87ZM-1405.13 1944.9L-1373.02 1976.19L-1401.45 1942.49L-1405.13 1944.9ZM-1407.23 1935.94L-1411.47 1938.72L-1418.68 1931.7L-1450.02 1891.63L-1407.23 1935.94ZM-1389.82 1934.86L-1295.06 2039.62L-1289.71 2045.16L183.065 989.305C198.384 978.31 206.572 960.596 205.035 941.805L204.997 941.809C204.212 932.281 200.816 923.123 195.205 915.323L-518.385 -75.1386L-539.91 -34.1882L76.6961 901.901C82.1851 910.255 85.5299 919.921 86.3585 929.79C88.1765 951.704 77.8806 972.844 59.4218 984.891L-1389.82 1934.86ZM-544.544 -25.3711L69.3646 906.644C74.0837 913.786 76.9801 922.045 77.6688 930.508L77.7116 930.541C79.2441 949.294 70.4069 967.361 54.6602 977.716L-1395.69 1928.37L-1488.22 1826.09L-1506.4 1804.52L-544.544 -25.3711ZM-545.375 -42.4855L-524.067 -83.0248L-541.135 -106.715L-562.146 -67.9462L-545.375 -42.4855ZM-566.86 -59.2494L-550.01 -33.6683L-1512.45 1797.36L-1549.36 1753.59L-566.86 -59.2494ZM-567.545 -76.1422L-546.751 -114.51L-563.609 -137.91L-584.102 -101.278L-567.545 -76.1422ZM-588.897 -92.7064L-572.258 -67.4455L-1555.35 1746.49L-1592.9 1701.97L-588.897 -92.7064ZM-589.466 -109.422L-569.193 -145.66L-585.818 -168.736L-605.786 -134.197L-589.466 -109.422ZM-610.667 -125.756L-594.261 -100.85L-1598.86 1694.9L-1637.06 1649.61L-610.667 -125.756ZM-611.137 -142.321L-591.393 -176.474L-607.787 -199.229L-627.222 -166.739L-611.137 -142.321ZM-632.19 -158.432L-616.018 -133.88L-1643 1642.56L-1667.81 1613.16L-1681.45 1595.71L-632.19 -158.432ZM-632.512 -174.771L-613.303 -206.885L-629.447 -229.293L-648.342 -198.803L-632.512 -174.771ZM-653.403 -190.637L-637.481 -166.465L-1687.19 1588.37L-1725.53 1539.35L-653.403 -190.637ZM-653.597 -206.781L-634.93 -236.903L-650.766 -258.884L-669.118 -230.344L-653.597 -206.781ZM-674.275 -222.324L-658.658 -198.615L-1731.22 1532.08L-1770.28 1482.13L-674.275 -222.324ZM-674.354 -238.292L-656.234 -266.473L-671.796 -288.073L-689.596 -261.432L-674.354 -238.292ZM-694.853 -253.564L-679.51 -230.272L-1775.93 1474.91L-1815.74 1424.01L-694.853 -253.564ZM-694.771 -269.288L-677.204 -295.579L-692.469 -316.768L-709.713 -291.973L-694.771 -269.288ZM-715.074 -284.264L-700.027 -261.42L-1821.34 1416.84L-1833.08 1401.83L-1860.85 1363.29L-715.074 -284.264ZM-714.828 -299.737L-697.819 -324.194L-712.732 -344.893L-729.417 -321.886L-714.828 -299.737ZM-734.887 -314.343L-720.189 -292.028L-1866.21 1355.84L-1906.02 1300.6L-734.887 -314.343ZM-734.504 -329.607L-718.058 -352.285L-732.603 -372.473L-748.724 -351.196L-734.504 -329.607ZM-754.308 -343.827L-739.973 -322.065L-1911.36 1293.19L-1951.97 1236.82L-754.308 -343.827ZM-753.77 -358.856L-737.891 -379.813L-752.021 -399.426L-767.578 -379.819L-753.77 -358.856ZM-772.614 -387.464L-757.305 -406.76L-770.984 -425.747L-785.974 -407.747L-772.614 -387.464ZM-790.958 -415.314L-776.219 -433.013L-789.487 -451.429L-803.908 -434.973L-790.958 -415.314ZM-808.819 -442.427L-794.65 -458.595L-807.368 -476.247L-821.227 -461.265L-808.819 -442.427ZM-826.14 -468.724L-812.541 -483.427L-824.703 -500.309L-838.002 -486.732L-826.14 -468.724ZM-842.868 -494.119L-829.833 -507.428L-841.396 -523.478L-854.142 -511.234L-842.868 -494.119ZM-858.985 -518.587L-846.507 -530.572L-857.386 -545.672L-869.591 -534.688L-858.985 -518.587ZM-874.414 -542.01L-862.483 -552.747L-869.597 -562.622C-870.243 -563.517 -870.911 -564.387 -871.601 -565.23C-875.973 -563.179 -880.151 -560.535 -884.017 -557.288L-884.313 -557.039L-874.414 -542.01ZM-889.112 -564.323C-885.583 -567.225 -881.836 -569.697 -877.937 -571.745C-880.37 -573.849 -882.967 -575.705 -885.689 -577.306C-889.264 -576.946 -892.818 -576.237 -896.298 -575.17C-895.912 -574.625 -895.534 -574.072 -895.164 -573.511L-889.112 -564.323ZM-904.657 -571.831C-907.863 -570.232 -910.958 -568.294 -913.893 -566.013L-2387.15 580.398L-2339.47 652.791L-895.834 -558.687L-902.453 -568.735C-903.155 -569.802 -903.89 -570.834 -904.657 -571.831ZM-902.205 -582.282C-901.433 -582.567 -900.658 -582.837 -899.878 -583.091C-901.194 -583.417 -902.522 -583.694 -903.858 -583.92C-903.298 -583.386 -902.747 -582.84 -902.205 -582.282ZM-1419.88 1944.23L-1425.04 1947.62C-1426.78 1948.75 -1428.55 1949.77 -1430.37 1950.67L-1451.95 1930.81L-1498.94 1865.59L-1425.18 1937.46L-1419.88 1944.23ZM-2419.71 637.233C-2420.53 627.482 -2418.73 617.901 -2414.71 609.349L-2366.85 675.772L-2376.97 684.262C-2380.53 687.245 -2383.73 690.571 -2386.53 694.168L-2408.28 666.36C-2414.89 657.919 -2418.83 647.866 -2419.71 637.233ZM-2371.4 690.834L-2361.8 682.782L-2312.05 751.828L-2329.3 767.347L-2381.01 701.221C-2378.28 697.41 -2375.06 693.913 -2371.4 690.834ZM-2323.96 774.175L-2306.97 758.887L-2258.69 825.899L-2272.86 839.511L-2323.96 774.175ZM-2267.5 846.366L-2253.58 832.994L-2206.62 898.17L-2217.94 909.731L-2267.5 846.366ZM-2212.57 916.6L-2201.49 905.289L-2155.76 968.756L-2164.44 978.138L-2212.57 916.6ZM-2159.04 985.041L-2150.6 975.917L-2106.02 1037.8L-2112.23 1044.9L-2159.04 985.041ZM-2106.82 1051.82L-2100.84 1044.99L-2057.32 1105.4L-2061.23 1110.1L-2106.82 1051.82ZM-2055.8 1117.06L-2052.11 1112.63L-2009.6 1171.63L-2011.37 1173.87L-2055.8 1117.06ZM-1686.87 1604.77L-1680.77 1613.23L-1665.84 1629.73L-1673.55 1619.87L-1686.63 1604.37L-1686.87 1604.77ZM-1655.16 1663.58L-1687.35 1618.9L-1692.15 1613.6L-1697.6 1622.72L-1656.28 1665.52L-1655.16 1663.58ZM-1733.18 1555.29L-1734.38 1553.63L-1734.5 1553.83L-1733.18 1555.29ZM-1646.36 1675.79L-1649.6 1671.3L-1650.01 1672.01L-1646.36 1675.79ZM-1634.93 1676.84L-1608.94 1712.91L-1606.41 1708.38L-1634.93 1676.84ZM-1614.62 1740.79L-1608.02 1729L-1572.56 1778.23L-1573.81 1780.54L-1614.62 1740.79ZM-1568.86 1768.55L-1567.98 1769.77L-1567.87 1769.57L-1568.86 1768.55ZM-1567.37 1786.82L-1566.94 1786.02L-1564 1790.1L-1567.37 1786.82ZM-1562.36 1777.57L-1528.18 1825.01L-1527.39 1825.78L-1522.53 1816.53L-1561.56 1776.1L-1562.36 1777.57ZM-1483.62 1901.67L-1526.32 1842.41L-1533.39 1855.87L-1483.62 1901.67ZM-1426.86 1965.64L-1375.86 2036.42L-1351.88 2057.32C-1344.34 2060.66 -1336.11 2062.21 -1327.88 2061.87L-1342.29 2043.45L-1426.86 1965.64ZM-1321.55 2069.96C-1326.74 2070.68 -1331.98 2070.74 -1337.14 2070.16L-1287.67 2113.29L-1321.55 2069.96ZM-1270.44 2097.81L-1305.59 2065.47C-1303.71 2064.66 -1301.85 2063.74 -1300.03 2062.72L-1270.44 2097.81ZM-1178.8 2160.02L-1283.64 2051.45L188.115 996.327C205.62 983.746 215.414 962.593 213.649 941.097C212.742 930.005 208.812 919.374 202.266 910.268L-513.876 -83.7156L-495.031 -119.568L321.036 923.927C327.653 932.368 331.591 942.459 332.473 953.054L332.468 953.016C334.014 971.575 326.191 989.436 311.503 1000.85L-1173.32 2156.26C-1175.09 2157.64 -1176.92 2158.89 -1178.8 2160.02ZM-500.908 -127.083L-519.558 -91.6019L-536.546 -115.181L-518.148 -149.128L-500.908 -127.083ZM-523.961 -156.56L-542.163 -122.976L-558.938 -146.26L-540.992 -178.338L-523.961 -156.56ZM-546.775 -185.732L-564.522 -154.01L-581.061 -176.965L-563.574 -207.212L-546.775 -185.732ZM-569.352 -214.601L-586.636 -184.704L-602.94 -207.333L-585.92 -235.787L-569.352 -214.601ZM-591.639 -243.1L-608.455 -214.988L-624.506 -237.266L-607.959 -263.967L-591.639 -243.1ZM-613.649 -271.242L-629.989 -244.876L-645.727 -266.721L-629.657 -291.712L-613.649 -271.242ZM-635.336 -298.973L-651.195 -274.309L-666.655 -295.767L-651.07 -319.092L-635.336 -298.973ZM-656.691 -326.28L-672.063 -303.274L-687.222 -324.314L-672.127 -346.019L-656.691 -326.28ZM-677.692 -353.134L-692.572 -331.739L-707.373 -352.283L-692.772 -372.417L-677.692 -353.134ZM-698.317 -379.506L-712.699 -359.675L-727.127 -379.701L-713.024 -398.313L-698.317 -379.506ZM-718.534 -405.358L-732.414 -387.04L-746.422 -406.483L-732.821 -423.626L-718.534 -405.358ZM-738.332 -430.674L-751.706 -413.817L-765.257 -432.624L-752.158 -448.353L-738.332 -430.674ZM-757.625 -455.343L-770.492 -439.891L-783.625 -458.119L-771.033 -472.488L-757.625 -455.343ZM-776.429 -479.387L-788.788 -465.285L-801.363 -482.739L-789.272 -495.81L-776.429 -479.387ZM-794.685 -502.731L-806.536 -489.919L-818.549 -506.592L-806.958 -518.425L-794.685 -502.731ZM-812.331 -525.295L-823.678 -513.711L-835.083 -529.541L-824.38 -539.822C-824.249 -539.948 -824.117 -540.073 -823.985 -540.197L-812.331 -525.295ZM-830.372 -546.071L-840.195 -536.636L-850.81 -551.37C-846.959 -554.352 -842.833 -556.786 -838.533 -558.68C-837.921 -557.975 -837.323 -557.251 -836.741 -556.508L-829.339 -547.043C-829.686 -546.723 -830.03 -546.399 -830.372 -546.071ZM-845.161 -565.126C-848.885 -563.256 -852.476 -561.017 -855.88 -558.407L-862.532 -567.639C-862.718 -567.899 -862.907 -568.156 -863.097 -568.412C-859.702 -569.38 -856.24 -570.025 -852.759 -570.35C-850.108 -568.84 -847.564 -567.097 -845.161 -565.126ZM-867.482 -576.12C-868.079 -575.929 -868.675 -575.729 -869.268 -575.52C-869.689 -575.936 -870.115 -576.345 -870.546 -576.747C-869.519 -576.566 -868.497 -576.357 -867.482 -576.12ZM-1312.66 2058.96C-1310.31 2058.14 -1307.99 2057.14 -1305.73 2055.97L-1315.81 2044.02L-1378.95 1982.5L-1335.8 2037.68L-1312.66 2058.96ZM-2385.78 709.168C-2390.29 718.295 -2392.33 728.592 -2391.47 738.979C-2390.49 750.715 -2385.94 761.691 -2378.32 770.738L-2358.12 794.683C-2355.68 791.551 -2352.93 788.606 -2349.9 785.888L-2335.74 773.147L-2385.78 709.168ZM-2330.4 779.976L-2344.12 792.317C-2347.23 795.116 -2349.99 798.186 -2352.39 801.475L-2299.07 864.692L-2279.13 845.535L-2330.4 779.976ZM-2273.77 852.391L-2293.48 871.324L-2241.13 933.399L-2224.05 915.966L-2273.77 852.391ZM-2218.68 922.836L-2235.53 940.038L-2184.82 1000.16L-2170.39 984.573L-2218.68 922.836ZM-2165 991.476L-2179.2 1006.83L-2129.99 1065.16L-2118.04 1051.52L-2165 991.476ZM-2112.62 1058.44L-2124.36 1071.84L-2076.56 1128.51L-2066.9 1116.91L-2112.62 1058.44ZM-2061.46 1123.86L-2070.92 1135.21L-2024.43 1190.33L-2016.9 1180.84L-2061.46 1123.86ZM-2011.4 1187.87L-2018.72 1197.09L-1973.43 1250.79L-1967.9 1243.5L-2011.4 1187.87ZM-1501.45 1825.87L-1509.92 1815.03L-1495.46 1831.02L-1488.46 1839.32L-1501.45 1825.87ZM-1591.11 1725.29L-1563.2 1760.97L-1563.53 1761.57L-1603.24 1720.45L-1600.28 1715.15L-1591.11 1725.29ZM-1507.91 1831.68L-1464.91 1886.66L-1520.9 1832.1L-1516.17 1823.11L-1507.91 1831.68ZM-1253.09 2143.42L-1303.05 2079.55L-1226.22 2150.24L-1211.51 2167.68C-1218.47 2167.12 -1225.32 2165.25 -1231.65 2162.12L-1253.09 2143.42ZM-1215.79 2175.94C-1211.92 2176.47 -1208.01 2176.65 -1204.1 2176.47L-1173.31 2212.97L-1215.79 2175.94ZM-1188.02 2173.64L-1173.1 2187.37L-1186.1 2173C-1186.45 2173.12 -1186.8 2173.24 -1187.16 2173.36C-1187.45 2173.46 -1187.73 2173.55 -1188.02 2173.64ZM-1172.62 2166.42L-1090.56 2251.41L-1069.45 2271.97C-1061.59 2269.9 -1054.06 2266.11 -1047.43 2260.55L439.946 1012.43C454.041 1000.59 461.542 982.62 460.025 964.288L460.03 964.326C459.079 952.585 454.528 941.609 446.867 932.529L-474.091 -159.406L-490.618 -127.964L327.874 918.63C335.507 928.406 340.106 940.069 341.129 952.379C342.885 973.8 333.806 994.516 316.842 1007.72L-1167.98 2163.13C-1169.49 2164.31 -1171.04 2165.4 -1172.62 2166.42ZM-496.495 -135.479L-480.145 -166.585L-497.521 -187.187L-513.654 -157.42L-496.495 -135.479ZM-519.467 -164.853L-503.512 -194.29L-520.68 -214.646L-536.413 -186.522L-519.467 -164.853ZM-542.196 -193.917L-526.644 -221.717L-543.58 -241.796L-558.907 -215.285L-542.196 -193.917ZM-564.685 -222.673L-549.542 -248.866L-566.249 -268.674L-581.162 -243.742L-564.685 -222.673ZM-586.881 -251.055L-572.154 -275.675L-588.61 -295.187L-603.104 -271.799L-586.881 -251.055ZM-608.794 -279.075L-594.49 -302.158L-610.633 -321.298L-624.703 -299.417L-608.794 -279.075ZM-630.382 -306.678L-616.505 -328.26L-632.373 -347.074L-646.011 -326.664L-630.382 -306.678ZM-651.632 -333.852L-638.19 -353.971L-653.759 -372.431L-666.959 -353.45L-651.632 -333.852ZM-672.524 -360.566L-659.521 -379.262L-674.731 -397.296L-687.49 -379.702L-672.524 -360.566ZM-693.034 -386.791L-680.476 -404.107L-695.308 -421.694L-707.621 -405.444L-693.034 -386.791ZM-713.131 -412.489L-701.023 -428.469L-715.428 -445.548L-727.291 -430.595L-713.131 -412.489ZM-732.803 -437.643L-721.149 -452.331L-735.085 -468.855L-746.496 -455.152L-732.803 -437.643ZM-751.962 -462.142L-740.765 -475.589L-754.277 -491.609L-765.231 -479.109L-751.962 -462.142ZM-770.627 -486.008L-759.888 -498.262L-772.821 -513.596L-783.323 -502.242L-770.627 -486.008ZM-788.735 -509.163L-778.455 -520.277L-790.663 -534.751C-791.987 -533.605 -793.27 -532.4 -794.509 -531.135L-800.853 -524.658L-788.735 -509.163ZM-806.226 -531.528L-800.705 -537.165C-799.266 -538.634 -797.775 -540.032 -796.237 -541.36L-803.89 -550.433C-804.395 -551.033 -804.911 -551.62 -805.436 -552.194C-809.562 -550.493 -813.541 -548.32 -817.289 -545.674L-806.226 -531.528ZM-822.63 -552.503C-819.346 -554.851 -815.904 -556.879 -812.347 -558.587C-814.692 -560.419 -817.157 -562.045 -819.714 -563.462C-823.119 -563.175 -826.507 -562.595 -829.836 -561.718L-822.63 -552.503ZM-836.273 -568.819C-835.843 -568.963 -835.411 -569.102 -834.979 -569.236C-835.717 -569.4 -836.459 -569.549 -837.202 -569.683C-836.89 -569.399 -836.58 -569.111 -836.273 -568.819ZM-1192.52 2165.9C-1193.54 2166.18 -1194.58 2166.44 -1195.61 2166.66L-1219.55 2144.63L-1251.84 2106.34L-1205.92 2151.09L-1192.52 2165.9ZM-2363.35 840.778C-2364.26 829.69 -2362.09 818.867 -2357.21 809.307L-2305.38 870.753L-2322.83 887.512C-2325.44 890.023 -2327.83 892.705 -2329.99 895.532L-2348.39 875.197C-2357.12 865.56 -2362.29 853.661 -2363.35 840.778ZM-2316.84 893.761L-2299.79 877.385L-2247.26 939.664L-2269.52 962.385L-2324.07 902.078C-2321.94 899.123 -2319.52 896.338 -2316.84 893.761ZM-2263.71 968.808L-2241.66 946.303L-2190.79 1006.62L-2210.36 1027.78L-2263.71 968.808ZM-2204.53 1034.22L-2185.17 1013.28L-2135.81 1071.8L-2152.9 1091.3L-2204.53 1034.22ZM-2147.07 1097.75L-2130.18 1078.48L-2082.24 1135.32L-2097.02 1153.08L-2147.07 1097.75ZM-2091.17 1159.54L-2076.59 1142.02L-2029.96 1197.3L-2042.6 1213.23L-2091.17 1159.54ZM-2036.7 1219.76L-2024.25 1204.07L-1978.83 1257.92L-1989.47 1271.96L-2036.7 1219.76ZM-1983.55 1278.51L-1973.1 1264.72L-1928.8 1317.24L-1937.57 1329.34L-1983.55 1278.51ZM-1931.63 1335.91L-1923.04 1324.07L-1879.78 1375.36L-1886.81 1385.46L-1931.63 1335.91ZM-1314.96 2031.5L-1309.04 2038.53L-1298.11 2049.18L-1301.23 2045.73L-1314.96 2031.5ZM-1175.33 2197.06L-1130.28 2250.48L-1111.49 2266.85C-1106.6 2269.53 -1101.38 2271.45 -1096 2272.59L-1109.72 2257.43L-1175.33 2197.06ZM-1087.08 2282.46C-1089.54 2282.35 -1092 2282.1 -1094.44 2281.71L-1062.81 2309.29L-1087.08 2282.46ZM-958.63 2379.96L-1062.38 2278.86C-1055.09 2276.32 -1048.14 2272.45 -1041.89 2267.21L445.484 1019.05C461.741 1005.43 470.394 984.693 468.639 963.58C467.538 950.048 462.273 937.391 453.477 926.954L-469.755 -167.654L-455.253 -195.244L572.736 941.129C581.426 950.732 586.599 962.669 587.656 975.552L587.652 975.514C589.183 993.959 582.184 1011.64 568.427 1024.01L-921.509 2364.89C-932.145 2374.45 -945.339 2379.44 -958.63 2379.96ZM-461.469 -202.116L-475.81 -174.833L-493.104 -195.338L-478.955 -221.445L-461.469 -202.116ZM-485.109 -228.248L-499.095 -202.441L-516.178 -222.694L-502.386 -247.347L-485.109 -228.248ZM-508.515 -254.122L-522.142 -229.765L-538.988 -249.739L-525.561 -272.965L-508.515 -254.122ZM-531.692 -279.743L-544.951 -256.809L-561.564 -276.505L-548.508 -298.332L-531.692 -279.743ZM-554.583 -305.047L-567.469 -283.506L-583.829 -302.903L-571.15 -323.361L-554.583 -305.047ZM-577.203 -330.052L-589.708 -309.874L-605.749 -328.893L-593.453 -348.015L-577.203 -330.052ZM-599.502 -354.702L-611.621 -335.855L-627.383 -354.543L-615.477 -372.362L-599.502 -354.702ZM-621.474 -378.99L-633.2 -361.439L-648.658 -379.766L-637.148 -396.317L-621.474 -378.99ZM-643.091 -402.887L-654.42 -386.598L-669.512 -404.492L-658.402 -419.812L-643.091 -402.887ZM-664.333 -426.368L-675.257 -411.303L-689.967 -428.743L-679.262 -442.871L-664.333 -426.368ZM-685.165 -449.397L-695.681 -435.519L-709.957 -452.444L-699.661 -465.42L-685.165 -449.397ZM-705.576 -471.96L-715.678 -459.227L-729.478 -475.588L-719.594 -487.456L-705.576 -471.96ZM-725.472 -493.953L-735.158 -482.323L-748.525 -498.172L-739.06 -508.974L-725.472 -493.953ZM-744.871 -515.398L-754.137 -504.825L-766.917 -519.978L-764.672 -522.406C-762.388 -524.877 -759.944 -527.146 -757.362 -529.205L-744.871 -515.398ZM-771.076 -528.255L-772.552 -526.659L-783.757 -539.944C-780.166 -542.276 -776.36 -544.224 -772.388 -545.768C-771.931 -545.295 -771.479 -544.812 -771.034 -544.319L-763.176 -535.632C-765.959 -533.385 -768.599 -530.923 -771.076 -528.255ZM-779.596 -552.103C-782.984 -550.534 -786.252 -548.696 -789.371 -546.6L-796.53 -555.087C-793.297 -555.868 -790.014 -556.383 -786.716 -556.632C-784.257 -555.308 -781.876 -553.798 -779.596 -552.103ZM-802.542 -562.408C-802.65 -562.375 -802.758 -562.342 -802.866 -562.309C-802.995 -562.269 -803.124 -562.228 -803.253 -562.187L-803.391 -562.313L-803.532 -562.44C-803.61 -562.511 -803.689 -562.581 -803.767 -562.651C-803.501 -562.601 -803.236 -562.55 -802.97 -562.496C-802.828 -562.467 -802.685 -562.438 -802.542 -562.408ZM-2328.82 909.801C-2333.96 919.778 -2336.28 931.087 -2335.33 942.591C-2334.18 956.464 -2328.2 969.608 -2318.49 979.698L-2302.14 996.63C-2300.2 994.019 -2298.07 991.527 -2295.76 989.175L-2275.62 968.611L-2328.82 909.801ZM-2269.8 975.034L-2289.56 995.206C-2291.94 997.634 -2294.1 1000.23 -2296.03 1002.96L-2240.55 1060.42L-2216.29 1034.19L-2269.8 975.034ZM-2210.46 1040.63L-2234.53 1066.65L-2180.41 1122.7L-2158.67 1097.89L-2210.46 1040.63ZM-2152.84 1104.33L-2174.39 1128.93L-2122.05 1183.14L-2102.64 1159.83L-2152.84 1104.33ZM-2096.79 1166.29L-2116.03 1189.38L-2065.33 1241.88L-2048.08 1220.14L-2096.79 1166.29ZM-2042.18 1226.66L-2059.25 1248.18L-2010.06 1299.13L-1994.82 1279.02L-2042.18 1226.66ZM-1988.9 1285.56L-2003.96 1305.44L-1956.15 1354.96L-1942.79 1336.53L-1988.9 1285.56ZM-1936.84 1343.1L-1950.03 1361.29L-1903.51 1409.47L-1891.9 1392.78L-1936.84 1343.1ZM-1885.94 1399.37L-1897.38 1415.82L-1852.04 1462.78L-1842.07 1447.86L-1885.94 1399.37ZM-1836.09 1454.47L-1845.89 1469.14L-1801.67 1514.94L-1793.25 1501.84L-1836.09 1454.47ZM-1103.36 2251.53L-1107.31 2247.17L-1097.58 2256.65L-1095.81 2258.48L-1103.36 2251.53ZM-1007.53 2357.47L-1039.99 2321.59L-994.192 2363.73L-982.314 2376.03C-985.38 2374.84 -988.362 2373.39 -991.225 2371.68L-1007.53 2357.47ZM-972.96 2387.61C-972.24 2387.73 -971.519 2387.85 -970.796 2387.96L-961.442 2397.64L-972.96 2387.61ZM-950.506 2387.87L-871.334 2465.01L-849.453 2485.15C-830.653 2488.74 -810.43 2483.49 -795.618 2469.26L696.875 1035.63C710.124 1022.9 716.839 1005.1 715.326 986.81L715.364 986.805C714.22 972.932 708.234 959.75 698.562 949.693L-438.251 -227.59L-450.967 -203.397L579.165 935.345C589.156 946.401 595.086 960.051 596.308 974.839C598.068 995.99 590.012 1016.27 574.253 1030.48L-915.721 2371.35C-925.83 2380.45 -937.963 2385.93 -950.506 2387.87ZM-457.183 -210.269L-444.615 -234.181L-462.189 -252.38L-474.586 -229.506L-457.183 -210.269ZM-480.74 -236.309L-468.492 -258.908L-485.858 -276.892L-497.93 -255.312L-480.74 -236.309ZM-504.059 -262.088L-492.139 -283.396L-509.272 -301.14L-521.014 -280.829L-504.059 -262.088ZM-527.146 -287.608L-515.559 -307.65L-532.463 -325.156L-543.867 -306.092L-527.146 -287.608ZM-549.942 -312.807L-538.694 -331.609L-555.349 -348.857L-566.409 -331.011L-549.942 -312.807ZM-572.462 -337.702L-561.561 -355.291L-577.897 -372.208L-588.608 -355.55L-572.462 -337.702ZM-594.657 -362.237L-584.11 -378.642L-600.169 -395.273L-610.523 -379.776L-594.657 -362.237ZM-616.52 -386.405L-606.331 -401.654L-622.088 -417.972L-632.079 -403.605L-616.52 -386.405ZM-638.023 -410.175L-628.199 -424.301L-643.589 -440.238L-653.213 -426.967L-638.023 -410.175ZM-659.144 -433.523L-649.691 -446.558L-664.695 -462.096L-673.947 -449.886L-659.144 -433.523ZM-679.85 -456.412L-670.774 -468.391L-685.337 -483.473L-694.212 -472.288L-679.85 -456.412ZM-700.127 -478.827L-691.433 -489.786L-705.512 -504.366L-714.005 -494.168L-700.127 -478.827ZM-719.883 -500.666L-711.74 -510.444L-711.573 -510.643L-724.102 -523.617C-727.357 -521.23 -730.436 -518.519 -733.292 -515.488L-719.883 -500.666ZM-739.081 -521.887C-736.272 -524.816 -733.276 -527.473 -730.128 -529.858L-738.221 -538.239C-738.585 -538.616 -738.952 -538.987 -739.323 -539.352C-743.101 -537.968 -746.738 -536.235 -750.193 -534.172L-739.081 -521.887ZM-756.094 -540.695C-753.122 -542.566 -750.027 -544.217 -746.83 -545.64C-749.073 -547.23 -751.403 -548.651 -753.801 -549.902C-756.988 -549.683 -760.128 -549.229 -763.201 -548.55L-756.094 -540.695ZM-770.248 -555.653L-770.233 -555.657L-770.26 -555.663L-770.248 -555.653ZM-2307.32 1044.37C-2308.29 1032.57 -2305.92 1020.92 -2300.66 1010.63L-2246.44 1066.78L-2268.69 1090.84C-2270.76 1093.07 -2272.68 1095.43 -2274.44 1097.88L-2288.56 1084.12C-2299.42 1073.52 -2306.06 1059.42 -2307.32 1044.37ZM-2262.32 1096.69L-2240.42 1073.02L-2186.14 1129.23L-2211.99 1158.73L-2268.15 1104.01C-2266.4 1101.44 -2264.45 1099 -2262.32 1096.69ZM-2205.8 1164.76L-2180.12 1135.47L-2127.63 1189.83L-2151.12 1218.04L-2205.8 1164.76ZM-2144.92 1224.08L-2121.6 1196.08L-2070.76 1248.73L-2092.06 1275.58L-2144.92 1224.08ZM-2085.82 1281.66L-2064.68 1255.02L-2015.35 1306.12L-2034.62 1331.55L-2085.82 1281.66ZM-2028.36 1337.65L-2009.26 1312.43L-1961.32 1362.08L-1978.69 1386.04L-2028.36 1337.65ZM-1972.42 1392.16L-1955.2 1368.42L-1908.56 1416.73L-1924.17 1439.17L-1972.42 1392.16ZM-1917.88 1445.29L-1902.43 1423.07L-1856.97 1470.15L-1870.93 1491.05L-1917.88 1445.29ZM-1864.63 1497.18L-1850.82 1476.52L-1806.49 1522.44L-1818.9 1541.74L-1864.63 1497.18ZM-1812.57 1547.91L-1800.31 1528.84L-1757 1573.69L-1767.96 1591.37L-1812.57 1547.91ZM-885.901 2463.36L-885.124 2464.17L-883.272 2465.78L-885.901 2463.36ZM-737.263 2588.37L-838.947 2494.81C-821.23 2495.06 -803.41 2488.63 -789.673 2475.44L702.824 1041.85C717.961 1027.3 725.666 1006.99 723.936 986.064C722.66 970.243 715.817 955.168 704.735 943.711L-434.015 -235.648L-422.849 -256.892L824.313 958.268C835.165 968.83 841.812 982.967 843.067 998.02L843.105 998.015C844.603 1016.2 838.135 1034.12 825.351 1047.18L-669.703 2573.52C-687.773 2591.99 -714.512 2596.97 -737.263 2588.37ZM-429.348 -263.225L-440.379 -242.239L-457.868 -260.352L-446.993 -280.417L-429.348 -263.225ZM-453.433 -286.692L-464.171 -266.88L-481.448 -284.773L-470.871 -303.682L-453.433 -286.692ZM-477.291 -309.937L-487.729 -291.278L-504.77 -308.927L-494.495 -326.7L-477.291 -309.937ZM-500.924 -332.964L-511.057 -315.438L-527.864 -332.844L-517.899 -349.504L-500.924 -332.964ZM-524.275 -355.715L-534.095 -339.298L-550.649 -356.442L-541 -372.012L-524.275 -355.715ZM-547.359 -378.208L-556.861 -362.875L-573.09 -379.683L-563.762 -394.19L-547.359 -378.208ZM-570.126 -400.39L-579.303 -386.117L-595.251 -402.634L-586.252 -416.102L-570.126 -400.39ZM-592.566 -422.255L-601.412 -409.015L-617.052 -425.213L-608.388 -437.671L-592.566 -422.255ZM-614.655 -443.776L-623.163 -431.542L-638.43 -447.353L-630.106 -458.831L-614.655 -443.776ZM-636.367 -464.931L-644.531 -453.672L-659.406 -469.077L-651.428 -479.606L-636.367 -464.931ZM-657.668 -485.686L-665.484 -475.372L-679.91 -490.313L-675.235 -496.205C-674.248 -497.452 -673.227 -498.657 -672.174 -499.82L-657.668 -485.686ZM-682.079 -501.576L-686.006 -496.626L-699.633 -510.739C-696.865 -513.395 -693.903 -515.802 -690.775 -517.943L-678.404 -505.89C-679.669 -504.505 -680.895 -503.067 -682.079 -501.576ZM-697.082 -524.089C-700.087 -521.934 -702.95 -519.557 -705.65 -516.97L-716.648 -528.361C-713.286 -530.2 -709.793 -531.738 -706.212 -532.969C-705.929 -532.703 -705.648 -532.435 -705.37 -532.164L-697.082 -524.089ZM-713.98 -539.201C-717.004 -537.919 -719.957 -536.435 -722.819 -534.752L-729.846 -542.029C-726.874 -542.63 -723.84 -543.03 -720.762 -543.22C-718.427 -542.028 -716.162 -540.687 -713.98 -539.201ZM-2272.69 1111.7C-2277.98 1122.28 -2280.36 1134.22 -2279.38 1146.19C-2278.04 1162.46 -2270.67 1177.51 -2258.63 1188.61L-2246.95 1199.36C-2245.29 1196.98 -2243.49 1194.67 -2241.54 1192.45L-2217.71 1165.26L-2272.69 1111.7ZM-2211.52 1171.3L-2235.04 1198.14C-2237.04 1200.42 -2238.87 1202.8 -2240.52 1205.28L-2183.88 1257.39L-2156.68 1224.73L-2211.52 1171.3ZM-2150.49 1230.76L-2177.53 1263.23L-2122.46 1313.89L-2097.48 1282.41L-2150.49 1230.76ZM-2091.24 1288.49L-2116.06 1319.78L-2062.82 1368.77L-2039.9 1338.51L-2091.24 1288.49ZM-2033.64 1344.61L-2056.41 1374.67L-2004.85 1422.11L-1983.84 1393.13L-2033.64 1344.61ZM-1977.56 1399.25L-1998.42 1428.02L-1948.41 1474.03L-1929.18 1446.39L-1977.56 1399.25ZM-1922.9 1452.51L-1941.98 1479.95L-1893.39 1524.66L-1875.82 1498.38L-1922.9 1452.51ZM-1869.53 1504.51L-1886.95 1530.58L-1839.69 1574.07L-1823.68 1549.18L-1869.53 1504.51ZM-1817.35 1555.35L-1833.22 1580.02L-1787.18 1622.38L-1772.64 1598.91L-1817.35 1555.35ZM-1766.28 1605.11L-1780.69 1628.35L-1735.81 1669.64L-1722.64 1647.63L-1766.28 1605.11ZM-1716.24 1653.87L-1729.27 1675.66L-1685.45 1715.98L-1673.57 1695.44L-1716.24 1653.87ZM-724.089 2600.49C-702.481 2603.27 -679.858 2596.28 -663.503 2579.58L831.584 1053.2C846.109 1038.38 853.459 1018 851.757 997.303C850.356 980.189 842.772 964.129 830.424 952.101L-418.638 -264.903L-408.85 -283.524L950.144 966.871C962.177 977.937 969.56 993.021 970.893 1009.3L970.898 1009.33C972.425 1027.43 966.203 1045.48 953.841 1058.83L-543.774 2677.88C-566.613 2702.57 -604.328 2705.59 -630.727 2685.91L-640.491 2677.4L-724.089 2600.49ZM-425.137 -271.236L-415.475 -289.619L-433.178 -305.908L-442.697 -288.345L-425.137 -271.236ZM-449.137 -294.62L-439.745 -311.95L-457.24 -328.047L-466.484 -311.522L-449.137 -294.62ZM-472.905 -317.778L-463.789 -334.072L-481.05 -349.955L-490.015 -334.449L-472.905 -317.778ZM-496.445 -340.713L-487.612 -355.992L-504.644 -371.663L-513.321 -357.157L-496.445 -340.713ZM-519.697 -363.369L-511.153 -377.651L-527.935 -393.093L-536.319 -379.564L-519.697 -363.369ZM-542.678 -385.76L-534.431 -399.069L-550.888 -414.211L-558.973 -401.637L-542.678 -385.76ZM-565.337 -407.838L-557.391 -420.195L-573.571 -435.081L-581.35 -423.439L-565.337 -407.838ZM-587.664 -429.592L-580.027 -441.022L-595.901 -455.627L-603.367 -444.891L-587.664 -429.592ZM-609.633 -450.997L-602.311 -461.525L-617.811 -475.786L-624.959 -465.929L-609.633 -450.997ZM-631.219 -472.029L-624.219 -481.682L-638.815 -495.112C-641.175 -492.748 -643.402 -490.198 -645.473 -487.465L-646.148 -486.575L-631.219 -472.029ZM-652.388 -492.655L-652.373 -492.674C-650.131 -495.633 -647.727 -498.4 -645.183 -500.971L-657.438 -512.247C-660.411 -510.361 -663.267 -508.242 -665.975 -505.893L-652.388 -492.655ZM-672.214 -511.972C-669.6 -514.276 -666.862 -516.387 -664.02 -518.302L-672.524 -526.127C-672.596 -526.193 -672.668 -526.26 -672.74 -526.326C-672.855 -526.431 -672.97 -526.535 -673.085 -526.639C-676.518 -525.526 -679.846 -524.15 -683.046 -522.525L-672.214 -511.972ZM-689.55 -528.862C-686.848 -530.364 -684.059 -531.704 -681.192 -532.874C-683.28 -534.234 -685.435 -535.467 -687.65 -536.571C-690.585 -536.416 -693.51 -536.072 -696.403 -535.54L-689.55 -528.862ZM-2251.48 1247.98C-2252.5 1235.68 -2250.2 1223.68 -2244.93 1212.94L-2189.41 1264.02L-2214.47 1294.12C-2216.31 1296.33 -2218.02 1298.62 -2219.59 1300.98L-2228.66 1293.07C-2241.91 1281.5 -2250.03 1265.47 -2251.48 1247.98ZM-2207.8 1299.59L-2183.05 1269.87L-2127.84 1320.67L-2156.11 1356.3L-2213.02 1306.7C-2211.44 1304.24 -2209.7 1301.87 -2207.8 1299.59ZM-2149.57 1362.01L-2121.44 1326.56L-2068.06 1375.68L-2094.24 1410.23L-2149.57 1362.01ZM-2087.69 1415.94L-2061.65 1381.57L-2009.95 1429.14L-2034.2 1462.57L-2087.69 1415.94ZM-2027.63 1468.3L-2003.52 1435.05L-1953.38 1481.18L-1975.82 1513.45L-2027.63 1468.3ZM-1969.26 1519.17L-1946.96 1487.1L-1898.24 1531.92L-1918.99 1562.99L-1969.26 1519.17ZM-1912.43 1568.71L-1891.8 1537.85L-1844.43 1581.44L-1863.61 1611.27L-1912.43 1568.71ZM-1857.01 1617.02L-1837.96 1587.39L-1791.81 1629.85L-1809.51 1658.42L-1857.01 1617.02ZM-1802.9 1664.19L-1785.32 1635.82L-1740.33 1677.21L-1756.65 1704.49L-1802.9 1664.19ZM-1749.99 1710.3L-1733.8 1683.22L-1689.87 1723.64L-1704.89 1749.61L-1749.99 1710.3ZM-1698.23 1755.42L-1683.34 1729.65L-1640.41 1769.15L-1654.2 1793.8L-1698.23 1755.42ZM-1647.53 1799.61L-1633.86 1775.18L-1591.85 1813.83L-1604.48 1837.13L-1647.53 1799.61ZM-512.979 2788.55L-608.167 2705.58C-583.212 2711.21 -555.98 2703.78 -537.413 2683.7L960.202 1064.65C974.186 1049.51 981.256 1029.05 979.54 1008.55C978.013 990.138 969.646 973.061 955.998 960.505L-404.686 -291.445L-396.116 -307.75L1075.97 975.398C1089.26 986.96 1097.33 1002.96 1098.79 1020.49L1098.82 1020.48C1100.37 1038.77 1094.5 1056.5 1082.39 1070.32L-417.783 2782.13C-442.311 2810.08 -484.965 2812.95 -512.979 2788.55ZM-402.857 -313.625L-411.311 -297.541L-428.928 -313.75L-420.609 -329.099L-402.857 -313.625ZM-427.293 -334.925L-435.495 -319.792L-452.899 -335.806L-444.837 -350.217L-427.293 -334.925ZM-451.505 -356.03L-459.448 -341.831L-476.615 -357.626L-468.815 -371.118L-451.505 -356.03ZM-475.499 -376.944L-483.177 -363.663L-500.11 -379.244L-492.58 -391.833L-475.499 -376.944ZM-499.212 -397.614L-506.618 -385.232L-523.297 -400.577L-516.042 -412.284L-499.212 -397.614ZM-522.664 -418.056L-529.792 -406.554L-546.14 -421.595L-539.166 -432.44L-522.664 -418.056ZM-545.8 -438.222L-552.643 -427.579L-568.708 -442.36L-562.023 -452.364L-545.8 -438.222ZM-568.612 -458.107L-575.164 -448.3L-590.917 -462.794L-585.912 -469.991C-585.45 -470.654 -584.979 -471.309 -584.5 -471.956L-568.612 -458.107ZM-593.005 -474.906L-597.327 -468.692L-612.575 -482.722C-610.356 -485.395 -607.977 -487.898 -605.453 -490.22L-591.025 -477.644C-591.701 -476.746 -592.361 -475.833 -593.005 -474.906ZM-612.016 -495.94C-614.456 -493.64 -616.772 -491.187 -618.95 -488.587L-632.324 -500.892C-629.707 -502.959 -626.971 -504.832 -624.139 -506.507L-612.016 -495.94ZM-630.967 -512.459C-633.655 -510.742 -636.258 -508.859 -638.76 -506.813L-649.434 -516.635C-646.352 -518.078 -643.181 -519.296 -639.948 -520.286C-639.87 -520.219 -639.792 -520.152 -639.715 -520.084L-630.967 -512.459ZM-648.383 -526.5C-651.063 -525.451 -653.694 -524.256 -656.262 -522.918L-662.982 -529.1C-661.275 -529.383 -659.551 -529.606 -657.811 -529.765C-656.774 -529.86 -655.739 -529.932 -654.705 -529.981C-652.553 -528.943 -650.442 -527.783 -648.383 -526.5ZM-2217.31 1314.45C-2222.46 1325.35 -2224.68 1337.45 -2223.66 1349.78C-2222.09 1368.53 -2213.27 1385.51 -2198.73 1397.53L-2192.39 1402.78C-2190.85 1400.35 -2189.18 1397.98 -2187.37 1395.7L-2161.5 1363.1L-2217.31 1314.45ZM-2154.96 1368.8L-2180.56 1401.07C-2182.42 1403.41 -2184.12 1405.84 -2185.65 1408.36L-2128.61 1455.6L-2099.48 1417.15L-2154.96 1368.8ZM-2092.93 1422.86L-2121.93 1461.13L-2066.47 1507.07L-2039.3 1469.61L-2092.93 1422.86ZM-2032.73 1475.34L-2059.77 1512.62L-2006.14 1557.04L-1980.8 1520.61L-2032.73 1475.34ZM-1974.24 1526.33L-1999.45 1562.58L-1947.48 1605.62L-1923.85 1570.25L-1974.24 1526.33ZM-1917.28 1575.98L-1940.79 1611.16L-1890.38 1652.91L-1868.34 1618.63L-1917.28 1575.98ZM-1861.74 1624.38L-1883.67 1658.47L-1834.69 1699.04L-1814.14 1665.88L-1861.74 1624.38ZM-1807.52 1671.65L-1827.95 1704.62L-1780.32 1744.07L-1761.17 1712.05L-1807.52 1671.65ZM-1754.51 1717.85L-1773.55 1749.68L-1727.15 1788.11L-1709.31 1757.25L-1754.51 1717.85ZM-1702.65 1763.06L-1720.37 1793.72L-1675.12 1831.2L-1658.52 1801.53L-1702.65 1763.06ZM-1651.85 1807.34L-1668.34 1836.82L-1624.15 1873.42L-1608.71 1844.94L-1651.85 1807.34ZM-1602.03 1850.76L-1617.36 1879.04L-1574.18 1914.8L-1559.85 1887.53L-1602.03 1850.76ZM-494.006 2809.45L-390.067 2895.54C-360.503 2920.01 -316.464 2915.93 -291.863 2886.43L1210.87 1081.86C1222.6 1067.78 1228.23 1049.97 1226.72 1031.71L1226.69 1031.76C1225.11 1012.97 1216.3 996.025 1201.75 983.968L-384.504 -329.841L-391.974 -315.63L1081.69 968.896C1096.63 981.942 1105.81 999.994 1107.44 1019.78C1109.14 1040.43 1102.54 1060.41 1088.89 1076.01L-411.281 2787.85C-432.374 2811.91 -465.466 2819.48 -494.006 2809.45ZM-398.715 -321.505L-391.352 -335.513L-409.146 -350.251L-416.38 -336.903L-398.715 -321.505ZM-423.063 -342.729L-415.938 -355.876L-433.523 -370.441L-440.516 -357.941L-423.063 -342.729ZM-447.184 -363.754L-440.302 -376.055L-457.653 -390.426L-464.398 -378.758L-447.184 -363.754ZM-471.082 -384.584L-464.45 -396.056L-481.571 -410.237L-488.062 -399.385L-471.082 -384.584ZM-494.694 -405.166L-488.318 -415.825L-505.188 -429.797L-511.418 -419.744L-494.694 -405.166ZM-518.041 -425.516L-511.928 -435.379L-528.468 -449.078L-534.431 -439.803L-518.041 -425.516ZM-541.065 -445.586L-535.222 -454.673L-551.166 -467.878C-552.912 -465.756 -554.562 -463.534 -556.108 -461.218L-557.172 -459.625L-541.065 -445.586ZM-563.76 -465.368L-563.339 -466C-561.617 -468.574 -559.779 -471.042 -557.833 -473.4L-572.103 -485.219C-574.514 -483.171 -576.808 -480.972 -578.973 -478.629L-563.76 -465.368ZM-585.486 -484.306C-583.382 -486.598 -581.167 -488.767 -578.851 -490.808L-590.863 -500.756C-593.559 -499.259 -596.161 -497.6 -598.657 -495.786L-585.486 -484.306ZM-605.339 -501.61C-602.971 -503.419 -600.513 -505.098 -597.971 -506.644L-606.821 -513.974C-609.878 -513.092 -612.885 -512.015 -615.819 -510.745L-605.339 -501.61ZM-622.96 -516.97C-620.54 -518.162 -618.07 -519.232 -615.559 -520.178C-617.525 -521.359 -619.541 -522.438 -621.6 -523.413C-624.242 -523.306 -626.875 -523.054 -629.488 -522.661L-622.96 -516.97ZM-2195.87 1451.58C-2196.89 1439.32 -2194.76 1427.19 -2189.79 1416.19L-2133.86 1462.52L-2160.26 1497.36C-2162.07 1499.75 -2163.74 1502.22 -2165.27 1504.77L-2168.75 1502.02C-2184.34 1489.71 -2194.22 1471.32 -2195.87 1451.58ZM-2153.32 1502.56L-2127.17 1468.06L-2071.57 1514.11L-2101.36 1555.19L-2158.4 1510.19C-2156.87 1507.56 -2155.18 1505.01 -2153.32 1502.56ZM-2094.55 1560.57L-2064.88 1519.66L-2011.11 1564.19L-2039.05 1604.37L-2094.55 1560.57ZM-2032.24 1609.74L-2004.42 1569.73L-1952.33 1612.88L-1978.54 1652.11L-2032.24 1609.74ZM-1971.74 1657.48L-1945.64 1618.42L-1895.11 1660.27L-1919.72 1698.53L-1971.74 1657.48ZM-1912.89 1703.92L-1888.4 1665.83L-1839.31 1706.49L-1862.4 1743.76L-1912.89 1703.92ZM-1855.56 1749.16L-1832.57 1712.07L-1784.83 1751.6L-1806.52 1787.86L-1855.56 1749.16ZM-1799.63 1793.29L-1778.06 1757.22L-1731.55 1795.73L-1751.91 1830.95L-1799.63 1793.29ZM-1745.03 1836.37L-1724.78 1801.34L-1679.43 1838.91L-1698.54 1873.06L-1745.03 1836.37ZM-1691.66 1878.49L-1672.65 1844.52L-1628.37 1881.2L-1646.3 1914.29L-1691.66 1878.49ZM-1639.4 1919.73L-1621.57 1886.83L-1578.31 1922.66L-1595.13 1954.66L-1639.4 1919.73ZM-1588.2 1960.13L-1571.48 1928.32L-422.449 2880.02L-1588.2 1960.13ZM-267.152 3002.56L-384.592 2909.89C-352.172 2928.48 -309.914 2921.67 -285.223 2892.01L1217.51 1087.45C1230.71 1071.61 1237.02 1051.59 1235.34 1031.04C1233.59 1009.93 1223.66 990.856 1207.31 977.333L-380.379 -337.687L-373.869 -350.073L1327.58 992.496C1343.16 1004.81 1353.03 1023.16 1354.66 1042.94L1354.69 1042.93C1356.2 1061.15 1350.77 1079.09 1339.38 1093.44L-165.907 2990.71C-190.571 3021.84 -235.997 3027.14 -267.152 3002.56ZM-380.817 -355.555L-387.227 -343.359L-404.933 -358.024L-398.646 -369.624L-380.817 -355.555ZM-405.539 -375.063L-411.725 -363.65L-429.217 -378.138L-423.159 -388.967L-405.539 -375.063ZM-430.041 -394.397L-435.996 -383.753L-453.249 -398.043L-447.426 -408.115L-430.041 -394.397ZM-454.329 -413.562L-460.047 -403.673L-477.066 -417.769L-471.485 -427.099L-454.329 -413.562ZM-478.339 -432.508L-483.813 -423.357L-500.575 -437.241L-496.545 -443.743C-496.11 -444.445 -495.667 -445.139 -495.215 -445.824L-478.339 -432.508ZM-503.937 -448.274L-507.315 -442.823L-523.642 -456.346C-521.803 -458.89 -519.838 -461.313 -517.757 -463.611L-502.043 -451.212C-502.689 -450.248 -503.321 -449.269 -503.937 -448.274ZM-524.598 -469.009C-526.622 -466.75 -528.544 -464.381 -530.357 -461.909L-545.297 -474.283C-543.189 -476.35 -540.976 -478.295 -538.667 -480.111L-524.598 -469.009ZM-545.628 -485.604C-547.835 -483.786 -549.958 -481.858 -551.991 -479.827L-564.993 -490.596C-562.596 -492.202 -560.112 -493.676 -557.548 -495.01L-545.628 -485.604ZM-564.917 -500.824C-567.318 -499.436 -569.65 -497.934 -571.907 -496.322L-582.222 -504.867C-579.443 -505.981 -576.587 -506.937 -573.667 -507.728L-564.917 -500.824ZM-582.762 -513.927C-585.124 -513.073 -587.44 -512.117 -589.705 -511.064L-595.968 -516.251C-593.482 -516.584 -590.979 -516.794 -588.469 -516.877C-586.536 -515.985 -584.632 -515.002 -582.762 -513.927ZM-2162.38 1518.13C-2167.12 1529.16 -2169.13 1541.25 -2168.13 1553.39C-2166.38 1574.46 -2155.72 1593.79 -2138.82 1606.51L-2138.24 1606.95C-2136.69 1604.21 -2134.98 1601.55 -2133.11 1598.97L-2106.47 1562.24L-2162.38 1518.13ZM-2099.66 1567.62L-2126.08 1604.05C-2127.98 1606.67 -2129.71 1609.4 -2131.25 1612.22L-2074.34 1655.1L-2044.02 1611.52L-2099.66 1567.62ZM-2037.22 1616.89L-2067.42 1660.32L-2011.95 1702.12L-1983.39 1659.36L-2037.22 1616.89ZM-1976.58 1664.73L-2005.04 1707.32L-1951.37 1747.76L-1924.44 1705.88L-1976.58 1664.73ZM-1917.61 1711.27L-1944.44 1752.99L-1892.42 1792.19L-1867.01 1751.19L-1917.61 1711.27ZM-1860.16 1756.59L-1885.47 1797.43L-1835 1835.46L-1811.02 1795.37L-1860.16 1756.59ZM-1804.13 1800.81L-1828.01 1840.73L-1778.94 1877.7L-1756.3 1838.55L-1804.13 1800.81ZM-1749.43 1843.97L-1771.97 1882.96L-1724.21 1918.95L-1702.83 1880.74L-1749.43 1843.97ZM-1695.95 1886.17L-1717.23 1924.21L-1670.68 1959.28L-1650.5 1922.03L-1695.95 1886.17ZM-1643.6 1927.47L-1663.7 1964.55L-1618.31 1998.75L-1599.24 1962.48L-1643.6 1927.47ZM-1592.31 1967.95L-1611.28 2004.05L-144.242 3109.55C-111.498 3134.2 -64.7241 3127.69 -39.982 3095.05L1467.86 1105.02C1478.92 1090.44 1484.17 1072.37 1482.67 1054.15L1482.64 1054.2C1480.89 1033.16 1470.23 1013.79 1453.36 1001.07L-364.159 -368.545L-369.79 -357.833L1332.96 985.766C1350.42 999.533 1361.47 1020.12 1363.31 1042.26C1365.02 1062.69 1358.91 1082.8 1346.16 1098.86L-159.134 2996.13C-186.758 3030.95 -237.651 3036.87 -272.533 3009.33L-1592.31 1967.95ZM-376.738 -363.315L-371.2 -373.851L-389.061 -387.31L-394.479 -377.314L-376.738 -363.315ZM-401.371 -382.753L-396.048 -392.575L-413.699 -405.876L-418.898 -396.583L-401.371 -382.753ZM-425.78 -402.013L-420.677 -411.135L-438.093 -424.259L-443.068 -415.654L-425.78 -402.013ZM-449.971 -421.101L-445.095 -429.535L-461.942 -442.23C-463.659 -439.902 -465.274 -437.479 -466.779 -434.966L-467.024 -434.557L-449.971 -421.101ZM-473.876 -439.964C-472.308 -442.546 -470.633 -445.041 -468.859 -447.442L-484.393 -459.148C-486.39 -457.137 -488.301 -455.013 -490.116 -452.779L-473.876 -439.964ZM-496.921 -458.149C-495.152 -460.33 -493.3 -462.417 -491.372 -464.407L-505.269 -474.88C-507.461 -473.272 -509.575 -471.555 -511.604 -469.735L-496.921 -458.149ZM-518.518 -475.19C-516.576 -476.986 -514.562 -478.695 -512.48 -480.313L-524.238 -489.174C-526.658 -487.989 -529.012 -486.687 -531.295 -485.272L-518.518 -475.19ZM-538.465 -490.93C-536.33 -492.357 -534.134 -493.693 -531.881 -494.933L-540.581 -501.489C-543.328 -500.786 -546.019 -499.943 -548.648 -498.965L-538.465 -490.93ZM-556.451 -505.122C-554.342 -506.052 -552.191 -506.901 -550.002 -507.667C-551.812 -508.668 -553.653 -509.586 -555.517 -510.423C-557.84 -510.354 -560.171 -510.179 -562.504 -509.898L-556.451 -505.122ZM-2140.41 1655.24C-2141.41 1643.23 -2139.53 1631.23 -2135.05 1620.21L-2079.29 1662.23L-2105.97 1700.59C-2107.91 1703.38 -2109.68 1706.27 -2111.27 1709.25C-2128.07 1696.1 -2138.63 1676.58 -2140.41 1655.24ZM-2098.87 1705.54L-2072.37 1667.44L-2016.78 1709.34L-2047.5 1755.31L-2104.21 1714.41C-2102.63 1711.36 -2100.85 1708.39 -2098.87 1705.54ZM-2040.48 1760.37L-2009.86 1714.55L-1956.08 1755.08L-1985.14 1800.28L-2040.48 1760.37ZM-1978.11 1805.35L-1949.14 1760.3L-1897 1799.59L-1924.53 1844L-1978.11 1805.35ZM-1917.48 1849.08L-1890.06 1804.83L-1839.47 1842.94L-1865.55 1886.53L-1917.48 1849.08ZM-1858.46 1891.64L-1832.48 1848.21L-1783.31 1885.26L-1808.03 1928.01L-1858.46 1891.64ZM-1800.96 1933.11L-1776.34 1890.52L-1728.48 1926.58L-1751.92 1968.48L-1800.96 1933.11ZM-1744.85 1973.58L-1721.5 1931.84L-1674.86 1966.99L-1697.1 2008.02L-1744.85 1973.58ZM-1690.02 2013.12L-1667.87 1972.25L-1622.39 2006.52L-1643.49 2046.67L-1690.02 2013.12ZM-1636.38 2051.8L-1615.36 2011.82L-149.408 3116.48C-112.868 3144.04 -60.6459 3136.76 -33.0394 3100.29L1474.81 1110.26C1487.14 1093.98 1493.02 1073.79 1491.32 1053.48C1489.38 1029.96 1477.44 1008.37 1458.61 994.161L-360.083 -376.302L-355.259 -385.479L1579.19 1009.59C1597.37 1022.73 1608.85 1043.07 1610.72 1065.4C1612.23 1083.62 1607.14 1101.79 1596.38 1116.59L85.9811 3199.37C61.171 3233.6 13.0107 3241.33 -21.2875 3216.57L-1636.38 2051.8ZM-362.386 -390.619L-367.123 -381.607L-384.894 -394.998L-380.275 -403.52L-362.386 -390.619ZM-387.351 -408.623L-391.881 -400.263L-409.438 -413.493L-407.246 -417.411C-406.505 -418.735 -405.736 -420.034 -404.941 -421.308L-387.351 -408.623ZM-414.793 -421.652L-416.416 -418.751L-433.555 -431.666C-431.993 -433.982 -430.336 -436.216 -428.588 -438.362L-411.979 -426.384C-412.953 -424.841 -413.892 -423.263 -414.793 -421.652ZM-435.649 -443.454C-437.349 -441.346 -438.97 -439.163 -440.509 -436.906L-456.475 -448.937C-454.726 -450.883 -452.897 -452.745 -450.994 -454.521L-435.649 -443.454ZM-458.143 -459.677C-459.968 -457.914 -461.727 -456.077 -463.417 -454.168L-477.881 -465.068C-475.935 -466.662 -473.928 -468.165 -471.866 -469.573L-458.143 -459.677ZM-479.287 -474.925C-481.235 -473.501 -483.134 -471.998 -484.98 -470.417L-497.565 -479.9C-495.413 -481.138 -493.202 -482.282 -490.938 -483.327L-479.287 -474.925ZM-498.895 -489.066C-500.989 -487.964 -503.036 -486.784 -505.033 -485.528L-514.978 -493.022C-512.517 -493.872 -510.004 -494.61 -507.444 -495.231L-498.895 -489.066ZM-517.156 -501.396C-519.175 -500.717 -521.163 -499.969 -523.117 -499.155L-528.983 -503.575C-526.815 -503.804 -524.65 -503.945 -522.491 -503.998C-520.685 -503.202 -518.906 -502.335 -517.156 -501.396ZM-2107.81 1722.48C-2111.99 1733.44 -2113.72 1745.28 -2112.74 1757.06C-2110.97 1778.49 -2100.69 1797.98 -2084.28 1811.51C-2082.66 1808.33 -2080.84 1805.22 -2078.83 1802.2L-2052.3 1762.51L-2107.81 1722.48ZM-2045.29 1767.57L-2071.63 1806.99C-2073.73 1810.14 -2075.6 1813.39 -2077.23 1816.73L-2020.81 1855.75L-1989.83 1807.57L-2045.29 1767.57ZM-1982.8 1812.64L-2013.69 1860.68L-1958.51 1898.83L-1929.09 1851.37L-1982.8 1812.64ZM-1922.05 1856.45L-1951.37 1903.77L-1897.96 1940.71L-1870 1893.98L-1922.05 1856.45ZM-1862.92 1899.09L-1890.78 1945.67L-1838.96 1981.51L-1812.38 1935.54L-1862.92 1899.09ZM-1805.31 1940.64L-1831.8 1986.46L-1781.46 2021.28L-1756.17 1976.08L-1805.31 1940.64ZM-1749.1 1981.18L-1774.3 2026.23L-1725.32 2060.1L-1701.25 2015.68L-1749.1 1981.18ZM-1694.18 2020.78L-1718.17 2065.05L-1670.49 2098.03L-1647.56 2054.4L-1694.18 2020.78ZM-1640.44 2059.53L-1663.29 2103L101.628 3323.59C119.018 3335.59 140.048 3340.16 160.906 3336.4C181.726 3332.64 199.853 3321.02 211.938 3303.66L1724.9 1128.17C1735.36 1113.13 1740.31 1094.82 1738.78 1076.65L1738.81 1076.61C1736.85 1052.94 1724.51 1031.63 1705.01 1018.12L-347.074 -401.034C-347.278 -400.657 -347.48 -400.279 -347.679 -399.898L-351.194 -393.211L1584.27 1002.59C1604.53 1017.2 1617.3 1039.8 1619.37 1064.69C1621.06 1084.92 1615.38 1105.17 1603.42 1121.67L93.0133 3204.41C65.3813 3242.5 11.8252 3251.11 -26.3686 3223.56L-1640.44 2059.53ZM-358.322 -398.352L-355.392 -403.926C-355.025 -404.626 -354.65 -405.321 -354.269 -406.01L-371.696 -418.062C-373.247 -415.835 -374.712 -413.535 -376.087 -411.163L-358.322 -398.352ZM-383.136 -416.247C-381.773 -418.556 -380.331 -420.802 -378.812 -422.983L-395.18 -434.303C-396.865 -432.423 -398.484 -430.465 -400.029 -428.43L-383.136 -416.247ZM-407.059 -433.499C-405.555 -435.49 -403.987 -437.413 -402.361 -439.269L-417.528 -449.758C-419.341 -448.19 -421.094 -446.549 -422.782 -444.838L-407.059 -433.499ZM-429.904 -449.975C-428.285 -451.659 -426.61 -453.282 -424.882 -454.844L-438.477 -464.246C-440.428 -462.993 -442.328 -461.666 -444.173 -460.265L-429.904 -449.975ZM-451.487 -465.54C-449.749 -466.935 -447.963 -468.269 -446.133 -469.54L-457.592 -477.465C-459.708 -476.542 -461.79 -475.535 -463.833 -474.443L-451.487 -465.54ZM-471.561 -480.016C-469.679 -481.129 -467.763 -482.175 -465.816 -483.153L-474.274 -489.002C-476.669 -488.454 -479.024 -487.808 -481.336 -487.066L-471.561 -480.016ZM-489.863 -493.216C-488.056 -493.931 -486.223 -494.592 -484.363 -495.197C-486.01 -496.051 -487.681 -496.844 -489.373 -497.576C-491.392 -497.539 -493.416 -497.426 -495.441 -497.238L-489.863 -493.216ZM-2085.07 1858.88C-2086.05 1847.14 -2084.53 1835.63 -2080.64 1824.83L-2025.46 1862.99L-2051.72 1903.82C-2053.78 1907.04 -2055.63 1910.35 -2057.27 1913.73C-2073.3 1899.87 -2083.31 1880.38 -2085.07 1858.88ZM-2044.43 1908.48L-2018.34 1867.92L-1963.05 1906.16L-1994.2 1956.43L-2048.97 1920.04C-2049.4 1919.75 -2049.84 1919.45 -2050.26 1919.16C-2048.59 1915.5 -2046.64 1911.93 -2044.43 1908.48ZM-1986.98 1961.22L-1955.91 1911.09L-1902.38 1948.11L-1932.05 1997.72L-1986.98 1961.22ZM-1924.8 2002.54L-1895.21 1953.07L-1843.28 1988.99L-1871.56 2037.91L-1924.8 2002.54ZM-1864.33 2042.72L-1836.13 1993.94L-1785.68 2028.83L-1812.65 2077.05L-1864.33 2042.72ZM-1805.42 2081.85L-1778.53 2033.78L-1729.45 2067.72L-1755.2 2115.22L-1805.42 2081.85ZM-1747.96 2120.03L-1722.29 2072.67L-1674.52 2105.7L-1699.11 2152.49L-1747.96 2120.03ZM-1691.84 2157.32L-1667.33 2110.68L96.6746 3330.69C115.967 3344.03 139.33 3349.07 162.447 3344.91C185.598 3340.7 205.681 3327.79 219.07 3308.57L1732.03 1133.08C1743.63 1116.39 1749.1 1096.1 1747.42 1075.9C1745.25 1049.64 1731.58 1025.99 1709.92 1011.03L-342.611 -408.499C-341.254 -410.559 -339.827 -412.561 -338.333 -414.502L1830.79 1026.69C1851.66 1040.57 1864.84 1062.85 1866.9 1087.85L1866.87 1087.89C1868.44 1106.33 1863.75 1124.3 1853.42 1139.74L337.9 3407.99C325.755 3426.09 307.335 3438.44 285.924 3442.7C264.512 3446.95 242.71 3442.67 224.543 3430.61L-1691.84 2157.32ZM-345.595 -419.327C-347.046 -417.42 -348.437 -415.46 -349.767 -413.448L-366.415 -424.962C-364.932 -426.729 -363.39 -428.438 -361.791 -430.088L-345.595 -419.327ZM-369.107 -434.949C-370.642 -433.318 -372.126 -431.635 -373.558 -429.902L-388.997 -440.58C-387.385 -442.069 -385.727 -443.496 -384.025 -444.861L-369.107 -434.949ZM-391.572 -449.875C-393.183 -448.511 -394.756 -447.093 -396.288 -445.622L-410.36 -455.354C-408.629 -456.57 -406.854 -457.727 -405.039 -458.822L-391.572 -449.875ZM-412.953 -464.08C-414.645 -462.965 -416.302 -461.799 -417.921 -460.583L-430.094 -469.002C-428.203 -469.942 -426.274 -470.818 -424.31 -471.626L-412.953 -464.08ZM-432.832 -477.288C-434.623 -476.427 -436.384 -475.513 -438.113 -474.548L-447.607 -481.114C-445.461 -481.753 -443.291 -482.31 -441.102 -482.783L-432.832 -477.288ZM-451.485 -488.957C-453.16 -488.431 -454.821 -487.859 -456.467 -487.241L-461.778 -490.914C-459.935 -491.058 -458.093 -491.141 -456.255 -491.164C-454.646 -490.482 -453.056 -489.746 -451.485 -488.957ZM-2053.51 1927.39C-2057.07 1938.01 -2058.43 1949.25 -2057.48 1960.67C-2055.69 1982.24 -2045.94 2001.77 -2030.24 2015.94C-2028.58 2012.35 -2026.69 2008.85 -2024.58 2005.44L-1998.75 1963.78L-2053.51 1927.39ZM-1991.53 1968.57L-2017.22 2010.01C-2019.53 2013.75 -2021.55 2017.62 -2023.25 2021.59C-2021.87 2022.6 -2020.45 2023.56 -2019 2024.49L-1967.69 2057.29L-1936.5 2005.14L-1991.53 1968.57ZM-1929.24 2009.96L-1960.36 2061.98L-1905.69 2096.94L-1875.89 2045.41L-1929.24 2009.96ZM-1868.66 2050.21L-1898.38 2101.61L-1845.36 2135.51L-1816.89 2084.61L-1868.66 2050.21ZM-1809.65 2089.42L-1838.05 2140.18L-1786.57 2173.1L-1759.33 2122.85L-1809.65 2089.42ZM-1752.1 2127.66L-1779.26 2177.77L-1729.22 2209.77L-1703.16 2160.18L-1752.1 2127.66ZM-1695.89 2165.01L-1721.88 2214.46L347.53 3537.59C386.634 3562.59 438.796 3551.19 463.887 3512.2L1981.97 1151.23C1992.04 1135.59 1996.56 1117.53 1995.02 1099.01L1995.03 1099.05C1992.84 1072.71 1978.84 1049.46 1956.58 1035.22L-328.296 -425.67C-329.834 -424.202 -331.325 -422.682 -332.768 -421.114L1835.51 1019.51C1858.64 1034.87 1873.16 1059.52 1875.48 1087.15C1877.14 1107.58 1872.03 1127.4 1860.61 1144.53L345.05 3412.74C331.691 3432.81 311.24 3446.45 287.579 3451.19C263.912 3455.89 239.783 3451.17 219.718 3437.81L-1695.89 2165.01ZM-340.095 -425.982C-338.712 -427.525 -337.287 -429.025 -335.82 -430.481L-350.622 -439.945C-352.245 -438.724 -353.828 -437.451 -355.369 -436.13L-340.095 -425.982ZM-362.828 -441.086C-361.371 -442.394 -359.878 -443.662 -358.35 -444.886L-371.545 -453.323C-373.261 -452.349 -374.948 -451.321 -376.605 -450.239L-362.828 -441.086ZM-384.404 -455.421C-382.866 -456.506 -381.301 -457.547 -379.711 -458.543L-390.966 -465.74C-392.816 -465.019 -394.636 -464.241 -396.425 -463.408L-384.404 -455.421ZM-404.751 -468.94C-403.127 -469.8 -401.477 -470.616 -399.801 -471.389L-407.972 -476.613C-409.299 -476.339 -410.624 -476.034 -411.947 -475.699C-412.66 -475.519 -413.37 -475.331 -414.076 -475.136L-404.751 -468.94ZM-423.302 -481.266C-421.787 -481.806 -420.255 -482.311 -418.706 -482.78C-420.159 -483.485 -421.627 -484.146 -423.11 -484.762C-424.839 -484.752 -426.566 -484.691 -428.288 -484.578L-423.302 -481.266ZM-2029.89 2062.53C-2030.81 2051.43 -2029.6 2040.46 -2026.37 2030.05C-2025.49 2030.65 -2024.6 2031.24 -2023.69 2031.82L-1972.16 2064.77L-1997.44 2107.02C-1999.6 2110.64 -2001.51 2114.37 -2003.17 2118.18C-2018.43 2103.67 -2028.11 2083.84 -2029.89 2062.53ZM-1989.97 2111.5L-1964.83 2069.46L-1910.05 2104.48L-1941.28 2158.5L-1989.05 2129.06C-1991.54 2127.53 -1993.94 2125.87 -1996.24 2124.11C-1994.5 2119.78 -1992.41 2115.57 -1989.97 2111.5ZM-1933.9 2163.05L-1902.74 2109.16L-1849.62 2143.12L-1879.51 2196.56L-1933.9 2163.05ZM-1872.14 2201.11L-1842.31 2147.79L-1790.72 2180.77L-1819.37 2233.62L-1872.14 2201.11ZM-1811.99 2238.17L-1783.42 2185.45L-1733.28 2217.5L-1760.75 2269.75L-1811.99 2238.17ZM-1753.34 2274.31L-1725.94 2222.19L342.833 3544.89C385.956 3572.42 443.518 3559.88 471.179 3516.85L1989.26 1155.89C2000.39 1138.61 2005.38 1118.72 2003.67 1098.3C2001.26 1069.26 1985.8 1043.61 1961.23 1027.89L-321.495 -431.594C-320.065 -432.728 -318.603 -433.823 -317.11 -434.877L2082.32 1043.72C2105.63 1058.09 2120.88 1082.96 2123.15 1110.25C2124.69 1128.77 2120.3 1146.97 2110.49 1162.81L589.811 3616.53C577.669 3636.17 558.503 3649.92 535.956 3655.25C513.447 3660.57 490.172 3656.82 470.451 3644.65L-1753.34 2274.31ZM-325.096 -439.798C-326.492 -438.74 -327.862 -437.647 -329.203 -436.522L-342.827 -445.233C-341.314 -446.155 -339.772 -447.036 -338.205 -447.876L-325.096 -439.798ZM-346.597 -453.047C-348.038 -452.186 -349.457 -451.291 -350.852 -450.364L-362.523 -457.826C-360.892 -458.534 -359.242 -459.197 -357.576 -459.813L-346.597 -453.047ZM-366.72 -465.447C-368.216 -464.784 -369.698 -464.084 -371.163 -463.35L-380.28 -469.179C-378.454 -469.649 -376.621 -470.061 -374.785 -470.417L-366.72 -465.447ZM-385.894 -476.599C-387.243 -476.203 -388.58 -475.781 -389.904 -475.332L-394.614 -478.343C-393.135 -478.422 -391.657 -478.464 -390.18 -478.469C-388.741 -477.887 -387.312 -477.264 -385.894 -476.599ZM-1999.19 2132.69C-2002.12 2142.91 -2003.19 2153.61 -2002.29 2164.4C-2000.52 2185.77 -1991.06 2205.6 -1976.09 2220.41C-1974.42 2216.39 -1972.47 2212.45 -1970.25 2208.63L-1945.6 2165.99L-1993.59 2136.41C-1995.51 2135.23 -1997.37 2133.99 -1999.19 2132.69ZM-1938.22 2170.53L-1962.77 2212.99C-1965.3 2217.37 -1967.44 2221.9 -1969.2 2226.56C-1966 2229.13 -1962.61 2231.49 -1959.03 2233.62L-1914.92 2259.86L-1883.74 2204.11L-1938.22 2170.53ZM-1876.36 2208.65L-1907.48 2264.28L-1853.41 2296.44L-1823.49 2241.23L-1876.36 2208.65ZM-1816.11 2245.78L-1845.97 2300.87L-1793.51 2332.07L-1764.78 2277.41L-1816.11 2245.78ZM-1757.37 2281.98L-1786.04 2336.51L593.447 3751.7C613.936 3763.85 637.949 3767.35 661.049 3761.53C684.188 3755.71 703.647 3741.22 715.882 3720.8L2239.08 1174.37C2248.68 1158.33 2252.94 1140.03 2251.39 1121.47L2251.35 1121.44C2248.99 1092.78 2232.8 1066.91 2208.1 1052.22L-304.747 -442.318C-306.186 -441.589 -307.606 -440.826 -309.003 -440.03L2086.89 1036.36C2112.54 1052.13 2129.3 1079.51 2131.8 1109.5C2133.5 1129.89 2128.68 1149.87 2117.87 1167.3L597.193 3620.98C583.804 3642.63 562.73 3657.74 537.938 3663.59C513.108 3669.43 487.516 3665.32 465.867 3651.93L-1757.37 2281.98ZM-317.331 -445.162C-316.053 -445.964 -314.757 -446.74 -313.442 -447.49L-324.334 -453.968C-325.858 -453.434 -327.365 -452.865 -328.853 -452.262L-317.331 -445.162ZM-337.78 -457.763C-336.455 -458.393 -335.114 -458.996 -333.759 -459.573L-341.535 -464.199C-343.209 -463.895 -344.873 -463.546 -346.527 -463.153L-337.78 -457.763ZM-356.557 -469.333C-355.38 -469.714 -354.198 -470.074 -353.009 -470.412C-354.313 -471.009 -355.628 -471.573 -356.953 -472.104C-358.279 -472.109 -359.607 -472.085 -360.935 -472.031L-356.557 -469.333ZM-1974.77 2266.24C-1975.64 2255.76 -1974.7 2245.34 -1972.03 2235.33C-1969.31 2237.36 -1966.47 2239.26 -1963.53 2241.01L-1919.15 2267.41L-1943.11 2310.24C-1945.37 2314.27 -1947.35 2318.42 -1949.03 2322.66C-1963.73 2307.59 -1972.98 2287.71 -1974.77 2266.24ZM-1935.56 2314.48L-1911.7 2271.83L-1857.54 2304.05L-1888.61 2361.39L-1929.1 2338.12C-1933.75 2335.44 -1938.12 2332.39 -1942.17 2329.01C-1940.4 2324.03 -1938.19 2319.17 -1935.56 2314.48ZM-1881.11 2365.7L-1850.09 2308.48L-1797.54 2339.74L-1827.41 2396.57L-1881.11 2365.7ZM-1819.88 2400.9L-1790.06 2344.18L588.959 3759.13C611.412 3772.49 637.739 3776.31 663.112 3769.9C688.491 3763.52 709.852 3747.64 723.259 3725.22L2246.46 1178.79C2256.97 1161.16 2261.66 1141.08 2259.97 1120.73C2257.37 1089.33 2239.63 1060.96 2212.52 1044.84L-295.1 -446.585C-293.757 -447.097 -292.4 -447.581 -291.028 -448.038L2333.92 1060.74C2360.01 1075.76 2377.09 1102.64 2379.59 1132.63L2379.56 1132.67C2381.07 1151.27 2376.93 1169.67 2367.56 1185.91L841.802 3825.09C816.507 3868.86 760.229 3883.93 716.362 3858.73L-1819.88 2400.9ZM-300.792 -453.651C-302.001 -453.156 -303.198 -452.641 -304.383 -452.106L-312.954 -457.204C-311.472 -457.531 -309.987 -457.824 -308.499 -458.081L-300.792 -453.651ZM-322.309 -463.697C-322.654 -463.594 -322.999 -463.489 -323.343 -463.383L-327.23 -465.694C-326.089 -465.727 -324.946 -465.739 -323.803 -465.73C-322.632 -465.268 -321.467 -464.782 -320.311 -464.27C-320.978 -464.086 -321.644 -463.894 -322.309 -463.697ZM-1944.85 2337.91C-1947.28 2347.72 -1948.1 2357.88 -1947.25 2368.07C-1945.46 2389.66 -1936.4 2409.58 -1921.94 2424.9C-1920.25 2420.45 -1918.26 2416.09 -1915.97 2411.86L-1892.72 2368.97L-1933.43 2345.56C-1937.44 2343.26 -1941.25 2340.7 -1944.85 2337.91ZM-1885.22 2373.28L-1908.36 2415.98C-1911.06 2420.97 -1913.31 2426.15 -1915.09 2431.46C-1910.22 2435.67 -1904.88 2439.42 -1899.13 2442.61L-1862.36 2463.06L-1831.42 2404.2L-1885.22 2373.28ZM-1823.89 2408.53L-1854.77 2467.28L839.277 3965.75C861.321 3978.01 886.803 3980.94 911.081 3974.09C935.359 3967.23 955.484 3951.31 967.792 3929.34L2496.11 1197.44C2505.27 1181.03 2509.32 1162.53 2507.8 1143.85C2505.2 1112.49 2487.22 1084.58 2459.7 1069.28L-275.314 -451.921C-276.622 -451.707 -277.929 -451.467 -279.233 -451.2L2338.21 1053.31C2366.8 1069.74 2385.47 1099.15 2388.17 1131.96C2389.83 1152.32 2385.34 1172.45 2375.04 1190.24L849.283 3829.42C821.584 3877.3 759.987 3893.86 712.002 3866.25L-1823.89 2408.53ZM-290.046 -457.416L-293.648 -459.486C-292.716 -459.502 -291.785 -459.505 -290.854 -459.494C-289.731 -459.062 -288.613 -458.608 -287.5 -458.131C-288.35 -457.903 -289.199 -457.665 -290.046 -457.416ZM-1919.73 2469.87C-1920.54 2460 -1919.83 2450.14 -1917.65 2440.58C-1913.2 2444.13 -1908.43 2447.34 -1903.37 2450.16L-1866.39 2470.73L-1888.86 2513.48C-1891.18 2517.9 -1893.18 2522.45 -1894.86 2527.1C-1909.06 2511.55 -1917.95 2491.57 -1919.73 2469.87ZM-1881.15 2517.47L-1858.8 2474.95L835.145 3973.25C859.177 3986.6 887.009 3989.85 913.513 3982.33C940.022 3974.84 962.006 3957.49 975.444 3933.49L2503.76 1201.6C2513.77 1183.69 2518.18 1163.45 2516.48 1143.1C2513.63 1108.84 2494.02 1078.4 2463.94 1061.69L-259.781 -453.224C-259.113 -453.227 -258.446 -453.224 -257.779 -453.213C-253.757 -451.688 -249.812 -449.886 -245.965 -447.812L2585.45 1077.77C2614.42 1093.39 2633.34 1122.26 2636.03 1155.04L2636.04 1155.08C2637.6 1173.75 2633.65 1192.39 2624.66 1208.98L1093.79 4033.62C1068.36 4080.56 1009.35 4098.1 962.269 4072.77L-1869.15 2547.1C-1876.03 2543.41 -1882.34 2538.96 -1888 2533.89C-1886.22 2528.26 -1883.94 2522.77 -1881.15 2517.47ZM-1890.45 2543.21C-1885.17 2547.56 -1879.43 2551.43 -1873.26 2554.75L958.194 4080.41C1009.45 4108.02 1073.77 4088.89 1101.47 4037.73L2632.35 1213.08C2642.15 1195.01 2646.38 1174.68 2644.72 1154.32C2641.74 1118.66 2621.15 1087.19 2589.61 1070.2L-228.694 -448.359C-223.392 -446.632 -218.198 -444.446 -213.161 -441.808L2711.2 1086.35C2741.59 1102.21 2761.45 1132.12 2764.28 1166.27L2764.32 1166.26C2765.88 1184.97 2762.06 1203.75 2753.25 1220.5L1219.82 4137.87C1207.44 4161.39 1186.64 4178.7 1161.23 4186.62C1135.78 4194.55 1108.82 4192.12 1085.22 4179.79L-1839.17 2651.67C-1869.53 2635.77 -1889.38 2605.9 -1892.22 2571.71C-1893.02 2562.12 -1892.41 2552.53 -1890.45 2543.21Z" fill="#A7A5A5" fill-opacity="0.2"/>
</svg>
