<svg width="126" height="121" viewBox="0 0 126 121" fill="none" xmlns="http://www.w3.org/2000/svg">
<path fill-rule="evenodd" clip-rule="evenodd" d="M2.08273 3.09025C1.58273 5.00692 1.16607 6.96525 0.999399 8.92358C0.457733 15.8403 -0.167265 39.0486 0.0410679 43.7153C0.0410679 45.1319 0.291067 46.7153 0.8744 48.0069C1.91607 50.2986 4.58273 50.4653 6.04106 48.3403C6.58273 47.5903 6.91606 46.5903 7.08273 45.6319C7.54106 42.8403 7.91606 40.0486 8.1244 37.2569C8.70773 28.8403 9.2494 20.3819 9.6244 11.9653C9.7494 9.17359 9.45773 6.34026 9.1244 3.54859C8.8744 1.46526 7.16607 -0.11808 5.58273 0.0069201C3.70773 0.173587 2.54107 1.38192 2.08273 3.09025ZM59.0828 58.5897C59.2425 57.9507 59.381 57.35 59.5131 56.7767L59.5132 56.7767C59.7947 55.5556 60.0475 54.4588 60.4161 53.3814C65.8328 37.3814 74.5411 23.1314 84.4578 9.58971C85.6244 8.00638 87.0828 6.50638 88.7078 5.50638C89.5828 4.96471 91.3328 5.04805 92.3328 5.58972C93.0828 6.00638 93.6244 7.63138 93.4578 8.54805C93.1661 10.298 92.5411 12.0897 91.6661 13.6731C85.9161 24.1314 80.1244 34.5481 74.2494 44.9231C72.5213 47.9555 70.7166 50.9624 68.9152 53.9637C68.4147 54.7977 67.9144 55.6312 67.4161 56.4647C66.6661 57.7564 65.8328 59.0064 64.9578 60.1731C63.9994 61.5064 62.5411 62.2981 61.0828 61.4231C60.9907 61.367 60.8979 61.3125 60.8053 61.2582L60.8052 61.2581C59.9339 60.7466 59.0828 60.2469 59.0828 58.5897ZM118.083 120.633C117.414 120.521 116.709 120.419 115.981 120.314C114.532 120.104 112.997 119.882 111.499 119.549C102.624 117.549 93.7494 115.549 84.9161 113.466C82.9994 113.008 81.1244 112.216 79.4161 111.299C77.1244 110.091 76.3328 108.383 76.7078 106.508C77.0828 104.633 78.5828 103.466 81.2078 103.424C82.9994 103.383 84.9161 103.424 86.6245 103.841C97.8328 106.674 109.041 109.591 120.208 112.549C121.458 112.883 122.749 113.466 123.708 114.299C126.124 116.341 125.374 119.549 122.291 120.341C121.527 120.525 120.697 120.543 119.779 120.563H119.779H119.779C119.244 120.575 118.681 120.587 118.083 120.633Z" fill="white"/>
</svg>
